0
SECTION
2
HEADER
9
$INSUNITS
70
4
9
$ACADVER
1
AC1014
9
$HANDSEED
5
FFFF
0
ENDSEC
0
SECTION
2
TABLES
0
TABLE
2
VPORT
5
8
100
AcDbSymbolTable
0
ENDTAB
0
TABLE
2
LTYPE
5
5
100
AcDbSymbolTable
0
LTYPE
5
14
100
AcDbSymbolTableRecord
100
AcDbLinetypeTableRecord
2
BYBLOCK
70
0
0
LTYPE
5
15
100
AcDbSymbolTableRecord
100
AcDbLinetypeTableRecord
2
BYLAYER
70
0
0
LTYPE
5
16
100
AcDbSymbolTableRecord
100
AcDbLinetypeTableRecord
2
DASHED
70
0
3
Dashed __ __ __ __ __ __ __ __ __ __ __ __ __ _
72
65
73
2
40
0.75
49
0.5
74
0
49
-0.25
74
0
0
ENDTAB
0
TABLE
2
LAYER
5
2
100
AcDbSymbolTable
70
2
0
LAYER
5
50
100
AcDbSymbolTableRecord
100
AcDbLayerTableRecord
2
0
70
0
62
7
6
CONTINUOUS
0
ENDTAB
0
TABLE
2
STYLE
5
3
100
AcDbSymbolTable
70
1
0
STYLE
5
11
100
AcDbSymbolTableRecord
100
AcDbTextStyleTableRecord
2
STANDARD
70
0
0
ENDTAB
0
TABLE
2
VIEW
5
6
100
AcDbSymbolTable
70
0
0
ENDTAB
0
TABLE
2
UCS
5
7
100
AcDbSymbolTable
70
0
0
ENDTAB
0
TABLE
2
APPID
5
9
100
AcDbSymbolTable
70
2
0
APPID
5
12
100
AcDbSymbolTableRecord
100
AcDbRegAppTableRecord
2
ACAD
70
0
0
ENDTAB
0
TABLE
2
DIMSTYLE
5
A
100
AcDbSymbolTable
70
1
0
ENDTAB
0
TABLE
2
BLOCK_RECORD
5
1
100
AcDbSymbolTable
70
1
0
BLOCK_RECORD
5
1F
100
AcDbSymbolTableRecord
100
AcDbBlockTableRecord
2
*MODEL_SPACE
0
BLOCK_RECORD
5
1B
100
AcDbSymbolTableRecord
100
AcDbBlockTableRecord
2
*PAPER_SPACE
0
ENDTAB
0
ENDSEC
0
SECTION
2
BLOCKS
0
BLOCK
5
20
100
AcDbEntity
100
AcDbBlockBegin
2
*MODEL_SPACE
0
ENDBLK
5
21
100
AcDbEntity
100
AcDbBlockEnd
0
BLOCK
5
1C
100
AcDbEntity
100
AcDbBlockBegin
2
*PAPER_SPACE
0
ENDBLK
5
1D
100
AcDbEntity
100
AcDbBlockEnd
0
ENDSEC
0
SECTION
2
ENTITIES
0
ELLIPSE
5
100
100
AcDbEntity
8
0
100
AcDbEllipse
10
42.426406871192803
20
-42.426406871192874
30
0
11
-24.465894629054578
21
-24.465894629054517
31
0.0
40
0.55028453443955205
41
3.1415926535897936
42
6.2831853071795871
0
LINE
5
101
100
AcDbEntity
8
0
100
AcDbLine
10
66.892301500247385
20
-17.960512242138361
30
0
11
84.852813742385649
21
-3.7747582837255322e-14
31
0
0
LINE
5
102
100
AcDbEntity
8
0
100
AcDbLine
10
84.852813742385649
20
-3.7747582837255322e-14
30
0
11
66.892301500247427
21
17.960512242138222
31
0
0
ELLIPSE
5
103
100
AcDbEntity
8
0
100
AcDbEllipse
10
42.426406871192896
20
42.426406871192803
30
0
11
24.465894629054532
21
-24.465894629054581
31
0.0
40
0.55028453443955216
41
3.1415926535897927
42
6.2831853071795871
0
LINE
5
104
100
AcDbEntity
8
0
100
AcDbLine
10
17.960512242138364
20
66.892301500247385
30
0
11
-5.3290705182007514e-14
21
84.852813742385692
31
0
0
LINE
5
105
100
AcDbEntity
8
0
100
AcDbLine
10
-5.3290705182007514e-14
20
84.852813742385692
30
0
11
-17.960512242138165
21
66.892301500247399
31
0
0
ELLIPSE
5
106
100
AcDbEntity
8
0
100
AcDbEllipse
10
-42.426406871192754
20
42.426406871192881
30
0
11
24.465894629054581
21
24.46589462905451
31
0.0
40
0.55028453443955205
41
3.1415926535897927
42
6.2831853071795862
0
LINE
5
107
100
AcDbEntity
8
0
100
AcDbLine
10
-66.892301500247328
20
17.960512242138375
30
0
11
-84.852813742385706
21
-1.9984014443252818e-14
31
0
0
LINE
5
108
100
AcDbEntity
8
0
100
AcDbLine
10
-84.852813742385706
20
-1.9984014443252818e-14
30
0
11
-66.892301500247385
21
-17.960512242138194
31
0
0
ELLIPSE
5
109
100
AcDbEntity
8
0
100
AcDbEllipse
10
-42.426406871192867
20
-42.426406871192775
30
0
11
-24.46589462905451
21
24.465894629054581
31
0.0
40
0.55028453443955205
41
3.1415926535897931
42
6.2831853071795853
0
LINE
5
110
100
AcDbEntity
8
0
100
AcDbLine
10
-17.960512242138357
20
-66.892301500247356
30
0
11
-3.5527136788005009e-14
21
-84.852813742385706
31
0
0
LINE
5
111
100
AcDbEntity
8
0
100
AcDbLine
10
-3.5527136788005009e-14
20
-84.852813742385706
30
0
11
17.960512242138236
21
-66.892301500247399
31
0
0
CIRCLE
5
112
100
AcDbEntity
8
0
100
AcDbCircle
10
-15.499999999999991
20
15.500000000000011
30
0
40
1.7500000000000004
210
0
220
-0
230
1
0
CIRCLE
5
113
100
AcDbEntity
8
0
100
AcDbCircle
10
-15.5
20
-15.500000000000004
30
0
40
1.7500000000000004
210
0
220
-0
230
1
0
CIRCLE
5
114
100
AcDbEntity
8
0
100
AcDbCircle
10
15.500000000000036
20
15.500000000000004
30
0
40
1.7500000000000004
210
0
220
-0
230
1
0
CIRCLE
5
115
100
AcDbEntity
8
0
100
AcDbCircle
10
15.500000000000027
20
-15.500000000000011
30
0
40
1.7500000000000004
210
0
220
-0
230
1
0
CIRCLE
5
116
100
AcDbEntity
8
0
100
AcDbCircle
10
74.17514421272196
20
-2.8370357775899885e-14
30
0
40
1.6249999999999964
210
0
220
-0
230
1
0
CIRCLE
5
117
100
AcDbEntity
8
0
100
AcDbCircle
10
-74.175144212722017
20
-1.4559492076297115e-15
30
0
40
1.6249999999999964
210
0
220
-0
230
1
0
CIRCLE
5
118
100
AcDbEntity
8
0
100
AcDbCircle
10
-3.6834903954656206e-14
20
74.175144212721989
30
0
40
1.6249999999999964
210
0
220
-0
230
1
0
CIRCLE
5
119
100
AcDbEntity
8
0
100
AcDbCircle
10
-5.4665477229286022e-14
20
-74.175144212722003
30
0
40
1.6249999999999964
210
0
220
-0
230
1
0
CIRCLE
5
120
100
AcDbEntity
8
0
100
AcDbCircle
10
2.1740000000000016e-14
20
-2.5796811642825937e-15
30
0
40
12
210
0
220
-0
230
1
0
ENDSEC
0
SECTION
2
OBJECTS
0
DICTIONARY
5
C
100
AcDbDictionary
3
ACAD_GROUP
350
D
3
ACAD_MLINESTYLE
350
17
0
DICTIONARY
5
D
100
AcDbDictionary
0
DICTIONARY
5
1A
330
C
100
AcDbDictionary
0
DICTIONARY
5
17
100
AcDbDictionary
0
ENDSEC
0
EOF
