0
SECTION
2
HEADER
9
$INSUNITS
70
4
9
$ACADVER
1
AC1014
9
$HANDSEED
5
FFFF
0
ENDSEC
0
SECTION
2
TABLES
0
TABLE
2
VPORT
5
8
100
AcDbSymbolTable
0
ENDTAB
0
TABLE
2
LTYPE
5
5
100
AcDbSymbolTable
0
LTYPE
5
14
100
AcDbSymbolTableRecord
100
AcDbLinetypeTableRecord
2
BYBLOCK
70
0
0
LTYPE
5
15
100
AcDbSymbolTableRecord
100
AcDbLinetypeTableRecord
2
BYLAYER
70
0
0
LTYPE
5
16
100
AcDbSymbolTableRecord
100
AcDbLinetypeTableRecord
2
DASHED
70
0
3
Dashed __ __ __ __ __ __ __ __ __ __ __ __ __ _
72
65
73
2
40
0.75
49
0.5
74
0
49
-0.25
74
0
0
ENDTAB
0
TABLE
2
LAYER
5
2
100
AcDbSymbolTable
70
2
0
LAYER
5
50
100
AcDbSymbolTableRecord
100
AcDbLayerTableRecord
2
0
70
0
62
7
6
CONTINUOUS
0
ENDTAB
0
TABLE
2
STYLE
5
3
100
AcDbSymbolTable
70
1
0
STYLE
5
11
100
AcDbSymbolTableRecord
100
AcDbTextStyleTableRecord
2
STANDARD
70
0
0
ENDTAB
0
TABLE
2
VIEW
5
6
100
AcDbSymbolTable
70
0
0
ENDTAB
0
TABLE
2
UCS
5
7
100
AcDbSymbolTable
70
0
0
ENDTAB
0
TABLE
2
APPID
5
9
100
AcDbSymbolTable
70
2
0
APPID
5
12
100
AcDbSymbolTableRecord
100
AcDbRegAppTableRecord
2
ACAD
70
0
0
ENDTAB
0
TABLE
2
DIMSTYLE
5
A
100
AcDbSymbolTable
70
1
0
ENDTAB
0
TABLE
2
BLOCK_RECORD
5
1
100
AcDbSymbolTable
70
1
0
BLOCK_RECORD
5
1F
100
AcDbSymbolTableRecord
100
AcDbBlockTableRecord
2
*MODEL_SPACE
0
BLOCK_RECORD
5
1B
100
AcDbSymbolTableRecord
100
AcDbBlockTableRecord
2
*PAPER_SPACE
0
ENDTAB
0
ENDSEC
0
SECTION
2
BLOCKS
0
BLOCK
5
20
100
AcDbEntity
100
AcDbBlockBegin
2
*MODEL_SPACE
0
ENDBLK
5
21
100
AcDbEntity
100
AcDbBlockEnd
0
BLOCK
5
1C
100
AcDbEntity
100
AcDbBlockBegin
2
*PAPER_SPACE
0
ENDBLK
5
1D
100
AcDbEntity
100
AcDbBlockEnd
0
ENDSEC
0
SECTION
2
ENTITIES
0
CIRCLE
5
100
100
AcDbEntity
8
0
100
AcDbCircle
10
-55.749999999999943
20
-53.500000000000014
30
-8.8817841970012523e-15
40
1.749999999999998
210
5.8885964526850949e-33
220
1.2325951644078312e-32
230
1
0
LWPOLYLINE
5
101
100
AcDbEntity
8
0
100
AcDbPolyline
90
4
70
1
43
0.0
10
-63.999999999999929
20
-66
10
63.999999999999758
20
-66
10
63.999999999999773
20
24.000000000000561
10
-63.999999999999929
20
24.000000000000558
0
CIRCLE
5
102
100
AcDbEntity
8
0
100
AcDbCircle
10
-15.999999999999979
20
-23.000000000000014
30
-1.7763568394002505e-14
40
1.7500000000000004
210
5.8885964526850894e-33
220
4.9303806576313238e-32
230
1
0
CIRCLE
5
103
100
AcDbEntity
8
0
100
AcDbCircle
10
16.000000000000028
20
-23.000000000000014
30
-8.8817841970012523e-15
40
1.7500000000000004
210
5.8885964526850894e-33
220
4.9303806576313238e-32
230
1
0
CIRCLE
5
104
100
AcDbEntity
8
0
100
AcDbCircle
10
39.999999999999901
20
-49.000000000000192
30
-8.8817841970012523e-15
40
4
210
-1.1102230246251565e-16
220
-3.7974780724341023e-32
230
1
0
CIRCLE
5
105
100
AcDbEntity
8
0
100
AcDbCircle
10
2.6645352591003757e-14
20
-39.000000000000014
30
0
40
19.000000000000007
210
-1.1102230246251565e-16
220
-1.3322877436184395e-32
230
1
0
CIRCLE
5
106
100
AcDbEntity
8
0
100
AcDbCircle
10
-15.999999999999975
20
-55.000000000000028
30
-8.8817841970012523e-15
40
1.749999999999998
210
5.8885964526850949e-33
220
7.0664224277605631e-49
230
1
0
CIRCLE
5
107
100
AcDbEntity
8
0
100
AcDbCircle
10
-55.749999999999943
20
11.49999999999997
30
-8.8817841970012523e-15
40
1.749999999999998
210
5.8885964526850949e-33
220
1.2325951644078312e-32
230
1
0
CIRCLE
5
108
100
AcDbEntity
8
0
100
AcDbCircle
10
55.749999999999872
20
11.500000000000462
30
-1.7763568394002505e-14
40
1.749999999999998
210
5.8885964526850949e-33
220
1.2325951644078312e-32
230
1
0
CIRCLE
5
109
100
AcDbEntity
8
0
100
AcDbCircle
10
55.750000000000469
20
-53.499999999999517
30
-1.7763568394002505e-14
40
1.749999999999998
210
5.8885964526850949e-33
220
1.2325951644078312e-32
230
1
0
CIRCLE
5
110
100
AcDbEntity
8
0
100
AcDbCircle
10
16.000000000000032
20
-55.000000000000028
30
-1.7763568394002505e-14
40
1.7500000000000004
210
5.8885964526850894e-33
220
4.9303806576313238e-32
230
1
0
LINE
5
111
100
AcDbEntity
8
0
100
AcDbLine
10
27.885603280722258
20
-49.000000000000192
30
0
11
52.114396719277529
21
-49.000000000000192
31
0
6
DASHED
0
LINE
5
112
100
AcDbEntity
8
0
100
AcDbLine
10
52.114396719277529
20
-49.000000000000192
30
0
11
52.114396719277536
21
-29.000000000000192
31
0
6
DASHED
0
LINE
5
113
100
AcDbEntity
8
0
100
AcDbLine
10
52.114396719277536
20
-29.000000000000192
30
0
11
27.885603280722272
21
-29.000000000000192
31
0
6
DASHED
0
LINE
5
114
100
AcDbEntity
8
0
100
AcDbLine
10
27.885603280722272
20
-29.000000000000192
30
0
11
27.885603280722258
21
-49.000000000000192
31
0
6
DASHED
0
LINE
5
115
100
AcDbEntity
8
0
100
AcDbLine
10
30.273844143360019
20
-39.277456045150949
30
0
11
30.273844143360019
21
-40.907514333725167
31
0
0
SPLINE
5
116
100
AcDbEntity
8
0
100
AcDbSpline
70
0
71
2
72
6
73
3
74
0
42
0.000000001
43
0.0000000001
44
0.0000000001
40
0
40
0
40
0
40
1
40
1
40
1
10
30.273844143360019
20
-40.907514333725167
30
0
10
30.273844143360016
20
-41.384393215179635
30
0
10
30.332370242088196
20
-41.507947683334542
30
0
0
SPLINE
5
117
100
AcDbEntity
8
0
100
AcDbSpline
70
0
71
2
72
6
73
3
74
0
42
0.000000001
43
0.0000000001
44
0.0000000001
40
0
40
0
40
0
40
1
40
1
40
1
10
30.332370242088196
20
-41.507947683334542
30
0
10
30.390896042793152
20
-41.631503343582345
30
0
10
30.540462573974487
20
-41.705202102661325
30
0
0
SPLINE
5
118
100
AcDbEntity
8
0
100
AcDbSpline
70
0
71
2
72
6
73
3
74
0
42
0.000000001
43
0.0000000001
44
0.0000000001
40
0
40
0
40
0
40
1
40
1
40
1
10
30.540462573974487
20
-41.705202102661325
30
0
10
30.690029105155823
20
-41.7789020538332
30
0
10
31.088872989623901
20
-41.7789020538332
30
0
0
LINE
5
119
100
AcDbEntity
8
0
100
AcDbLine
10
31.088872989623901
20
-41.7789020538332
30
0
11
31.088872989623901
21
-41.939306497574044
31
0
0
LINE
5
120
100
AcDbEntity
8
0
100
AcDbLine
10
31.088872989623901
20
-41.939306497574044
30
0
11
28.101878752916214
21
-41.939306497574044
31
0
0
LINE
5
121
100
AcDbEntity
8
0
100
AcDbLine
10
28.101878752916214
20
-41.939306497574044
30
0
11
28.101878752916214
21
-41.7789020538332
31
0
0
SPLINE
5
122
100
AcDbEntity
8
0
100
AcDbSpline
70
0
71
2
72
6
73
3
74
0
42
0.000000001
43
0.0000000001
44
0.0000000001
40
0
40
0
40
0
40
1
40
1
40
1
10
28.101878752916218
20
-41.7789020538332
30
0
10
28.50939317604816
20
-41.7789020538332
30
0
10
28.654624437897564
20
-41.703034877777291
30
0
0
SPLINE
5
123
100
AcDbEntity
8
0
100
AcDbSpline
70
0
71
2
72
6
73
3
74
0
42
0.000000001
43
0.0000000001
44
0.0000000001
40
0
40
0
40
0
40
1
40
1
40
1
10
28.654624437897564
20
-41.703034877777291
30
0
10
28.799855699746967
20
-41.627167701721383
30
0
10
28.858381649463535
20
-41.505780458450509
30
0
0
SPLINE
5
124
100
AcDbEntity
8
0
100
AcDbSpline
70
0
71
2
72
6
73
3
74
0
42
0.000000001
43
0.0000000001
44
0.0000000001
40
0
40
0
40
0
40
1
40
1
40
1
10
28.858381649463535
20
-41.505780458450509
30
0
10
28.916907748191715
20
-41.384393215179635
30
0
10
28.916907748191715
20
-40.907514333725167
30
0
0
LINE
5
125
100
AcDbEntity
8
0
100
AcDbLine
10
28.916907748191715
20
-40.907514333725167
30
0
11
28.916907748191715
21
-37.092485666275216
31
0
0
SPLINE
5
126
100
AcDbEntity
8
0
100
AcDbSpline
70
0
71
2
72
6
73
3
74
0
42
0.000000001
43
0.0000000001
44
0.0000000001
40
0
40
0
40
0
40
1
40
1
40
1
10
28.916907748191715
20
-37.092485666275216
30
0
10
28.916907748191715
20
-36.615606784820748
30
0
10
28.858381649463535
20
-36.492051720619394
30
0
0
SPLINE
5
127
100
AcDbEntity
8
0
100
AcDbSpline
70
0
71
2
72
6
73
3
74
0
42
0.000000001
43
0.0000000001
44
0.0000000001
40
0
40
0
40
0
40
1
40
1
40
1
10
28.858381649463535
20
-36.492051720619394
30
0
10
28.799855699746967
20
-36.368497252464486
30
0
10
28.652456765978695
20
-36.294797301292611
30
0
0
SPLINE
5
128
100
AcDbEntity
8
0
100
AcDbSpline
70
0
71
2
72
6
73
3
74
0
42
0.000000001
43
0.0000000001
44
0.0000000001
40
0
40
0
40
0
40
1
40
1
40
1
10
28.652456765978695
20
-36.294797301292611
30
0
10
28.505057906716228
20
-36.221097946167184
30
0
10
28.101878752916218
20
-36.221097946167184
30
0
0
LINE
5
129
100
AcDbEntity
8
0
100
AcDbLine
10
28.101878752916218
20
-36.221097946167184
30
0
11
28.101878752916218
21
-36.060693502426339
31
0
0
LINE
5
130
100
AcDbEntity
8
0
100
AcDbLine
10
28.101878752916218
20
-36.060693502426339
30
0
11
30.664017340152622
21
-36.060693502426339
31
0
0
SPLINE
5
131
100
AcDbEntity
8
0
100
AcDbSpline
70
0
71
2
72
6
73
3
74
0
42
0.000000001
43
0.0000000001
44
0.0000000001
40
0
40
0
40
0
40
1
40
1
40
1
10
30.664017340152622
20
-36.060693502426339
30
0
10
31.929913600890995
20
-36.060693502426339
30
0
10
32.480491539447669
20
-36.511560320854379
30
0
0
SPLINE
5
132
100
AcDbEntity
8
0
100
AcDbSpline
70
0
71
2
72
6
73
3
74
0
42
0.000000001
43
0.0000000001
44
0.0000000001
40
0
40
0
40
0
40
1
40
1
40
1
10
32.480491539447669
20
-36.511560320854379
30
0
10
33.031069776027564
20
-36.962427735328866
30
0
10
33.031069776027564
20
-37.638728857040597
30
0
0
SPLINE
5
133
100
AcDbEntity
8
0
100
AcDbSpline
70
0
71
2
72
6
73
3
74
0
42
0.000000001
43
0.0000000001
44
0.0000000001
40
0
40
0
40
0
40
1
40
1
40
1
10
33.031069776027564
20
-37.638728857040597
30
0
10
33.031069776027564
20
-38.210982322693063
30
0
10
32.675578137843971
20
-38.618496894836618
30
0
0
SPLINE
5
134
100
AcDbEntity
8
0
100
AcDbSpline
70
0
71
2
72
6
73
3
74
0
42
0.000000001
43
0.0000000001
44
0.0000000001
40
0
40
0
40
0
40
1
40
1
40
1
10
32.675578137843971
20
-38.618496894836618
30
0
10
32.320086797683601
20
-39.026011466980172
30
0
10
31.695809504001499
20
-39.173410177231027
30
0
0
SPLINE
5
135
100
AcDbEntity
8
0
100
AcDbSpline
70
0
71
2
72
6
73
3
74
0
42
0.000000001
43
0.0000000001
44
0.0000000001
40
0
40
0
40
0
40
1
40
1
40
1
10
31.695809504001499
20
-39.173410177231027
30
0
10
31.275289198367954
20
-39.277456045150949
30
0
10
30.273844143360019
20
-39.277456045150949
30
0
0
LINE
5
136
100
AcDbEntity
8
0
100
AcDbLine
10
30.273844143360019
20
-36.398843765258981
30
0
11
30.273844143360019
21
-38.939306974411203
31
0
0
SPLINE
5
137
100
AcDbEntity
8
0
100
AcDbSpline
70
0
71
2
72
6
73
3
74
0
42
0.000000001
43
0.0000000001
44
0.0000000001
40
0
40
0
40
0
40
1
40
1
40
1
10
30.273844143360019
20
-38.939306974411203
30
0
10
30.41690780779636
20
-38.947977066040231
30
0
10
30.490607162921787
20
-38.947977066040231
30
0
0
SPLINE
5
138
100
AcDbEntity
8
0
100
AcDbSpline
70
0
71
2
72
6
73
3
74
0
42
0.000000001
43
0.0000000001
44
0.0000000001
40
0
40
0
40
0
40
1
40
1
40
1
10
30.490607162921787
20
-38.947977066040231
30
0
10
31.019508680312992
20
-38.947977066040231
30
0
10
31.305636009185672
20
-38.633671045303537
30
0
0
SPLINE
5
139
100
AcDbEntity
8
0
100
AcDbSpline
70
0
71
2
72
6
73
3
74
0
42
0.000000001
43
0.0000000001
44
0.0000000001
40
0
40
0
40
0
40
1
40
1
40
1
10
31.305636009185672
20
-38.633671045303537
30
0
10
31.591763040035129
20
-38.319363832473947
30
0
10
31.591763040035129
20
-37.660404682159616
30
0
0
SPLINE
5
140
100
AcDbEntity
8
0
100
AcDbSpline
70
0
71
2
72
6
73
3
74
0
42
0.000000001
43
0.0000000001
44
0.0000000001
40
0
40
0
40
0
40
1
40
1
40
1
10
31.591763040035129
20
-37.660404682159616
30
0
10
31.591763040035129
20
-37.005779981613351
30
0
10
31.305636009185672
20
-36.702311873436166
30
0
0
SPLINE
5
141
100
AcDbEntity
8
0
100
AcDbSpline
70
0
71
2
72
6
73
3
74
0
42
0.000000001
43
0.0000000001
44
0.0000000001
40
0
40
0
40
0
40
1
40
1
40
1
10
31.305636009185672
20
-36.702311873436166
30
0
10
31.019508680312992
20
-36.398843765258981
30
0
10
30.451589664428592
20
-36.398843765258981
30
0
0
LINE
5
142
100
AcDbEntity
8
0
100
AcDbLine
10
30.451589664428592
20
-36.398843765258981
30
0
11
30.273844143360019
21
-36.398843765258981
31
0
0
SPLINE
5
143
100
AcDbEntity
8
0
100
AcDbSpline
70
0
71
2
72
6
73
3
74
0
42
0.000000001
43
0.0000000001
44
0.0000000001
40
0
40
0
40
0
40
1
40
1
40
1
10
35.510838767497901
20
-37.764450550079538
30
0
10
36.03974058291233
20
-37.764450550079538
30
0
10
36.494943043201332
20
-38.037572145462228
30
0
0
SPLINE
5
144
100
AcDbEntity
8
0
100
AcDbSpline
70
0
71
2
72
6
73
3
74
0
42
0.000000001
43
0.0000000001
44
0.0000000001
40
0
40
0
40
0
40
1
40
1
40
1
10
36.494943043201332
20
-38.037572145462228
30
0
10
36.950144907443885
20
-38.310693740844918
30
0
10
37.186416527240638
20
-38.813584089279367
30
0
0
SPLINE
5
145
100
AcDbEntity
8
0
100
AcDbSpline
70
0
71
2
72
6
73
3
74
0
42
0.000000001
43
0.0000000001
44
0.0000000001
40
0
40
0
40
0
40
1
40
1
40
1
10
37.186416527240638
20
-38.813584089279367
30
0
10
37.422688147037391
20
-39.316473245620919
30
0
10
37.422688147037391
20
-39.914739370346261
30
0
0
SPLINE
5
146
100
AcDbEntity
8
0
100
AcDbSpline
70
0
71
2
72
6
73
3
74
0
42
0.000000001
43
0.0000000001
44
0.0000000001
40
0
40
0
40
0
40
1
40
1
40
1
10
37.422688147037391
20
-39.914739370346261
30
0
10
37.422688147037384
20
-40.777456998825265
30
0
10
36.984827658145782
20
-41.358381748199655
30
0
0
SPLINE
5
147
100
AcDbEntity
8
0
100
AcDbSpline
70
0
71
2
72
6
73
3
74
0
42
0.000000001
43
0.0000000001
44
0.0000000001
40
0
40
0
40
0
40
1
40
1
40
1
10
36.984827658145782
20
-41.358381748199655
30
0
10
36.455925842731354
20
-42.060693740844918
30
0
10
35.523844500987884
20
-42.060693740844918
30
0
0
SPLINE
5
148
100
AcDbEntity
8
0
100
AcDbSpline
70
0
71
2
72
6
73
3
74
0
42
0.000000001
43
0.0000000001
44
0.0000000001
40
0
40
0
40
0
40
1
40
1
40
1
10
35.523844500987884
20
-42.060693740844918
30
0
10
34.609104534595367
20
-42.060693740844918
30
0
10
34.114884873836395
20
-41.419074773788644
30
0
0
SPLINE
5
149
100
AcDbEntity
8
0
100
AcDbSpline
70
0
71
2
72
6
73
3
74
0
42
0.000000001
43
0.0000000001
44
0.0000000001
40
0
40
0
40
0
40
1
40
1
40
1
10
34.114884873836395
20
-41.419074773788644
30
0
10
33.620665213077423
20
-40.777456998825265
30
0
10
33.62066521307743
20
-39.932080745697213
30
0
0
SPLINE
5
150
100
AcDbEntity
8
0
100
AcDbSpline
70
0
71
2
72
6
73
3
74
0
42
0.000000001
43
0.0000000001
44
0.0000000001
40
0
40
0
40
0
40
1
40
1
40
1
10
33.62066521307743
20
-39.932080745697213
30
0
10
33.62066521307743
20
-39.060693025589181
30
0
10
34.125722786395912
20
-38.412572383880807
30
0
0
SPLINE
5
151
100
AcDbEntity
8
0
100
AcDbSpline
70
0
71
2
72
6
73
3
74
0
42
0.000000001
43
0.0000000001
44
0.0000000001
40
0
40
0
40
0
40
1
40
1
40
1
10
34.125722786395912
20
-38.412572383880807
30
0
10
34.630780955760841
20
-37.764450550079538
30
0
10
35.510838767497901
20
-37.764450550079538
30
0
0
SPLINE
5
152
100
AcDbEntity
8
0
100
AcDbSpline
70
0
71
2
72
6
73
3
74
0
42
0.000000001
43
0.0000000001
44
0.0000000001
40
0
40
0
40
0
40
1
40
1
40
1
10
35.528179546802406
20
-38.072254896164132
30
0
10
35.307081481426124
20
-38.072254896164132
30
0
10
35.148844262569312
20
-38.239162206649972
30
0
0
SPLINE
5
153
100
AcDbEntity
8
0
100
AcDbSpline
70
0
71
2
72
6
73
3
74
0
42
0.000000001
43
0.0000000001
44
0.0000000001
40
0
40
0
40
0
40
1
40
1
40
1
10
35.148844262569312
20
-38.239162206649972
30
0
10
34.990607639758949
20
-38.406069517135812
30
0
10
34.940751930683021
20
-38.898121356964303
30
0
0
SPLINE
5
154
100
AcDbEntity
8
0
100
AcDbSpline
70
0
71
2
72
6
73
3
74
0
42
0.000000001
43
0.0000000001
44
0.0000000001
40
0
40
0
40
0
40
1
40
1
40
1
10
34.940751930683021
20
-38.898121356964303
30
0
10
34.890896221607093
20
-39.390173196792794
30
0
10
34.890896221607093
20
-40.265896558761789
30
0
0
SPLINE
5
155
100
AcDbEntity
8
0
100
AcDbSpline
70
0
71
2
72
6
73
3
74
0
42
0.000000001
43
0.0000000001
44
0.0000000001
40
0
40
0
40
0
40
1
40
1
40
1
10
34.890896221607093
20
-40.265896558761789
30
0
10
34.890896221607086
20
-40.729768514633371
30
0
10
34.951590439288971
20
-41.132948637008859
30
0
0
SPLINE
5
156
100
AcDbEntity
8
0
100
AcDbSpline
70
0
71
2
72
6
73
3
74
0
42
0.000000001
43
0.0000000001
44
0.0000000001
40
0
40
0
40
0
40
1
40
1
40
1
10
34.951590439288971
20
-41.132948637008859
30
0
10
34.99927773138797
20
-41.440751791000558
30
0
10
35.155347725360748
20
-41.601156234741403
30
0
0
SPLINE
5
157
100
AcDbEntity
8
0
100
AcDbSpline
70
0
71
2
72
6
73
3
74
0
42
0.000000001
43
0.0000000001
44
0.0000000001
40
0
40
0
40
0
40
1
40
1
40
1
10
35.155347725360748
20
-41.601156234741403
30
0
10
35.311416527240631
20
-41.761560678482248
30
0
10
35.510838767497894
20
-41.761560678482248
30
0
0
SPLINE
5
158
100
AcDbEntity
8
0
100
AcDbSpline
70
0
71
2
72
6
73
3
74
0
42
0.000000001
43
0.0000000001
44
0.0000000001
40
0
40
0
40
0
40
1
40
1
40
1
10
35.510838767497894
20
-41.761560678482248
30
0
10
35.705925365894196
20
-41.761560678482248
30
0
10
35.835983296840546
20
-41.653179168701364
30
0
0
SPLINE
5
159
100
AcDbEntity
8
0
100
AcDbSpline
70
0
71
2
72
6
73
3
74
0
42
0.000000001
43
0.0000000001
44
0.0000000001
40
0
40
0
40
0
40
1
40
1
40
1
10
35.835983296840546
20
-41.653179168701364
30
0
10
36.005058428256866
20
-41.505780458450509
30
0
10
36.061417004077789
20
-41.241330146789743
30
0
0
SPLINE
5
160
100
AcDbEntity
8
0
100
AcDbSpline
70
0
71
2
72
6
73
3
74
0
42
0.000000001
43
0.0000000001
44
0.0000000001
40
0
40
0
40
0
40
1
40
1
40
1
10
36.061417004077789
20
-41.241330146789743
30
0
10
36.148122092693207
20
-40.829479932785226
30
0
10
36.148122092693214
20
-39.57658910751362
30
0
0
SPLINE
5
161
100
AcDbEntity
8
0
100
AcDbSpline
70
0
71
2
72
6
73
3
74
0
42
0.000000001
43
0.0000000001
44
0.0000000001
40
0
40
0
40
0
40
1
40
1
40
1
10
36.148122092693214
20
-39.57658910751362
30
0
10
36.148122092693214
20
-38.839595556259347
30
0
10
36.065752049892311
20
-38.564306735992623
30
0
0
SPLINE
5
162
100
AcDbEntity
8
0
100
AcDbSpline
70
0
71
2
72
6
73
3
74
0
42
0.000000001
43
0.0000000001
44
0.0000000001
40
0
40
0
40
0
40
1
40
1
40
1
10
36.065752049892311
20
-38.564306735992623
30
0
10
35.983382007091407
20
-38.2890179157259
30
0
10
35.822977563350562
20
-38.163295030594064
30
0
0
SPLINE
5
163
100
AcDbEntity
8
0
100
AcDbSpline
70
0
71
2
72
6
73
3
74
0
42
0.000000001
43
0.0000000001
44
0.0000000001
40
0
40
0
40
0
40
1
40
1
40
1
10
35.822977563350562
20
-38.163295030594064
30
0
10
35.710261007755165
20
-38.072254896164132
30
0
10
35.528179546802406
20
-38.072254896164132
30
0
0
LINE
5
164
100
AcDbEntity
8
0
100
AcDbLine
10
42.057081600635406
20
-42.060693740844918
30
0
11
40.947255035846588
21
-39.086704492569162
31
0
0
LINE
5
165
100
AcDbEntity
8
0
100
AcDbLine
10
40.947255035846588
20
-39.086704492569162
30
0
11
39.859105488269684
21
-42.060693740844918
31
0
0
LINE
5
166
100
AcDbEntity
8
0
100
AcDbLine
10
39.859105488269684
20
-42.060693740844918
30
0
11
39.633671184985992
21
-42.060693740844918
31
0
0
LINE
5
167
100
AcDbEntity
8
0
100
AcDbLine
10
39.633671184985992
20
-42.060693740844918
30
0
11
38.554191729038116
21
-39.121387243271066
31
0
0
SPLINE
5
168
100
AcDbEntity
8
0
100
AcDbSpline
70
0
71
2
72
6
73
3
74
0
42
0.000000001
43
0.0000000001
44
0.0000000001
40
0
40
0
40
0
40
1
40
1
40
1
10
38.554191729038124
20
-39.121387243271066
30
0
10
38.311417242496375
20
-38.449421167373849
30
0
10
38.142341515033607
20
-38.245665073394967
30
0
0
SPLINE
5
169
100
AcDbEntity
8
0
100
AcDbSpline
70
0
71
2
72
6
73
3
74
0
42
0.000000001
43
0.0000000001
44
0.0000000001
40
0
40
0
40
0
40
1
40
1
40
1
10
38.142341515033607
20
-38.245665073394967
30
0
10
38.033960005252723
20
-38.106936454773141
30
0
10
37.812862535922889
20
-38.046243429184152
30
0
0
LINE
5
170
100
AcDbEntity
8
0
100
AcDbLine
10
37.812862535922889
20
-38.046243429184152
30
0
11
37.812862535922889
21
-37.885837793350412
31
0
0
LINE
5
171
100
AcDbEntity
8
0
100
AcDbLine
10
37.812862535922889
20
-37.885837793350412
30
0
11
39.859105488269691
21
-37.885837793350412
31
0
0
LINE
5
172
100
AcDbEntity
8
0
100
AcDbLine
10
39.859105488269691
20
-37.885837793350412
30
0
11
39.859105488269691
21
-38.046243429184152
31
0
0
SPLINE
5
173
100
AcDbEntity
8
0
100
AcDbSpline
70
0
71
2
72
6
73
3
74
0
42
0.000000001
43
0.0000000001
44
0.0000000001
40
0
40
0
40
0
40
1
40
1
40
1
10
39.859105488269691
20
-38.046243429184152
30
0
10
39.651012560336952
20
-38.046243429184152
30
0
10
39.57297815939701
20
-38.106936454773141
30
0
0
SPLINE
5
174
100
AcDbEntity
8
0
100
AcDbSpline
70
0
71
2
72
6
73
3
74
0
42
0.000000001
43
0.0000000001
44
0.0000000001
40
0
40
0
40
0
40
1
40
1
40
1
10
39.57297815939701
20
-38.106936454773141
30
0
10
39.494942566364173
20
-38.16762948036213
30
0
10
39.494942566364173
20
-38.245665073394967
30
0
0
SPLINE
5
175
100
AcDbEntity
8
0
100
AcDbSpline
70
0
71
2
72
6
73
3
74
0
42
0.000000001
43
0.0000000001
44
0.0000000001
40
0
40
0
40
0
40
1
40
1
40
1
10
39.494942566364173
20
-38.245665073394967
30
0
10
39.494942566364173
20
-38.319363832473947
30
0
10
39.633671184986
20
-38.687861204147531
30
0
0
LINE
5
176
100
AcDbEntity
8
0
100
AcDbLine
10
39.633671184986
20
-38.687861204147531
30
0
11
40.227601667850372
21
-40.270231008529855
31
0
0
LINE
5
177
100
AcDbEntity
8
0
100
AcDbLine
10
40.227601667850372
20
-40.270231008529855
30
0
11
40.799856325595734
21
-38.687861204147531
31
0
0
LINE
5
178
100
AcDbEntity
8
0
100
AcDbLine
10
40.799856325595734
20
-38.687861204147531
30
0
11
40.756503483264801
21
-38.583815336227609
31
0
0
SPLINE
5
179
100
AcDbEntity
8
0
100
AcDbSpline
70
0
71
2
72
6
73
3
74
0
42
0.000000001
43
0.0000000001
44
0.0000000001
40
0
40
0
40
0
40
1
40
1
40
1
10
40.756503483264801
20
-38.583815336227609
30
0
10
40.626446148364899
20
-38.258670806884957
30
0
10
40.528903147189972
20
-38.169797897339059
30
0
0
SPLINE
5
180
100
AcDbEntity
8
0
100
AcDbSpline
70
0
71
2
72
6
73
3
74
0
42
0.000000001
43
0.0000000001
44
0.0000000001
40
0
40
0
40
0
40
1
40
1
40
1
10
40.528903147189972
20
-38.169797897339059
30
0
10
40.43135895392215
20
-38.080924987793161
30
0
10
40.227601667850372
20
-38.046243429184152
30
0
0
LINE
5
181
100
AcDbEntity
8
0
100
AcDbLine
10
40.227601667850372
20
-38.046243429184152
30
0
11
40.227601667850372
21
-37.885837793350412
31
0
0
LINE
5
182
100
AcDbEntity
8
0
100
AcDbLine
10
40.227601667850372
20
-37.885837793350412
30
0
11
42.304191729038116
21
-37.885837793350412
31
0
0
LINE
5
183
100
AcDbEntity
8
0
100
AcDbLine
10
42.304191729038116
20
-37.885837793350412
30
0
11
42.304191729038116
21
-38.046243429184152
31
0
0
SPLINE
5
184
100
AcDbEntity
8
0
100
AcDbSpline
70
0
71
2
72
6
73
3
74
0
42
0.000000001
43
0.0000000001
44
0.0000000001
40
0
40
0
40
0
40
1
40
1
40
1
10
42.304191729038116
20
-38.046243429184152
30
0
10
42.061417242496368
20
-38.059249162674142
30
0
10
41.996388575046417
20
-38.113439321518136
30
0
0
SPLINE
5
185
100
AcDbEntity
8
0
100
AcDbSpline
70
0
71
2
72
6
73
3
74
0
42
0.000000001
43
0.0000000001
44
0.0000000001
40
0
40
0
40
0
40
1
40
1
40
1
10
41.996388575046417
20
-38.113439321518136
30
0
10
41.931359907596466
20
-38.16762948036213
30
0
10
41.931359907596466
20
-38.267340898513986
30
0
0
SPLINE
5
186
100
AcDbEntity
8
0
100
AcDbSpline
70
0
71
2
72
6
73
3
74
0
42
0.000000001
43
0.0000000001
44
0.0000000001
40
0
40
0
40
0
40
1
40
1
40
1
10
41.931359907596466
20
-38.267340898513986
30
0
10
41.931359907596466
20
-38.362716674804879
30
0
10
42.057081600635406
20
-38.687861204147531
30
0
0
LINE
5
187
100
AcDbEntity
8
0
100
AcDbLine
10
42.057081600635406
20
-38.687861204147531
30
0
11
42.629336258380768
21
-40.270231008529855
31
0
0
LINE
5
188
100
AcDbEntity
8
0
100
AcDbLine
10
42.629336258380768
20
-40.270231008529855
30
0
11
43.149567982166168
21
-38.813584089279367
31
0
0
SPLINE
5
189
100
AcDbEntity
8
0
100
AcDbSpline
70
0
71
2
72
6
73
3
74
0
42
0.000000001
43
0.0000000001
44
0.0000000001
40
0
40
0
40
0
40
1
40
1
40
1
10
43.149567982166168
20
-38.813584089279367
30
0
10
43.262285133808014
20
-38.501445293426706
30
0
10
43.262285133808014
20
-38.38872814178486
30
0
0
SPLINE
5
190
100
AcDbEntity
8
0
100
AcDbSpline
70
0
71
2
72
6
73
3
74
0
42
0.000000001
43
0.0000000001
44
0.0000000001
40
0
40
0
40
0
40
1
40
1
40
1
10
43.262285133808014
20
-38.38872814178486
30
0
10
43.262285133808014
20
-38.219652414322091
30
0
10
43.179913898914215
20
-38.14161801338215
30
0
0
SPLINE
5
191
100
AcDbEntity
8
0
100
AcDbSpline
70
0
71
2
72
6
73
3
74
0
42
0.000000001
43
0.0000000001
44
0.0000000001
40
0
40
0
40
0
40
1
40
1
40
1
10
43.179913898914215
20
-38.14161801338215
30
0
10
43.097545048206207
20
-38.063583612442208
30
0
10
42.859105011432526
20
-38.046243429184152
30
0
0
LINE
5
192
100
AcDbEntity
8
0
100
AcDbLine
10
42.859105011432526
20
-38.046243429184152
30
0
11
42.859105011432526
21
-37.885837793350412
31
0
0
LINE
5
193
100
AcDbEntity
8
0
100
AcDbLine
10
42.859105011432526
20
-37.885837793350412
30
0
11
44.059971710651276
21
-37.885837793350412
31
0
0
LINE
5
194
100
AcDbEntity
8
0
100
AcDbLine
10
44.059971710651276
20
-37.885837793350412
30
0
11
44.059971710651276
21
-38.046243429184152
31
0
0
SPLINE
5
195
100
AcDbEntity
8
0
100
AcDbSpline
70
0
71
2
72
6
73
3
74
0
42
0.000000001
43
0.0000000001
44
0.0000000001
40
0
40
0
40
0
40
1
40
1
40
1
10
44.059971710651276
20
-38.046243429184152
30
0
10
43.860551258533356
20
-38.072254896164132
30
0
10
43.743498465030548
20
-38.187139272690011
30
0
0
SPLINE
5
196
100
AcDbEntity
8
0
100
AcDbSpline
70
0
71
2
72
6
73
3
74
0
42
0.000000001
43
0.0000000001
44
0.0000000001
40
0
40
0
40
0
40
1
40
1
40
1
10
43.743498465030548
20
-38.187139272690011
30
0
10
43.62644567152774
20
-38.30202364921589
30
0
10
43.440030952899811
20
-38.839595556259347
30
0
0
LINE
5
197
100
AcDbEntity
8
0
100
AcDbLine
10
43.440030952899811
20
-38.839595556259347
30
0
11
42.304191729038116
21
-42.060693740844918
31
0
0
LINE
5
198
100
AcDbEntity
8
0
100
AcDbLine
10
42.304191729038116
20
-42.060693740844918
30
0
11
42.057081600635406
21
-42.060693740844918
31
0
0
LINE
5
199
100
AcDbEntity
8
0
100
AcDbLine
10
47.883672853916046
20
-39.767340660095407
30
0
11
45.659682890384552
21
-39.767340660095407
31
0
0
SPLINE
5
200
100
AcDbEntity
8
0
100
AcDbSpline
70
0
71
2
72
6
73
3
74
0
42
0.000000001
43
0.0000000001
44
0.0000000001
40
0
40
0
40
0
40
1
40
1
40
1
10
45.659682890384552
20
-39.767340660095407
30
0
10
45.698700090854523
20
-40.573699712753488
30
0
10
46.088873287647125
20
-41.041907310486032
30
0
0
SPLINE
5
201
100
AcDbEntity
8
0
100
AcDbSpline
70
0
71
2
72
6
73
3
74
0
42
0.000000001
43
0.0000000001
44
0.0000000001
40
0
40
0
40
0
40
1
40
1
40
1
10
46.088873287647125
20
-41.041907310486032
30
0
10
46.388006350009796
20
-41.401734590530587
30
0
10
46.808526655643341
20
-41.401734590530587
30
0
0
SPLINE
5
202
100
AcDbEntity
8
0
100
AcDbSpline
70
0
71
2
72
6
73
3
74
0
42
0.000000001
43
0.0000000001
44
0.0000000001
40
0
40
0
40
0
40
1
40
1
40
1
10
46.808526655643341
20
-41.401734590530587
30
0
10
47.068642517536041
20
-41.401734590530587
30
0
10
47.281069895236847
20
-41.256503105163766
30
0
0
SPLINE
5
203
100
AcDbEntity
8
0
100
AcDbSpline
70
0
71
2
72
6
73
3
74
0
42
0.000000001
43
0.0000000001
44
0.0000000001
40
0
40
0
40
0
40
1
40
1
40
1
10
47.281069895236847
20
-41.256503105163766
30
0
10
47.493497272937653
20
-41.111271619796945
30
0
10
47.736272951572296
20
-40.734104156494332
30
0
0
LINE
5
204
100
AcDbEntity
8
0
100
AcDbLine
10
47.736272951572296
20
-40.734104156494332
30
0
11
47.883672853916046
21
-40.829479932785226
31
0
0
SPLINE
5
205
100
AcDbEntity
8
0
100
AcDbSpline
70
0
71
2
72
6
73
3
74
0
42
0.000000001
43
0.0000000001
44
0.0000000001
40
0
40
0
40
0
40
1
40
1
40
1
10
47.883672853916046
20
-40.829479932785226
30
0
10
47.554191490619537
20
-41.501444816589547
30
0
10
47.155348202197906
20
-41.781069278717233
30
0
0
SPLINE
5
206
100
AcDbEntity
8
0
100
AcDbSpline
70
0
71
2
72
6
73
3
74
0
42
0.000000001
43
0.0000000001
44
0.0000000001
40
0
40
0
40
0
40
1
40
1
40
1
10
47.155348202197906
20
-41.781069278717233
30
0
10
46.75650372168338
20
-42.060693740844918
30
0
10
46.231937548129913
20
-42.060693740844918
30
0
0
SPLINE
5
207
100
AcDbEntity
8
0
100
AcDbSpline
70
0
71
2
72
6
73
3
74
0
42
0.000000001
43
0.0000000001
44
0.0000000001
40
0
40
0
40
0
40
1
40
1
40
1
10
46.231937548129913
20
-42.060693740844918
30
0
10
45.330202719180939
20
-42.060693740844918
30
0
10
44.866329571216461
20
-41.367051839828683
30
0
0
SPLINE
5
208
100
AcDbEntity
8
0
100
AcDbSpline
70
0
71
2
72
6
73
3
74
0
42
0.000000001
43
0.0000000001
44
0.0000000001
40
0
40
0
40
0
40
1
40
1
40
1
10
44.866329571216461
20
-41.367051839828683
30
0
10
44.493497749774811
20
-40.807804107666207
30
0
10
44.493497749774811
20
-39.979769229889108
30
0
0
SPLINE
5
209
100
AcDbEntity
8
0
100
AcDbSpline
70
0
71
2
72
6
73
3
74
0
42
0.000000001
43
0.0000000001
44
0.0000000001
40
0
40
0
40
0
40
1
40
1
40
1
10
44.493497749774811
20
-39.979769229889108
30
0
10
44.493497749774811
20
-38.965318441391183
30
0
10
45.041908165424225
20
-38.364883899688913
30
0
0
SPLINE
5
210
100
AcDbEntity
8
0
100
AcDbSpline
70
0
71
2
72
6
73
3
74
0
42
0.000000001
43
0.0000000001
44
0.0000000001
40
0
40
0
40
0
40
1
40
1
40
1
10
45.041908165424225
20
-38.364883899688913
30
0
10
45.590318581073639
20
-37.764450550079538
30
0
10
46.327313324420807
20
-37.764450550079538
30
0
0
SPLINE
5
211
100
AcDbEntity
8
0
100
AcDbSpline
70
0
71
2
72
6
73
3
74
0
42
0.000000001
43
0.0000000001
44
0.0000000001
40
0
40
0
40
0
40
1
40
1
40
1
10
46.327313324420807
20
-37.764450550079538
30
0
10
46.942919632404205
20
-37.764450550079538
30
0
10
47.395954271762726
20
-38.269508123398019
30
0
0
SPLINE
5
212
100
AcDbEntity
8
0
100
AcDbSpline
70
0
71
2
72
6
73
3
74
0
42
0.000000001
43
0.0000000001
44
0.0000000001
40
0
40
0
40
0
40
1
40
1
40
1
10
47.395954271762726
20
-38.269508123398019
30
0
10
47.848987719028351
20
-38.774566888809396
30
0
10
47.883672853916046
20
-39.767340660095407
30
0
0
SPLINE
5
213
100
AcDbEntity
8
0
100
AcDbSpline
70
0
71
2
72
6
73
3
74
0
42
0.000000001
43
0.0000000001
44
0.0000000001
40
0
40
0
40
0
40
1
40
1
40
1
10
46.817196747272369
20
-39.47687888145466
30
0
10
46.817196747272369
20
-38.778901338577462
30
0
10
46.741329571216461
20
-38.518786668777658
30
0
0
SPLINE
5
214
100
AcDbEntity
8
0
100
AcDbSpline
70
0
71
2
72
6
73
3
74
0
42
0.000000001
43
0.0000000001
44
0.0000000001
40
0
40
0
40
0
40
1
40
1
40
1
10
46.741329571216461
20
-38.518786668777658
30
0
10
46.665463587253448
20
-38.258670806884957
30
0
10
46.505059143512604
20
-38.124277830124093
30
0
0
SPLINE
5
215
100
AcDbEntity
8
0
100
AcDbSpline
70
0
71
2
72
6
73
3
74
0
42
0.000000001
43
0.0000000001
44
0.0000000001
40
0
40
0
40
0
40
1
40
1
40
1
10
46.505059143512604
20
-38.124277830124093
30
0
10
46.414017816989777
20
-38.046243429184152
30
0
10
46.26228346487796
20
-38.046243429184152
30
0
0
SPLINE
5
216
100
AcDbEntity
8
0
100
AcDbSpline
70
0
71
2
72
6
73
3
74
0
42
0.000000001
43
0.0000000001
44
0.0000000001
40
0
40
0
40
0
40
1
40
1
40
1
10
46.26228346487796
20
-38.046243429184152
30
0
10
46.036850353687164
20
-38.046243429184152
30
0
10
45.893787285297272
20
-38.267340898513986
30
0
0
SPLINE
5
217
100
AcDbEntity
8
0
100
AcDbSpline
70
0
71
2
72
6
73
3
74
0
42
0.000000001
43
0.0000000001
44
0.0000000001
40
0
40
0
40
0
40
1
40
1
40
1
10
45.893787285297272
20
-38.267340898513986
30
0
10
45.638007065265533
20
-38.653178453445626
30
0
10
45.638007065265533
20
-39.325144529342843
30
0
0
LINE
5
218
100
AcDbEntity
8
0
100
AcDbLine
10
45.638007065265533
20
-39.325144529342843
30
0
11
45.638007065265533
21
-39.47687888145466
31
0
0
LINE
5
219
100
AcDbEntity
8
0
100
AcDbLine
10
45.638007065265533
20
-39.47687888145466
30
0
11
46.817196747272369
21
-39.47687888145466
31
0
0
LINE
5
220
100
AcDbEntity
8
0
100
AcDbLine
10
50.072975298374054
20
-37.885837793350412
30
0
11
50.072975298374054
21
-38.804912805557443
31
0
0
SPLINE
5
221
100
AcDbEntity
8
0
100
AcDbSpline
70
0
71
2
72
6
73
3
74
0
42
0.000000001
43
0.0000000001
44
0.0000000001
40
0
40
0
40
0
40
1
40
1
40
1
10
50.072975298374054
20
-38.804912805557443
30
0
10
50.476155420749542
20
-38.176300764084054
30
0
10
50.779624124973175
20
-37.970376253128244
30
0
0
SPLINE
5
222
100
AcDbEntity
8
0
100
AcDbSpline
70
0
71
2
72
6
73
3
74
0
42
0.000000001
43
0.0000000001
44
0.0000000001
40
0
40
0
40
0
40
1
40
1
40
1
10
50.779624124973175
20
-37.970376253128244
30
0
10
51.083092829196808
20
-37.764450550079538
30
0
10
51.364884516208527
20
-37.764450550079538
30
0
0
SPLINE
5
223
100
AcDbEntity
8
0
100
AcDbSpline
70
0
71
2
72
6
73
3
74
0
42
0.000000001
43
0.0000000001
44
0.0000000001
40
0
40
0
40
0
40
1
40
1
40
1
10
51.364884516208527
20
-37.764450550079538
30
0
10
51.607656618564484
20
-37.764450550079538
30
0
10
51.752891680209991
20
-37.914017677307321
30
0
0
SPLINE
5
224
100
AcDbEntity
8
0
100
AcDbSpline
70
0
71
2
72
6
73
3
74
0
42
0.000000001
43
0.0000000001
44
0.0000000001
40
0
40
0
40
0
40
1
40
1
40
1
10
51.752891680209991
20
-37.914017677307321
30
0
10
51.898121973483917
20
-38.063583612442208
30
0
10
51.898121973483917
20
-38.336705207824899
30
0
0
SPLINE
5
225
100
AcDbEntity
8
0
100
AcDbSpline
70
0
71
2
72
6
73
3
74
0
42
0.000000001
43
0.0000000001
44
0.0000000001
40
0
40
0
40
0
40
1
40
1
40
1
10
51.898121973483917
20
-38.336705207824899
30
0
10
51.898121973483917
20
-38.627166986465646
30
0
10
51.757226129978058
20
-38.787572622299386
30
0
0
SPLINE
5
226
100
AcDbEntity
8
0
100
AcDbSpline
70
0
71
2
72
6
73
3
74
0
42
0.000000001
43
0.0000000001
44
0.0000000001
40
0
40
0
40
0
40
1
40
1
40
1
10
51.757226129978058
20
-38.787572622299386
30
0
10
51.616330286472198
20
-38.947977066040231
30
0
10
51.416907450168488
20
-38.947977066040231
30
0
0
SPLINE
5
227
100
AcDbEntity
8
0
100
AcDbSpline
70
0
71
2
72
6
73
3
74
0
42
0.000000001
43
0.0000000001
44
0.0000000001
40
0
40
0
40
0
40
1
40
1
40
1
10
51.416907450168488
20
-38.947977066040231
30
0
10
51.18713869711673
20
-38.947977066040231
30
0
10
51.018061777561066
20
-38.800578355789376
30
0
0
SPLINE
5
228
100
AcDbEntity
8
0
100
AcDbSpline
70
0
71
2
72
6
73
3
74
0
42
0.000000001
43
0.0000000001
44
0.0000000001
40
0
40
0
40
0
40
1
40
1
40
1
10
51.018061777561066
20
-38.800578355789376
30
0
10
50.848989626376984
20
-38.653178453445626
30
0
10
50.818638941257355
20
-38.63583827018757
30
0
0
SPLINE
5
229
100
AcDbEntity
8
0
100
AcDbSpline
70
0
71
2
72
6
73
3
74
0
42
0.000000001
43
0.0000000001
44
0.0000000001
40
0
40
0
40
0
40
1
40
1
40
1
10
50.818638941257355
20
-38.63583827018757
30
0
10
50.775289675205109
20
-38.609826803207589
30
0
10
50.718927523105499
20
-38.609826803207589
30
0
0
SPLINE
5
230
100
AcDbEntity
8
0
100
AcDbSpline
70
0
71
2
72
6
73
3
74
0
42
0.000000001
43
0.0000000001
44
0.0000000001
40
0
40
0
40
0
40
1
40
1
40
1
10
50.718927523105499
20
-38.609826803207589
30
0
10
50.593209406345245
20
-38.609826803207589
30
0
10
50.480489870517609
20
-38.705202579498483
30
0
0
SPLINE
5
231
100
AcDbEntity
8
0
100
AcDbSpline
70
0
71
2
72
6
73
3
74
0
42
0.000000001
43
0.0000000001
44
0.0000000001
40
0
40
0
40
0
40
1
40
1
40
1
10
50.480489870517609
20
-38.705202579498483
30
0
10
50.302744051425812
20
-38.852601289749337
30
0
10
50.211706301181671
20
-39.125722885132028
30
0
0
SPLINE
5
232
100
AcDbEntity
8
0
100
AcDbSpline
70
0
71
2
72
6
73
3
74
0
42
0.000000001
43
0.0000000001
44
0.0000000001
40
0
40
0
40
0
40
1
40
1
40
1
10
50.211706301181671
20
-39.125722885132028
30
0
10
50.072975298374054
20
-39.546243190765573
30
0
10
50.072975298374054
20
-40.053467988968087
30
0
0
LINE
5
233
100
AcDbEntity
8
0
100
AcDbLine
10
50.072975298374054
20
-40.053467988968087
30
0
11
50.072975298374054
21
-40.985548734665109
31
0
0
LINE
5
234
100
AcDbEntity
8
0
100
AcDbLine
10
50.072975298374054
20
-40.985548734665109
30
0
11
50.07730974814212
21
-41.228323221206857
31
0
0
SPLINE
5
235
100
AcDbEntity
8
0
100
AcDbSpline
70
0
71
2
72
6
73
3
74
0
42
0.000000001
43
0.0000000001
44
0.0000000001
40
0
40
0
40
0
40
1
40
1
40
1
10
50.07730974814212
20
-41.228323221206857
30
0
10
50.07730974814212
20
-41.475433349609567
30
0
10
50.107660433261749
20
-41.54479765892048
30
0
0
SPLINE
5
236
100
AcDbEntity
8
0
100
AcDbSpline
70
0
71
2
72
6
73
3
74
0
42
0.000000001
43
0.0000000001
44
0.0000000001
40
0
40
0
40
0
40
1
40
1
40
1
10
50.107660433261749
20
-41.54479765892048
30
0
10
50.15968336722171
20
-41.661849260330392
30
0
10
50.261559626071808
20
-41.716040611267282
30
0
0
SPLINE
5
237
100
AcDbEntity
8
0
100
AcDbSpline
70
0
71
2
72
6
73
3
74
0
42
0.000000001
43
0.0000000001
44
0.0000000001
40
0
40
0
40
0
40
1
40
1
40
1
10
50.261559626071808
20
-41.716040611267282
30
0
10
50.363440653293488
20
-41.770230770111276
30
0
10
50.606212755649445
20
-41.783237695694162
30
0
0
LINE
5
238
100
AcDbEntity
8
0
100
AcDbLine
10
50.606212755649445
20
-41.783237695694162
30
0
11
50.606212755649445
21
-41.939306497574044
31
0
0
LINE
5
239
100
AcDbEntity
8
0
100
AcDbLine
10
50.606212755649445
20
-41.939306497574044
30
0
11
48.416905542819855
21
-41.939306497574044
31
0
0
LINE
5
240
100
AcDbEntity
8
0
100
AcDbLine
10
48.416905542819855
20
-41.939306497574044
30
0
11
48.416905542819855
21
-41.783237695694162
31
0
0
SPLINE
5
241
100
AcDbEntity
8
0
100
AcDbSpline
70
0
71
2
72
6
73
3
74
0
42
0.000000001
43
0.0000000001
44
0.0000000001
40
0
40
0
40
0
40
1
40
1
40
1
10
48.416905542819855
20
-41.783237695694162
30
0
10
48.681359430759308
20
-41.761560678482248
30
0
10
48.774566790073273
20
-41.63800621032734
30
0
0
SPLINE
5
242
100
AcDbEntity
8
0
100
AcDbSpline
70
0
71
2
72
6
73
3
74
0
42
0.000000001
43
0.0000000001
44
0.0000000001
40
0
40
0
40
0
40
1
40
1
40
1
10
48.774566790073273
20
-41.63800621032734
30
0
10
48.867774149387238
20
-41.514450550079538
30
0
10
48.867774149387238
20
-40.985548734665109
30
0
0
LINE
5
243
100
AcDbEntity
8
0
100
AcDbLine
10
48.867774149387238
20
-40.985548734665109
30
0
11
48.867774149387238
21
-38.744219779968454
31
0
0
SPLINE
5
244
100
AcDbEntity
8
0
100
AcDbSpline
70
0
71
2
72
6
73
3
74
0
42
0.000000001
43
0.0000000001
44
0.0000000001
40
0
40
0
40
0
40
1
40
1
40
1
10
48.867774149387238
20
-38.744219779968454
30
0
10
48.867774149387238
20
-38.397398233413888
30
0
10
48.833093782871124
20
-38.30202364921589
30
0
0
SPLINE
5
245
100
AcDbEntity
8
0
100
AcDbSpline
70
0
71
2
72
6
73
3
74
0
42
0.000000001
43
0.0000000001
44
0.0000000001
40
0
40
0
40
0
40
1
40
1
40
1
10
48.833093782871124
20
-38.30202364921589
30
0
10
48.789739748447296
20
-38.180635213852121
30
0
10
48.707370897739288
20
-38.124277830124093
30
0
0
SPLINE
5
246
100
AcDbEntity
8
0
100
AcDbSpline
70
0
71
2
72
6
73
3
74
0
42
0.000000001
43
0.0000000001
44
0.0000000001
40
0
40
0
40
0
40
1
40
1
40
1
10
48.707370897739288
20
-38.124277830124093
30
0
10
48.624997278659698
20
-38.06791925430317
30
0
10
48.416905542819855
20
-38.046243429184152
30
0
0
LINE
5
247
100
AcDbEntity
8
0
100
AcDbLine
10
48.416905542819855
20
-38.046243429184152
30
0
11
48.416905542819855
21
-37.885837793350412
31
0
0
LINE
5
248
100
AcDbEntity
8
0
100
AcDbLine
10
48.416905542819855
20
-37.885837793350412
30
0
11
50.072975298374054
21
-37.885837793350412
31
0
0
ENDSEC
0
SECTION
2
OBJECTS
0
DICTIONARY
5
C
100
AcDbDictionary
3
ACAD_GROUP
350
D
3
ACAD_MLINESTYLE
350
17
0
DICTIONARY
5
D
100
AcDbDictionary
0
DICTIONARY
5
1A
330
C
100
AcDbDictionary
0
DICTIONARY
5
17
100
AcDbDictionary
0
ENDSEC
0
EOF
