0
SECTION
2
HEADER
9
$INSUNITS
70
4
9
$ACADVER
1
AC1014
9
$HANDSEED
5
FFFF
0
ENDSEC
0
SECTION
2
TABLES
0
TABLE
2
VPORT
5
8
100
AcDbSymbolTable
0
ENDTAB
0
TABLE
2
LTYPE
5
5
100
AcDbSymbolTable
0
LTYPE
5
14
100
AcDbSymbolTableRecord
100
AcDbLinetypeTableRecord
2
BYBLOCK
70
0
0
LTYPE
5
15
100
AcDbSymbolTableRecord
100
AcDbLinetypeTableRecord
2
BYLAYER
70
0
0
LTYPE
5
16
100
AcDbSymbolTableRecord
100
AcDbLinetypeTableRecord
2
DASHED
70
0
3
Dashed __ __ __ __ __ __ __ __ __ __ __ __ __ _
72
65
73
2
40
0.75
49
0.5
74
0
49
-0.25
74
0
0
ENDTAB
0
TABLE
2
LAYER
5
2
100
AcDbSymbolTable
70
2
0
LAYER
5
50
100
AcDbSymbolTableRecord
100
AcDbLayerTableRecord
2
0
70
0
62
7
6
CONTINUOUS
0
ENDTAB
0
TABLE
2
STYLE
5
3
100
AcDbSymbolTable
70
1
0
STYLE
5
11
100
AcDbSymbolTableRecord
100
AcDbTextStyleTableRecord
2
STANDARD
70
0
0
ENDTAB
0
TABLE
2
VIEW
5
6
100
AcDbSymbolTable
70
0
0
ENDTAB
0
TABLE
2
UCS
5
7
100
AcDbSymbolTable
70
0
0
ENDTAB
0
TABLE
2
APPID
5
9
100
AcDbSymbolTable
70
2
0
APPID
5
12
100
AcDbSymbolTableRecord
100
AcDbRegAppTableRecord
2
ACAD
70
0
0
ENDTAB
0
TABLE
2
DIMSTYLE
5
A
100
AcDbSymbolTable
70
1
0
ENDTAB
0
TABLE
2
BLOCK_RECORD
5
1
100
AcDbSymbolTable
70
1
0
BLOCK_RECORD
5
1F
100
AcDbSymbolTableRecord
100
AcDbBlockTableRecord
2
*MODEL_SPACE
0
BLOCK_RECORD
5
1B
100
AcDbSymbolTableRecord
100
AcDbBlockTableRecord
2
*PAPER_SPACE
0
ENDTAB
0
ENDSEC
0
SECTION
2
BLOCKS
0
BLOCK
5
20
100
AcDbEntity
100
AcDbBlockBegin
2
*MODEL_SPACE
0
ENDBLK
5
21
100
AcDbEntity
100
AcDbBlockEnd
0
BLOCK
5
1C
100
AcDbEntity
100
AcDbBlockBegin
2
*PAPER_SPACE
0
ENDBLK
5
1D
100
AcDbEntity
100
AcDbBlockEnd
0
ENDSEC
0
SECTION
2
ENTITIES
0
CIRCLE
5
100
100
AcDbEntity
8
0
100
AcDbCircle
10
-34.28999999999828
20
14.67000000000218
30
0
40
1.7500000000000029
210
1.1102230246251565e-16
220
-6.8422776578360209e-49
230
1
0
CIRCLE
5
101
100
AcDbEntity
8
0
100
AcDbCircle
10
-19.050439522420611
20
3.1132981479694828
30
0
40
1.5874999999999972
210
1.7027540394731442e-48
220
-1.0494031976152492e-80
230
1
0
CIRCLE
5
102
100
AcDbEntity
8
0
100
AcDbCircle
10
31.750000000000309
20
-12.110000000001675
30
0
40
1.5875000000000039
210
8.5137701973656835e-48
220
-7.8705239821143348e-79
230
1
0
CIRCLE
5
103
100
AcDbEntity
8
0
100
AcDbCircle
10
-34.290000000001719
20
-56.669999999997785
30
-8.8817841970012523e-15
40
1.749999999999998
210
1.5446411643792084e-48
220
1.2325951644078312e-32
230
1
0
ELLIPSE
5
104
100
AcDbEntity
8
0
100
AcDbEllipse
10
36.289999999999537
20
-26.207000000001909
30
0
11
-4.0412118096355693e-13
21
-7.5
31
0.0
40
0.39999999999999974
41
0
42
6.2831853071795862
0
CIRCLE
5
105
100
AcDbEntity
8
0
100
AcDbCircle
10
-20.320000000001318
20
-45.129999999998809
30
0
40
1.5874999999999995
210
1.1102230246251565e-16
220
0
230
1
0
CIRCLE
5
106
100
AcDbEntity
8
0
100
AcDbCircle
10
40.750000000001549
20
5.6699999999980388
30
0
40
1.749999999999998
210
9.2678469862752495e-48
220
1.2325951644078312e-32
230
1
0
CIRCLE
5
107
100
AcDbEntity
8
0
100
AcDbCircle
10
40.74999999999811
20
-47.670000000001892
30
0
40
1.749999999999998
210
9.2678469862752495e-48
220
1.2325951644078312e-32
230
1
0
CIRCLE
5
108
100
AcDbEntity
8
0
100
AcDbCircle
10
31.749999999998785
20
-40.050000000001646
30
0
40
1.5875000000000039
210
8.5137701973656835e-48
220
-7.8705239821143348e-79
230
1
0
CIRCLE
5
109
100
AcDbEntity
8
0
100
AcDbCircle
10
55.749999999999943
20
-53.499999999999979
30
-8.8817841970012523e-15
40
1.7499999999999982
210
-1.1102230246251568e-16
220
-0
230
1
0
CIRCLE
5
110
100
AcDbEntity
8
0
100
AcDbCircle
10
-55.750000000000071
20
-53.499999999999972
30
0
40
1.7499999999999982
210
-1.1102230246251568e-16
220
-0
230
1
0
CIRCLE
5
111
100
AcDbEntity
8
0
100
AcDbCircle
10
-55.750000000000057
20
11.500000000000005
30
0
40
1.7499999999999982
210
-1.1102230246251568e-16
220
-0
230
1
0
CIRCLE
5
112
100
AcDbEntity
8
0
100
AcDbCircle
10
55.74999999999995
20
11.499999999999993
30
0
40
1.7499999999999982
210
-1.1102230246251568e-16
220
-0
230
1
0
LWPOLYLINE
5
113
100
AcDbEntity
8
0
100
AcDbPolyline
90
4
70
1
43
0.0
10
-64.000000000000071
20
24.000000000000053
10
-64.000000000000071
20
-65.999999999999957
10
63.99999999999995
20
-65.999999999999972
10
63.999999999999915
20
24.00000000000005
0
CIRCLE
5
114
100
AcDbEntity
8
0
100
AcDbCircle
10
-6.6613381477509392e-14
20
-20.999999999999982
30
0
40
19.000000000000007
210
-7.398018208342515e-48
220
1.2325951644078309e-32
230
1
0
ENDSEC
0
SECTION
2
OBJECTS
0
DICTIONARY
5
C
100
AcDbDictionary
3
ACAD_GROUP
350
D
3
ACAD_MLINESTYLE
350
17
0
DICTIONARY
5
D
100
AcDbDictionary
0
DICTIONARY
5
1A
330
C
100
AcDbDictionary
0
DICTIONARY
5
17
100
AcDbDictionary
0
ENDSEC
0
EOF
