0
SECTION
2
HEADER
9
$INSUNITS
70
4
9
$ACADVER
1
AC1014
9
$HANDSEED
5
FFFF
0
ENDSEC
0
SECTION
2
TABLES
0
TABLE
2
VPORT
5
8
100
AcDbSymbolTable
0
ENDTAB
0
TABLE
2
LTYPE
5
5
100
AcDbSymbolTable
0
LTYPE
5
14
100
AcDbSymbolTableRecord
100
AcDbLinetypeTableRecord
2
BYBLOCK
70
0
0
LTYPE
5
15
100
AcDbSymbolTableRecord
100
AcDbLinetypeTableRecord
2
BYLAYER
70
0
0
LTYPE
5
16
100
AcDbSymbolTableRecord
100
AcDbLinetypeTableRecord
2
DASHED
70
0
3
Dashed __ __ __ __ __ __ __ __ __ __ __ __ __ _
72
65
73
2
40
0.75
49
0.5
74
0
49
-0.25
74
0
0
ENDTAB
0
TABLE
2
LAYER
5
2
100
AcDbSymbolTable
70
2
0
LAYER
5
50
100
AcDbSymbolTableRecord
100
AcDbLayerTableRecord
2
0
70
0
62
7
6
CONTINUOUS
0
ENDTAB
0
TABLE
2
STYLE
5
3
100
AcDbSymbolTable
70
1
0
STYLE
5
11
100
AcDbSymbolTableRecord
100
AcDbTextStyleTableRecord
2
STANDARD
70
0
0
ENDTAB
0
TABLE
2
VIEW
5
6
100
AcDbSymbolTable
70
0
0
ENDTAB
0
TABLE
2
UCS
5
7
100
AcDbSymbolTable
70
0
0
ENDTAB
0
TABLE
2
APPID
5
9
100
AcDbSymbolTable
70
2
0
APPID
5
12
100
AcDbSymbolTableRecord
100
AcDbRegAppTableRecord
2
ACAD
70
0
0
ENDTAB
0
TABLE
2
DIMSTYLE
5
A
100
AcDbSymbolTable
70
1
0
ENDTAB
0
TABLE
2
BLOCK_RECORD
5
1
100
AcDbSymbolTable
70
1
0
BLOCK_RECORD
5
1F
100
AcDbSymbolTableRecord
100
AcDbBlockTableRecord
2
*MODEL_SPACE
0
BLOCK_RECORD
5
1B
100
AcDbSymbolTableRecord
100
AcDbBlockTableRecord
2
*PAPER_SPACE
0
ENDTAB
0
ENDSEC
0
SECTION
2
BLOCKS
0
BLOCK
5
20
100
AcDbEntity
100
AcDbBlockBegin
2
*MODEL_SPACE
0
ENDBLK
5
21
100
AcDbEntity
100
AcDbBlockEnd
0
BLOCK
5
1C
100
AcDbEntity
100
AcDbBlockBegin
2
*PAPER_SPACE
0
ENDBLK
5
1D
100
AcDbEntity
100
AcDbBlockEnd
0
ENDSEC
0
SECTION
2
ENTITIES
0
CIRCLE
5
100
100
AcDbEntity
8
0
100
AcDbCircle
10
37.499999999999957
20
-23.500000000000046
30
8.8817841970012523e-15
40
1.7499999999999987
210
0
220
-0
230
1
0
CIRCLE
5
101
100
AcDbEntity
8
0
100
AcDbCircle
10
-37.500000000000071
20
-23.500000000000046
30
0
40
1.7500000000000031
210
-0
220
1.2325951644078309e-32
230
1
0
CIRCLE
5
102
100
AcDbEntity
8
0
100
AcDbCircle
10
55.749999999999957
20
11.499999999999982
30
0
40
1.7499999999999987
210
0
220
-0
230
1
0
CIRCLE
5
103
100
AcDbEntity
8
0
100
AcDbCircle
10
55.749999999999964
20
-53.500000000000007
30
0
40
1.7499999999999987
210
0
220
-0
230
1
0
CIRCLE
5
104
100
AcDbEntity
8
0
100
AcDbCircle
10
-55.750000000000448
20
-53.49999999999951
30
0
40
1.7499999999999987
210
0
220
-0
230
1
0
CIRCLE
5
105
100
AcDbEntity
8
0
100
AcDbCircle
10
-55.749999999999858
20
11.500000000000473
30
8.8817841970012523e-15
40
1.7499999999999987
210
0
220
-0
230
1
0
LWPOLYLINE
5
106
100
AcDbEntity
8
0
100
AcDbPolyline
90
6
70
1
43
0.0
10
36.571447281621573
20
-53.016662597656236
42
3.4821258269433284
10
38.428552718378349
20
-53.016662597656236
10
40.986724853515575
20
-53.016662597656214
10
40.986724853515575
20
-27.016662597656218
10
-31.013275146484432
20
-27.016662597656222
10
-31.013275146484432
20
-53.016662597656222
0
CIRCLE
5
107
100
AcDbEntity
8
0
100
AcDbCircle
10
-37.500000000000064
20
-54.500000000000043
30
-8.8817841970012523e-15
40
1.7500000000000031
210
-0
220
1.2325951644078309e-32
230
1
0
LWPOLYLINE
5
108
100
AcDbEntity
8
0
100
AcDbPolyline
90
4
70
1
43
0.0
10
-63.999999999999758
20
-66
10
63.999999999999929
20
-66
10
63.999999999999943
20
24.000000000000608
10
-63.999999999999744
20
24.000000000000611
0
CIRCLE
5
109
100
AcDbEntity
8
0
100
AcDbCircle
10
-23.749999999999886
20
6.0000000000002052
30
8.8817841970012523e-15
40
2.9999999999999987
210
-1.5317691546760456e-47
220
-2.3600640663034558e-78
230
1
0
CIRCLE
5
110
100
AcDbEntity
8
0
100
AcDbCircle
10
23.749999999999961
20
5.9999999999999982
30
0
40
3.5000000000000009
210
1.4674091061602446e-47
220
-2.170465642153362e-78
230
1
0
LINE
5
111
100
AcDbEntity
8
0
100
AcDbLine
10
-53.413264196352657
20
6.0000000000002052
30
0
11
5.9132641963528831
21
6.0000000000002052
31
0
6
DASHED
0
LINE
5
112
100
AcDbEntity
8
0
100
AcDbLine
10
5.9132641963528831
20
6.0000000000002052
30
0
11
5.9132641963528894
21
24.000000000000611
31
0
6
DASHED
0
LINE
5
113
100
AcDbEntity
8
0
100
AcDbLine
10
5.9132641963528894
20
24.000000000000611
30
0
11
-53.41326419635265
21
24.000000000000611
31
0
6
DASHED
0
LINE
5
114
100
AcDbEntity
8
0
100
AcDbLine
10
-53.41326419635265
20
24.000000000000611
30
0
11
-53.413264196352657
21
6.0000000000002052
31
0
6
DASHED
0
LINE
5
115
100
AcDbEntity
8
0
100
AcDbLine
10
7.3784133268214047
20
5.9999999999999982
30
0
11
40.12158667317852
21
5.9999999999999982
31
0
6
DASHED
0
LINE
5
116
100
AcDbEntity
8
0
100
AcDbLine
10
40.12158667317852
20
5.9999999999999982
30
0
11
40.12158667317852
21
24.000000000000611
31
0
6
DASHED
0
LINE
5
117
100
AcDbEntity
8
0
100
AcDbLine
10
40.12158667317852
20
24.000000000000611
30
0
11
7.3784133268214047
21
24.000000000000611
31
0
6
DASHED
0
LINE
5
118
100
AcDbEntity
8
0
100
AcDbLine
10
7.3784133268214047
20
24.000000000000611
30
0
11
7.3784133268214047
21
5.9999999999999982
31
0
6
DASHED
0
LINE
5
119
100
AcDbEntity
8
0
100
AcDbLine
10
-41.446532722549129
20
18.013005495072022
30
0
11
-41.398844238357235
21
16.053468227387086
31
0
0
LINE
5
120
100
AcDbEntity
8
0
100
AcDbLine
10
-41.398844238357242
20
16.053468227387086
30
0
11
-41.576590057449039
21
16.053468227387086
31
0
0
SPLINE
5
121
100
AcDbEntity
8
0
100
AcDbSpline
70
0
71
2
72
6
73
3
74
0
42
0.000000001
43
0.0000000001
44
0.0000000001
40
0
40
0
40
0
40
1
40
1
40
1
10
-41.576590057449039
20
16.053468227387086
30
0
10
-41.702312942580875
20
16.790462374687806
30
0
10
-42.194364782409359
20
17.239161968231812
30
0
0
SPLINE
5
122
100
AcDbEntity
8
0
100
AcDbSpline
70
0
71
2
72
6
73
3
74
0
42
0.000000001
43
0.0000000001
44
0.0000000001
40
0
40
0
40
0
40
1
40
1
40
1
10
-42.194364782409359
20
17.239161968231812
30
0
10
-42.68641662223785
20
17.687860965729371
30
0
10
-43.258671279983211
20
17.687860965729371
30
0
0
SPLINE
5
123
100
AcDbEntity
8
0
100
AcDbSpline
70
0
71
2
72
6
73
3
74
0
42
0.000000001
43
0.0000000001
44
0.0000000001
40
0
40
0
40
0
40
1
40
1
40
1
10
-43.258671279983211
20
17.687860965729371
30
0
10
-43.70086860282867
20
17.687860965729371
30
0
10
-43.958816047744442
20
17.451589345932618
30
0
0
SPLINE
5
124
100
AcDbEntity
8
0
100
AcDbSpline
70
0
71
2
72
6
73
3
74
0
42
0.000000001
43
0.0000000001
44
0.0000000001
40
0
40
0
40
0
40
1
40
1
40
1
10
-43.958816047744442
20
17.451589345932618
30
0
10
-44.216764088706661
20
17.215317726135865
30
0
10
-44.216764088706661
20
16.907514572144166
30
0
0
SPLINE
5
125
100
AcDbEntity
8
0
100
AcDbSpline
70
0
71
2
72
6
73
3
74
0
42
0.000000001
43
0.0000000001
44
0.0000000001
40
0
40
0
40
0
40
1
40
1
40
1
10
-44.216764088706661
20
16.907514572144166
30
0
10
-44.216764088706661
20
16.712427377701417
30
0
10
-44.125723358230282
20
16.560693621636048
30
0
0
SPLINE
5
126
100
AcDbEntity
8
0
100
AcDbSpline
70
0
71
2
72
6
73
3
74
0
42
0.000000001
43
0.0000000001
44
0.0000000001
40
0
40
0
40
0
40
1
40
1
40
1
10
-44.125723358230282
20
16.560693621636048
30
0
10
-44.000001069144894
20
16.356936335564271
30
0
10
-43.722544427947696
20
16.157514095307008
30
0
0
SPLINE
5
127
100
AcDbEntity
8
0
100
AcDbSpline
70
0
71
2
72
6
73
3
74
0
42
0.000000001
43
0.0000000001
44
0.0000000001
40
0
40
0
40
0
40
1
40
1
40
1
10
-43.722544427947696
20
16.157514095307008
30
0
10
-43.518787141875919
20
16.014451026917115
30
0
10
-42.781792398528751
20
15.650289297104493
30
0
0
SPLINE
5
128
100
AcDbEntity
8
0
100
AcDbSpline
70
0
71
2
72
6
73
3
74
0
42
0.000000001
43
0.0000000001
44
0.0000000001
40
0
40
0
40
0
40
1
40
1
40
1
10
-42.781792398528751
20
15.650289297104493
30
0
10
-41.750001426772769
20
15.143063306809083
30
0
10
-41.390174146728214
20
14.692195892334595
30
0
0
SPLINE
5
129
100
AcDbEntity
8
0
100
AcDbSpline
70
0
71
2
72
6
73
3
74
0
42
0.000000001
43
0.0000000001
44
0.0000000001
40
0
40
0
40
0
40
1
40
1
40
1
10
-41.390174146728214
20
14.692195892334595
30
0
10
-41.034683700637515
20
14.241329669953004
30
0
10
-41.034683700637515
20
13.660403728485718
30
0
0
SPLINE
5
130
100
AcDbEntity
8
0
100
AcDbSpline
70
0
71
2
72
6
73
3
74
0
42
0.000000001
43
0.0000000001
44
0.0000000001
40
0
40
0
40
0
40
1
40
1
40
1
10
-41.034683700637515
20
13.660403728485718
30
0
10
-41.034683700637515
20
12.923410177231446
30
0
10
-41.60910558326691
20
12.392341136932984
30
0
0
SPLINE
5
131
100
AcDbEntity
8
0
100
AcDbSpline
70
0
71
2
72
6
73
3
74
0
42
0.000000001
43
0.0000000001
44
0.0000000001
40
0
40
0
40
0
40
1
40
1
40
1
10
-41.60910558326691
20
12.392341136932984
30
0
10
-42.183527465896304
20
11.861270904541627
30
0
10
-43.067919727401431
20
11.861270904541627
30
0
0
SPLINE
5
132
100
AcDbEntity
8
0
100
AcDbSpline
70
0
71
2
72
6
73
3
74
0
42
0.000000001
43
0.0000000001
44
0.0000000001
40
0
40
0
40
0
40
1
40
1
40
1
10
-43.067919727401431
20
11.861270904541627
30
0
10
-43.345376964645084
20
11.861270904541627
30
0
10
-43.592485900954898
20
11.91762948036255
30
0
0
SPLINE
5
133
100
AcDbEntity
8
0
100
AcDbSpline
70
0
71
2
72
6
73
3
74
0
42
0.000000001
43
0.0000000001
44
0.0000000001
40
0
40
0
40
0
40
1
40
1
40
1
10
-43.592485900954898
20
11.91762948036255
30
0
10
-43.839596029357608
20
11.973988056183472
30
0
10
-44.212429042892154
20
12.130056858063355
30
0
0
SPLINE
5
134
100
AcDbEntity
8
0
100
AcDbSpline
70
0
71
2
72
6
73
3
74
0
42
0.000000001
43
0.0000000001
44
0.0000000001
40
0
40
0
40
0
40
1
40
1
40
1
10
-44.212429042892154
20
12.130056858063355
30
0
10
-44.420521374778446
20
12.21676254272522
30
0
10
-44.55491435153931
20
12.21676254272522
30
0
0
SPLINE
5
135
100
AcDbEntity
8
0
100
AcDbSpline
70
0
71
2
72
6
73
3
74
0
42
0.000000001
43
0.0000000001
44
0.0000000001
40
0
40
0
40
0
40
1
40
1
40
1
10
-44.55491435153931
20
12.21676254272522
30
0
10
-44.667630907134708
20
12.21676254272522
30
0
10
-44.793353792266544
20
12.130056858063355
30
0
0
SPLINE
5
136
100
AcDbEntity
8
0
100
AcDbSpline
70
0
71
2
72
6
73
3
74
0
42
0.000000001
43
0.0000000001
44
0.0000000001
40
0
40
0
40
0
40
1
40
1
40
1
10
-44.793353792266544
20
12.130056858063355
30
0
10
-44.919076081351932
20
12.043352365494385
30
0
10
-44.997111078338321
20
11.865606546402589
30
0
0
LINE
5
137
100
AcDbEntity
8
0
100
AcDbLine
10
-44.997111078338321
20
11.865606546402589
30
0
11
-45.157515522079166
21
11.865606546402589
31
0
0
LINE
5
138
100
AcDbEntity
8
0
100
AcDbLine
10
-45.157515522079166
20
11.865606546402589
30
0
11
-45.157515522079166
21
14.085259675980225
31
0
0
LINE
5
139
100
AcDbEntity
8
0
100
AcDbLine
10
-45.157515522079166
20
14.085259675980225
30
0
11
-44.997111078338321
21
14.085259675980225
31
0
0
SPLINE
5
140
100
AcDbEntity
8
0
100
AcDbSpline
70
0
71
2
72
6
73
3
74
0
42
0.000000001
43
0.0000000001
44
0.0000000001
40
0
40
0
40
0
40
1
40
1
40
1
10
-44.997111078338321
20
14.085259675980225
30
0
10
-44.806359525756534
20
13.148843288422242
30
0
10
-44.262284155921634
20
12.656791448593751
30
0
0
SPLINE
5
141
100
AcDbEntity
8
0
100
AcDbSpline
70
0
71
2
72
6
73
3
74
0
42
0.000000001
43
0.0000000001
44
0.0000000001
40
0
40
0
40
0
40
1
40
1
40
1
10
-44.262284155921634
20
12.656791448593751
30
0
10
-43.718208786086734
20
12.16473960876526
30
0
10
-43.089596744613345
20
12.16473960876526
30
0
0
SPLINE
5
142
100
AcDbEntity
8
0
100
AcDbSpline
70
0
71
2
72
6
73
3
74
0
42
0.000000001
43
0.0000000001
44
0.0000000001
40
0
40
0
40
0
40
1
40
1
40
1
10
-43.089596744613345
20
12.16473960876526
30
0
10
-42.604047771529849
20
12.16473960876526
30
0
10
-42.31575202568024
20
12.429189920426026
30
0
0
SPLINE
5
143
100
AcDbEntity
8
0
100
AcDbSpline
70
0
71
2
72
6
73
3
74
0
42
0.000000001
43
0.0000000001
44
0.0000000001
40
0
40
0
40
0
40
1
40
1
40
1
10
-42.31575202568024
20
12.429189920426026
30
0
10
-42.027457471923526
20
12.693641424179688
30
0
10
-42.027457471923526
20
13.04479742050232
30
0
0
SPLINE
5
144
100
AcDbEntity
8
0
100
AcDbSpline
70
0
71
2
72
6
73
3
74
0
42
0.000000001
43
0.0000000001
44
0.0000000001
40
0
40
0
40
0
40
1
40
1
40
1
10
-42.027457471923526
20
13.04479742050232
30
0
10
-42.027457471923526
20
13.252890348435059
30
0
10
-42.138006206588443
20
13.447976350784913
30
0
0
SPLINE
5
145
100
AcDbEntity
8
0
100
AcDbSpline
70
0
71
2
72
6
73
3
74
0
42
0.000000001
43
0.0000000001
44
0.0000000001
40
0
40
0
40
0
40
1
40
1
40
1
10
-42.138006206588443
20
13.447976350784913
30
0
10
-42.248556133346256
20
13.643063545227662
30
0
10
-42.473989244537051
20
13.81864094734253
30
0
0
SPLINE
5
146
100
AcDbEntity
8
0
100
AcDbSpline
70
0
71
2
72
6
73
3
74
0
42
0.000000001
43
0.0000000001
44
0.0000000001
40
0
40
0
40
0
40
1
40
1
40
1
10
-42.473989244537051
20
13.81864094734253
30
0
10
-42.699422355727847
20
13.994219541550294
30
0
10
-43.271677013473209
20
14.276011228562012
30
0
0
SPLINE
5
147
100
AcDbEntity
8
0
100
AcDbSpline
70
0
71
2
72
6
73
3
74
0
42
0.000000001
43
0.0000000001
44
0.0000000001
40
0
40
0
40
0
40
1
40
1
40
1
10
-43.271677013473209
20
14.276011228562012
30
0
10
-44.073700424270328
20
14.670520067215577
30
0
10
-44.42485642059296
20
14.947976112366334
30
0
0
SPLINE
5
148
100
AcDbEntity
8
0
100
AcDbSpline
70
0
71
2
72
6
73
3
74
0
42
0.000000001
43
0.0000000001
44
0.0000000001
40
0
40
0
40
0
40
1
40
1
40
1
10
-44.42485642059296
20
14.947976112366334
30
0
10
-44.776012416915592
20
15.225433349609986
30
0
10
-44.964596148566891
20
15.56791925430359
30
0
0
SPLINE
5
149
100
AcDbEntity
8
0
100
AcDbSpline
70
0
71
2
72
6
73
3
74
0
42
0.000000001
43
0.0000000001
44
0.0000000001
40
0
40
0
40
0
40
1
40
1
40
1
10
-44.964596148566891
20
15.56791925430359
30
0
10
-45.153179880218197
20
15.910405158997193
30
0
10
-45.153179880218197
20
16.322254180908814
30
0
0
SPLINE
5
150
100
AcDbEntity
8
0
100
AcDbSpline
70
0
71
2
72
6
73
3
74
0
42
0.000000001
43
0.0000000001
44
0.0000000001
40
0
40
0
40
0
40
1
40
1
40
1
10
-45.153179880218197
20
16.322254180908814
30
0
10
-45.153179880218197
20
17.024566173554078
30
0
10
-44.637284394340206
20
17.51878583431305
30
0
0
SPLINE
5
151
100
AcDbEntity
8
0
100
AcDbSpline
70
0
71
2
72
6
73
3
74
0
42
0.000000001
43
0.0000000001
44
0.0000000001
40
0
40
0
40
0
40
1
40
1
40
1
10
-44.637284394340206
20
17.51878583431305
30
0
10
-44.121388312415768
20
18.013005495072022
30
0
10
-43.336705680923153
20
18.013005495072022
30
0
0
SPLINE
5
152
100
AcDbEntity
8
0
100
AcDbSpline
70
0
71
2
72
6
73
3
74
0
42
0.000000001
43
0.0000000001
44
0.0000000001
40
0
40
0
40
0
40
1
40
1
40
1
10
-43.336705680923153
20
18.013005495072022
30
0
10
-43.050579544143368
20
18.013005495072022
30
0
10
-42.781792398528744
20
17.943641781807557
30
0
0
SPLINE
5
153
100
AcDbEntity
8
0
100
AcDbSpline
70
0
71
2
72
6
73
3
74
0
42
0.000000001
43
0.0000000001
44
0.0000000001
40
0
40
0
40
0
40
1
40
1
40
1
10
-42.781792398528744
20
17.943641781807557
30
0
10
-42.578036304549862
20
17.891618251801148
30
0
10
-42.285406108932186
20
17.750722408295289
30
0
0
SPLINE
5
154
100
AcDbEntity
8
0
100
AcDbSpline
70
0
71
2
72
6
73
3
74
0
42
0.000000001
43
0.0000000001
44
0.0000000001
40
0
40
0
40
0
40
1
40
1
40
1
10
-42.285406108932186
20
17.750722408295289
30
0
10
-41.99277591331451
20
17.609826564789429
30
0
10
-41.875723119811703
20
17.609826564789429
30
0
0
SPLINE
5
155
100
AcDbEntity
8
0
100
AcDbSpline
70
0
71
2
72
6
73
3
74
0
42
0.000000001
43
0.0000000001
44
0.0000000001
40
0
40
0
40
0
40
1
40
1
40
1
10
-41.875723119811703
20
17.609826564789429
30
0
10
-41.763007160262752
20
17.609826564789429
30
0
10
-41.697978492812801
20
17.679190874100343
30
0
0
SPLINE
5
156
100
AcDbEntity
8
0
100
AcDbSpline
70
0
71
2
72
6
73
3
74
0
42
0.000000001
43
0.0000000001
44
0.0000000001
40
0
40
0
40
0
40
1
40
1
40
1
10
-41.697978492812801
20
17.679190874100343
30
0
10
-41.632948633269955
20
17.748554587364808
30
0
10
-41.576590057449032
20
18.013005495072022
30
0
0
LINE
5
157
100
AcDbEntity
8
0
100
AcDbLine
10
-41.576590057449032
20
18.013005495072022
30
0
11
-41.446532722549129
21
18.013005495072022
31
0
0
LINE
5
158
100
AcDbEntity
8
0
100
AcDbLine
10
-38.771676536636043
20
17.536126613617554
30
0
11
-38.771676536636043
21
16.053468227387086
31
0
0
LINE
5
159
100
AcDbEntity
8
0
100
AcDbLine
10
-38.771676536636043
20
16.053468227387086
30
0
11
-37.80924868209808
21
16.053468227387086
31
0
0
LINE
5
160
100
AcDbEntity
8
0
100
AcDbLine
10
-37.80924868209808
20
16.053468227387086
30
0
11
-37.80924868209808
21
15.624276638031617
31
0
0
LINE
5
161
100
AcDbEntity
8
0
100
AcDbLine
10
-37.80924868209808
20
15.624276638031617
30
0
11
-38.771676536636043
21
15.624276638031617
31
0
0
LINE
5
162
100
AcDbEntity
8
0
100
AcDbLine
10
-38.771676536636043
20
15.624276638031617
30
0
11
-38.771676536636043
21
13.122831821442261
31
0
0
SPLINE
5
163
100
AcDbEntity
8
0
100
AcDbSpline
70
0
71
2
72
6
73
3
74
0
42
0.000000001
43
0.0000000001
44
0.0000000001
40
0
40
0
40
0
40
1
40
1
40
1
10
-38.771676536636043
20
13.122831821442261
30
0
10
-38.771676536636043
20
12.77167582511963
30
0
10
-38.739162202911068
20
12.669797182083741
30
0
0
SPLINE
5
164
100
AcDbEntity
8
0
100
AcDbSpline
70
0
71
2
72
6
73
3
74
0
42
0.000000001
43
0.0000000001
44
0.0000000001
40
0
40
0
40
0
40
1
40
1
40
1
10
-38.739162202911068
20
12.669797182083741
30
0
10
-38.706647869186092
20
12.567918539047852
30
0
10
-38.624277826385189
20
12.505057096481934
30
0
0
SPLINE
5
165
100
AcDbEntity
8
0
100
AcDbSpline
70
0
71
2
72
6
73
3
74
0
42
0.000000001
43
0.0000000001
44
0.0000000001
40
0
40
0
40
0
40
1
40
1
40
1
10
-38.624277826385189
20
12.505057096481934
30
0
10
-38.541907783584286
20
12.442195653916016
30
0
10
-38.472543474273373
20
12.442195653916016
30
0
0
SPLINE
5
166
100
AcDbEntity
8
0
100
AcDbSpline
70
0
71
2
72
6
73
3
74
0
42
0.000000001
43
0.0000000001
44
0.0000000001
40
0
40
0
40
0
40
1
40
1
40
1
10
-38.472543474273373
20
12.442195653916016
30
0
10
-38.190751787261654
20
12.442195653916016
30
0
10
-37.939307209090877
20
12.871387243271485
30
0
0
LINE
5
167
100
AcDbEntity
8
0
100
AcDbLine
10
-37.939307209090877
20
12.871387243271485
30
0
11
-37.80924868209808
21
12.776011466980592
31
0
0
SPLINE
5
168
100
AcDbEntity
8
0
100
AcDbSpline
70
0
71
2
72
6
73
3
74
0
42
0.000000001
43
0.0000000001
44
0.0000000001
40
0
40
0
40
0
40
1
40
1
40
1
10
-37.80924868209808
20
12.776011466980592
30
0
10
-38.160404678420711
20
11.94364094734253
30
0
10
-38.94942235572784
20
11.94364094734253
30
0
0
SPLINE
5
169
100
AcDbEntity
8
0
100
AcDbSpline
70
0
71
2
72
6
73
3
74
0
42
0.000000001
43
0.0000000001
44
0.0000000001
40
0
40
0
40
0
40
1
40
1
40
1
10
-38.94942235572784
20
11.94364094734253
30
0
10
-39.335259910659481
20
11.94364094734253
30
0
10
-39.601878639297176
20
12.158236742020264
30
0
0
SPLINE
5
170
100
AcDbEntity
8
0
100
AcDbSpline
70
0
71
2
72
6
73
3
74
0
42
0.000000001
43
0.0000000001
44
0.0000000001
40
0
40
0
40
0
40
1
40
1
40
1
10
-39.601878639297176
20
12.158236742020264
30
0
10
-39.868497367934872
20
12.372831344605103
30
0
10
-39.942197319106747
20
12.637282848358765
30
0
0
SPLINE
5
171
100
AcDbEntity
8
0
100
AcDbSpline
70
0
71
2
72
6
73
3
74
0
42
0.000000001
43
0.0000000001
44
0.0000000001
40
0
40
0
40
0
40
1
40
1
40
1
10
-39.942197319106747
20
12.637282848358765
30
0
10
-39.985548969344784
20
12.78468155860962
30
0
10
-39.985548969344784
20
13.434970617294923
30
0
0
LINE
5
172
100
AcDbEntity
8
0
100
AcDbLine
10
-39.985548969344784
20
13.434970617294923
30
0
11
-39.985548969344784
21
15.624276638031617
31
0
0
LINE
5
173
100
AcDbEntity
8
0
100
AcDbLine
10
-39.985548969344784
20
15.624276638031617
30
0
11
-40.514451976852115
21
15.624276638031617
31
0
0
LINE
5
174
100
AcDbEntity
8
0
100
AcDbLine
10
-40.514451976852115
20
15.624276638031617
30
0
11
-40.514451976852115
21
15.776010990143433
31
0
0
SPLINE
5
175
100
AcDbEntity
8
0
100
AcDbSpline
70
0
71
2
72
6
73
3
74
0
42
0.000000001
43
0.0000000001
44
0.0000000001
40
0
40
0
40
0
40
1
40
1
40
1
10
-40.514451976852115
20
15.776010990143433
30
0
10
-39.968208786086727
20
16.161849737167969
30
0
10
-39.58453845603912
20
16.586705088616029
30
0
0
SPLINE
5
176
100
AcDbEntity
8
0
100
AcDbSpline
70
0
71
2
72
6
73
3
74
0
42
0.000000001
43
0.0000000001
44
0.0000000001
40
0
40
0
40
0
40
1
40
1
40
1
10
-39.58453845603912
20
16.586705088616029
30
0
10
-39.200868125991512
20
17.011560440064088
30
0
10
-38.914739605025936
20
17.536126613617554
30
0
0
LINE
5
177
100
AcDbEntity
8
0
100
AcDbLine
10
-38.914739605025936
20
17.536126613617554
30
0
11
-38.771676536636043
21
17.536126613617554
31
0
0
SPLINE
5
178
100
AcDbEntity
8
0
100
AcDbSpline
70
0
71
2
72
6
73
3
74
0
42
0.000000001
43
0.0000000001
44
0.0000000001
40
0
40
0
40
0
40
1
40
1
40
1
10
-35.18641662223785
20
12.598265647888795
30
0
10
-35.927745815353084
20
11.94364094734253
30
0
10
-36.517341848449398
20
11.94364094734253
30
0
0
SPLINE
5
179
100
AcDbEntity
8
0
100
AcDbSpline
70
0
71
2
72
6
73
3
74
0
42
0.000000001
43
0.0000000001
44
0.0000000001
40
0
40
0
40
0
40
1
40
1
40
1
10
-36.517341848449398
20
11.94364094734253
30
0
10
-36.864163395003963
20
11.94364094734253
30
0
10
-37.093932148055721
20
12.171242475510255
30
0
0
SPLINE
5
180
100
AcDbEntity
8
0
100
AcDbSpline
70
0
71
2
72
6
73
3
74
0
42
0.000000001
43
0.0000000001
44
0.0000000001
40
0
40
0
40
0
40
1
40
1
40
1
10
-37.093932148055721
20
12.171242475510255
30
0
10
-37.323700901107479
20
12.398844003677979
30
0
10
-37.323700901107479
20
12.741328716278687
30
0
0
SPLINE
5
181
100
AcDbEntity
8
0
100
AcDbSpline
70
0
71
2
72
6
73
3
74
0
42
0.000000001
43
0.0000000001
44
0.0000000001
40
0
40
0
40
0
40
1
40
1
40
1
10
-37.323700901107479
20
12.741328716278687
30
0
10
-37.323700901107479
20
13.205201864243165
30
0
10
-36.924856420592953
20
13.575866460800782
30
0
0
SPLINE
5
182
100
AcDbEntity
8
0
100
AcDbSpline
70
0
71
2
72
6
73
3
74
0
42
0.000000001
43
0.0000000001
44
0.0000000001
40
0
40
0
40
0
40
1
40
1
40
1
10
-36.924856420592953
20
13.575866460800782
30
0
10
-36.526011940078426
20
13.946531057358399
30
0
10
-35.18641662223785
20
14.562138557434693
30
0
0
LINE
5
183
100
AcDbEntity
8
0
100
AcDbLine
10
-35.18641662223785
20
14.562138557434693
30
0
11
-35.18641662223785
21
14.969653129578248
31
0
0
SPLINE
5
184
100
AcDbEntity
8
0
100
AcDbSpline
70
0
71
2
72
6
73
3
74
0
42
0.000000001
43
0.0000000001
44
0.0000000001
40
0
40
0
40
0
40
1
40
1
40
1
10
-35.18641662223785
20
14.969653129578248
30
0
10
-35.18641662223785
20
15.429190635681763
30
0
10
-35.236272331313778
20
15.548409461975709
30
0
0
SPLINE
5
185
100
AcDbEntity
8
0
100
AcDbSpline
70
0
71
2
72
6
73
3
74
0
42
0.000000001
43
0.0000000001
44
0.0000000001
40
0
40
0
40
0
40
1
40
1
40
1
10
-35.236272331313778
20
15.548409461975709
30
0
10
-35.286128040389706
20
15.66762948036255
30
0
10
-35.424856659011532
20
15.756502389908448
30
0
0
SPLINE
5
186
100
AcDbEntity
8
0
100
AcDbSpline
70
0
71
2
72
6
73
3
74
0
42
0.000000001
43
0.0000000001
44
0.0000000001
40
0
40
0
40
0
40
1
40
1
40
1
10
-35.424856659011532
20
15.756502389908448
30
0
10
-35.563585277633358
20
15.845375299454346
30
0
10
-35.736994262771297
20
15.845375299454346
30
0
0
SPLINE
5
187
100
AcDbEntity
8
0
100
AcDbSpline
70
0
71
2
72
6
73
3
74
0
42
0.000000001
43
0.0000000001
44
0.0000000001
40
0
40
0
40
0
40
1
40
1
40
1
10
-35.736994262771297
20
15.845375299454346
30
0
10
-36.018787141875912
20
15.845375299454346
30
0
10
-36.20086860282867
20
15.719653606415406
30
0
0
SPLINE
5
188
100
AcDbEntity
8
0
100
AcDbSpline
70
0
71
2
72
6
73
3
74
0
42
0.000000001
43
0.0000000001
44
0.0000000001
40
0
40
0
40
0
40
1
40
1
40
1
10
-36.20086860282867
20
15.719653606415406
30
0
10
-36.313584562377621
20
15.641618013382569
30
0
10
-36.313584562377621
20
15.537572145462647
30
0
0
SPLINE
5
189
100
AcDbEntity
8
0
100
AcDbSpline
70
0
71
2
72
6
73
3
74
0
42
0.000000001
43
0.0000000001
44
0.0000000001
40
0
40
0
40
0
40
1
40
1
40
1
10
-36.313584562377621
20
15.537572145462647
30
0
10
-36.313584562377621
20
15.446532011032716
30
0
10
-36.192197319106747
20
15.312139034271851
30
0
0
SPLINE
5
190
100
AcDbEntity
8
0
100
AcDbSpline
70
0
71
2
72
6
73
3
74
0
42
0.000000001
43
0.0000000001
44
0.0000000001
40
0
40
0
40
0
40
1
40
1
40
1
10
-36.192197319106747
20
15.312139034271851
30
0
10
-36.02745723350494
20
15.125721931458131
30
0
10
-36.02745723350494
20
14.952311754227296
30
0
0
SPLINE
5
191
100
AcDbEntity
8
0
100
AcDbSpline
70
0
71
2
72
6
73
3
74
0
42
0.000000001
43
0.0000000001
44
0.0000000001
40
0
40
0
40
0
40
1
40
1
40
1
10
-36.02745723350494
20
14.952311754227296
30
0
10
-36.02745723350494
20
14.73988437652649
30
0
10
-36.185694452361751
20
14.590317249298707
30
0
0
SPLINE
5
192
100
AcDbEntity
8
0
100
AcDbSpline
70
0
71
2
72
6
73
3
74
0
42
0.000000001
43
0.0000000001
44
0.0000000001
40
0
40
0
40
0
40
1
40
1
40
1
10
-36.185694452361751
20
14.590317249298707
30
0
10
-36.343931671218563
20
14.440751314163819
30
0
10
-36.599711891250301
20
14.440751314163819
30
0
0
SPLINE
5
193
100
AcDbEntity
8
0
100
AcDbSpline
70
0
71
2
72
6
73
3
74
0
42
0.000000001
43
0.0000000001
44
0.0000000001
40
0
40
0
40
0
40
1
40
1
40
1
10
-36.599711891250301
20
14.440751314163819
30
0
10
-36.872833486632992
20
14.440751314163819
30
0
10
-37.057082172469784
20
14.605491399765626
30
0
0
SPLINE
5
194
100
AcDbEntity
8
0
100
AcDbSpline
70
0
71
2
72
6
73
3
74
0
42
0.000000001
43
0.0000000001
44
0.0000000001
40
0
40
0
40
0
40
1
40
1
40
1
10
-37.057082172469784
20
14.605491399765626
30
0
10
-37.24132966621368
20
14.770230293274537
30
0
10
-37.24132966621368
20
14.991328954697266
30
0
0
SPLINE
5
195
100
AcDbEntity
8
0
100
AcDbSpline
70
0
71
2
72
6
73
3
74
0
42
0.000000001
43
0.0000000001
44
0.0000000001
40
0
40
0
40
0
40
1
40
1
40
1
10
-37.24132966621368
20
14.991328954697266
30
0
10
-37.24132966621368
20
15.303467750549927
30
0
10
-36.994220729903866
20
15.587427854538575
30
0
0
SPLINE
5
196
100
AcDbEntity
8
0
100
AcDbSpline
70
0
71
2
72
6
73
3
74
0
42
0.000000001
43
0.0000000001
44
0.0000000001
40
0
40
0
40
0
40
1
40
1
40
1
10
-36.994220729903866
20
15.587427854538575
30
0
10
-36.747110601501156
20
15.871386766434327
30
0
10
-36.304914470748592
20
16.023121118546143
30
0
0
SPLINE
5
197
100
AcDbEntity
8
0
100
AcDbSpline
70
0
71
2
72
6
73
3
74
0
42
0.000000001
43
0.0000000001
44
0.0000000001
40
0
40
0
40
0
40
1
40
1
40
1
10
-36.304914470748592
20
16.023121118546143
30
0
10
-35.862717147903133
20
16.17485547065796
30
0
10
-35.385839458541561
20
16.17485547065796
30
0
0
SPLINE
5
198
100
AcDbEntity
8
0
100
AcDbSpline
70
0
71
2
72
6
73
3
74
0
42
0.000000001
43
0.0000000001
44
0.0000000001
40
0
40
0
40
0
40
1
40
1
40
1
10
-35.385839458541561
20
16.17485547065796
30
0
10
-34.809249158935238
20
16.17485547065796
30
0
10
-34.473266120986629
20
15.929913163185731
30
0
0
SPLINE
5
199
100
AcDbEntity
8
0
100
AcDbSpline
70
0
71
2
72
6
73
3
74
0
42
0.000000001
43
0.0000000001
44
0.0000000001
40
0
40
0
40
0
40
1
40
1
40
1
10
-34.473266120986629
20
15.929913163185731
30
0
10
-34.137284275130916
20
15.684970855713502
30
0
10
-34.037572856979061
20
15.398843526840821
30
0
0
SPLINE
5
200
100
AcDbEntity
8
0
100
AcDbSpline
70
0
71
2
72
6
73
3
74
0
42
0.000000001
43
0.0000000001
44
0.0000000001
40
0
40
0
40
0
40
1
40
1
40
1
10
-34.037572856979061
20
15.398843526840821
30
0
10
-33.976878639297176
20
15.216762065888062
30
0
10
-33.976878639297176
20
14.562138557434693
30
0
0
LINE
5
201
100
AcDbEntity
8
0
100
AcDbLine
10
-33.976878639297176
20
14.562138557434693
30
0
11
-33.976878639297176
21
12.988438844681397
31
0
0
SPLINE
5
202
100
AcDbEntity
8
0
100
AcDbSpline
70
0
71
2
72
6
73
3
74
0
42
0.000000001
43
0.0000000001
44
0.0000000001
40
0
40
0
40
0
40
1
40
1
40
1
10
-33.976878639297176
20
12.988438844681397
30
0
10
-33.976878639297176
20
12.71098279953064
30
0
10
-33.955202814178158
20
12.639450073242799
30
0
0
SPLINE
5
203
100
AcDbEntity
8
0
100
AcDbSpline
70
0
71
2
72
6
73
3
74
0
42
0.000000001
43
0.0000000001
44
0.0000000001
40
0
40
0
40
0
40
1
40
1
40
1
10
-33.955202814178158
20
12.639450073242799
30
0
10
-33.933526989059139
20
12.567918539047852
30
0
10
-33.890174146728206
20
12.533236980438843
30
0
0
SPLINE
5
204
100
AcDbEntity
8
0
100
AcDbSpline
70
0
71
2
72
6
73
3
74
0
42
0.000000001
43
0.0000000001
44
0.0000000001
40
0
40
0
40
0
40
1
40
1
40
1
10
-33.890174146728206
20
12.533236980438843
30
0
10
-33.846821304397274
20
12.498554229736939
30
0
10
-33.790461536483456
20
12.498554229736939
30
0
0
SPLINE
5
205
100
AcDbEntity
8
0
100
AcDbSpline
70
0
71
2
72
6
73
3
74
0
42
0.000000001
43
0.0000000001
44
0.0000000001
40
0
40
0
40
0
40
1
40
1
40
1
10
-33.790461536483456
20
12.498554229736939
30
0
10
-33.677746769027401
20
12.498554229736939
30
0
10
-33.560692783431698
20
12.658958673477784
30
0
0
LINE
5
206
100
AcDbEntity
8
0
100
AcDbLine
10
-33.560692783431698
20
12.658958673477784
30
0
11
-33.430635448531795
21
12.554912805557862
31
0
0
SPLINE
5
207
100
AcDbEntity
8
0
100
AcDbSpline
70
0
71
2
72
6
73
3
74
0
42
0.000000001
43
0.0000000001
44
0.0000000001
40
0
40
0
40
0
40
1
40
1
40
1
10
-33.430635448531795
20
12.554912805557862
30
0
10
-33.647400852279354
20
12.234103918076173
30
0
10
-33.879335638122249
20
12.088872432709351
30
0
0
SPLINE
5
208
100
AcDbEntity
8
0
100
AcDbSpline
70
0
71
2
72
6
73
3
74
0
42
0.000000001
43
0.0000000001
44
0.0000000001
40
0
40
0
40
0
40
1
40
1
40
1
10
-33.879335638122249
20
12.088872432709351
30
0
10
-34.111272808150936
20
11.94364094734253
30
0
10
-34.406070228652645
20
11.94364094734253
30
0
0
SPLINE
5
209
100
AcDbEntity
8
0
100
AcDbSpline
70
0
71
2
72
6
73
3
74
0
42
0.000000001
43
0.0000000001
44
0.0000000001
40
0
40
0
40
0
40
1
40
1
40
1
10
-34.406070228652645
20
11.94364094734253
30
0
10
-34.752890583114315
20
11.94364094734253
30
0
10
-34.947977777557064
20
12.106213808060303
30
0
0
SPLINE
5
210
100
AcDbEntity
8
0
100
AcDbSpline
70
0
71
2
72
6
73
3
74
0
42
0.000000001
43
0.0000000001
44
0.0000000001
40
0
40
0
40
0
40
1
40
1
40
1
10
-34.947977777557064
20
12.106213808060303
30
0
10
-35.143064971999813
20
12.268785476685181
30
0
10
-35.18641662223785
20
12.598265647888795
30
0
0
LINE
5
211
100
AcDbEntity
8
0
100
AcDbLine
10
-35.18641662223785
20
12.914740085602418
30
0
11
-35.18641662223785
21
14.271675586701051
31
0
0
SPLINE
5
212
100
AcDbEntity
8
0
100
AcDbSpline
70
0
71
2
72
6
73
3
74
0
42
0.000000001
43
0.0000000001
44
0.0000000001
40
0
40
0
40
0
40
1
40
1
40
1
10
-35.18641662223785
20
14.271675586701051
30
0
10
-35.710982795791317
20
13.963872432709351
30
0
10
-35.966763015823055
20
13.612716436386719
30
0
0
SPLINE
5
213
100
AcDbEntity
8
0
100
AcDbSpline
70
0
71
2
72
6
73
3
74
0
42
0.000000001
43
0.0000000001
44
0.0000000001
40
0
40
0
40
0
40
1
40
1
40
1
10
-35.966763015823055
20
13.612716436386719
30
0
10
-36.135838743285824
20
13.378612041474
30
0
10
-36.135838743285824
20
13.140173196793214
30
0
0
SPLINE
5
214
100
AcDbEntity
8
0
100
AcDbSpline
70
0
71
2
72
6
73
3
74
0
42
0.000000001
43
0.0000000001
44
0.0000000001
40
0
40
0
40
0
40
1
40
1
40
1
10
-36.135838743285824
20
13.140173196793214
30
0
10
-36.135838743285824
20
12.940751552582398
30
0
10
-35.992775674895931
20
12.789017200470582
30
0
0
SPLINE
5
215
100
AcDbEntity
8
0
100
AcDbSpline
70
0
71
2
72
6
73
3
74
0
42
0.000000001
43
0.0000000001
44
0.0000000001
40
0
40
0
40
0
40
1
40
1
40
1
10
-35.992775674895931
20
12.789017200470582
30
0
10
-35.884394165115047
20
12.671964406967774
30
0
10
-35.689306970672298
20
12.671964406967774
30
0
0
SPLINE
5
216
100
AcDbEntity
8
0
100
AcDbSpline
70
0
71
2
72
6
73
3
74
0
42
0.000000001
43
0.0000000001
44
0.0000000001
40
0
40
0
40
0
40
1
40
1
40
1
10
-35.689306970672298
20
12.671964406967774
30
0
10
-35.472543951110531
20
12.671964406967774
30
0
10
-35.18641662223785
20
12.914740085602418
30
0
0
LINE
5
217
100
AcDbEntity
8
0
100
AcDbLine
10
-31.302024837569885
20
16.053468227387086
30
0
11
-31.302024837569885
21
15.134393215180054
31
0
0
SPLINE
5
218
100
AcDbEntity
8
0
100
AcDbSpline
70
0
71
2
72
6
73
3
74
0
42
0.000000001
43
0.0000000001
44
0.0000000001
40
0
40
0
40
0
40
1
40
1
40
1
10
-31.302024837569885
20
15.134393215180054
30
0
10
-30.898844715194397
20
15.763005256653443
30
0
10
-30.595376010970764
20
15.968930363655701
30
0
0
SPLINE
5
219
100
AcDbEntity
8
0
100
AcDbSpline
70
0
71
2
72
6
73
3
74
0
42
0.000000001
43
0.0000000001
44
0.0000000001
40
0
40
0
40
0
40
1
40
1
40
1
10
-30.595376010970764
20
15.968930363655701
30
0
10
-30.291907306747131
20
16.17485547065796
30
0
10
-30.010115619735412
20
16.17485547065796
30
0
0
SPLINE
5
220
100
AcDbEntity
8
0
100
AcDbSpline
70
0
71
2
72
6
73
3
74
0
42
0.000000001
43
0.0000000001
44
0.0000000001
40
0
40
0
40
0
40
1
40
1
40
1
10
-30.010115619735412
20
16.17485547065796
30
0
10
-29.767341133193664
20
16.17485547065796
30
0
10
-29.622110839919738
20
16.025288343430176
30
0
0
SPLINE
5
221
100
AcDbEntity
8
0
100
AcDbSpline
70
0
71
2
72
6
73
3
74
0
42
0.000000001
43
0.0000000001
44
0.0000000001
40
0
40
0
40
0
40
1
40
1
40
1
10
-29.622110839919738
20
16.025288343430176
30
0
10
-29.476878162460022
20
15.875722408295289
30
0
10
-29.476878162460022
20
15.602600812912598
30
0
0
SPLINE
5
222
100
AcDbEntity
8
0
100
AcDbSpline
70
0
71
2
72
6
73
3
74
0
42
0.000000001
43
0.0000000001
44
0.0000000001
40
0
40
0
40
0
40
1
40
1
40
1
10
-29.476878162460022
20
15.602600812912598
30
0
10
-29.476878162460022
20
15.312139034271851
30
0
10
-29.617774005965881
20
15.151733398438111
30
0
0
SPLINE
5
223
100
AcDbEntity
8
0
100
AcDbSpline
70
0
71
2
72
6
73
3
74
0
42
0.000000001
43
0.0000000001
44
0.0000000001
40
0
40
0
40
0
40
1
40
1
40
1
10
-29.617774005965881
20
15.151733398438111
30
0
10
-29.75866984947174
20
14.991328954697266
30
0
10
-29.958092685775451
20
14.991328954697266
30
0
0
SPLINE
5
224
100
AcDbEntity
8
0
100
AcDbSpline
70
0
71
2
72
6
73
3
74
0
42
0.000000001
43
0.0000000001
44
0.0000000001
40
0
40
0
40
0
40
1
40
1
40
1
10
-29.958092685775451
20
14.991328954697266
30
0
10
-30.187861438827209
20
14.991328954697266
30
0
10
-30.356938358382873
20
15.138727664948121
30
0
0
SPLINE
5
225
100
AcDbEntity
8
0
100
AcDbSpline
70
0
71
2
72
6
73
3
74
0
42
0.000000001
43
0.0000000001
44
0.0000000001
40
0
40
0
40
0
40
1
40
1
40
1
10
-30.356938358382873
20
15.138727664948121
30
0
10
-30.526012893752746
20
15.286127567291871
30
0
10
-30.556358810500793
20
15.303467750549927
30
0
0
SPLINE
5
226
100
AcDbEntity
8
0
100
AcDbSpline
70
0
71
2
72
6
73
3
74
0
42
0.000000001
43
0.0000000001
44
0.0000000001
40
0
40
0
40
0
40
1
40
1
40
1
10
-30.556358810500793
20
15.303467750549927
30
0
10
-30.59971046073883
20
15.329479217529908
30
0
10
-30.656070228652649
20
15.329479217529908
30
0
0
SPLINE
5
227
100
AcDbEntity
8
0
100
AcDbSpline
70
0
71
2
72
6
73
3
74
0
42
0.000000001
43
0.0000000001
44
0.0000000001
40
0
40
0
40
0
40
1
40
1
40
1
10
-30.656070228652649
20
15.329479217529908
30
0
10
-30.781793113784484
20
15.329479217529908
30
0
10
-30.89451026542633
20
15.234103441239014
30
0
0
SPLINE
5
228
100
AcDbEntity
8
0
100
AcDbSpline
70
0
71
2
72
6
73
3
74
0
42
0.000000001
43
0.0000000001
44
0.0000000001
40
0
40
0
40
0
40
1
40
1
40
1
10
-30.89451026542633
20
15.234103441239014
30
0
10
-31.072256084518127
20
15.08670473098816
30
0
10
-31.163296218948059
20
14.813583135605469
30
0
0
SPLINE
5
229
100
AcDbEntity
8
0
100
AcDbSpline
70
0
71
2
72
6
73
3
74
0
42
0.000000001
43
0.0000000001
44
0.0000000001
40
0
40
0
40
0
40
1
40
1
40
1
10
-31.163296218948059
20
14.813583135605469
30
0
10
-31.302024837569885
20
14.393062829971925
30
0
10
-31.302024837569885
20
13.88583803176941
30
0
0
LINE
5
230
100
AcDbEntity
8
0
100
AcDbLine
10
-31.302024837569885
20
13.88583803176941
30
0
11
-31.302024837569885
21
12.953757286072388
31
0
0
LINE
5
231
100
AcDbEntity
8
0
100
AcDbLine
10
-31.302024837569885
20
12.953757286072388
30
0
11
-31.297690387801818
21
12.71098279953064
31
0
0
SPLINE
5
232
100
AcDbEntity
8
0
100
AcDbSpline
70
0
71
2
72
6
73
3
74
0
42
0.000000001
43
0.0000000001
44
0.0000000001
40
0
40
0
40
0
40
1
40
1
40
1
10
-31.297690387801818
20
12.71098279953064
30
0
10
-31.297690387801818
20
12.46387267112793
30
0
10
-31.267342086867981
20
12.394508361817017
30
0
0
SPLINE
5
233
100
AcDbEntity
8
0
100
AcDbSpline
70
0
71
2
72
6
73
3
74
0
42
0.000000001
43
0.0000000001
44
0.0000000001
40
0
40
0
40
0
40
1
40
1
40
1
10
-31.267342086867981
20
12.394508361817017
30
0
10
-31.21531915290802
20
12.277456760407105
30
0
10
-31.113440509872131
20
12.223265409470216
30
0
0
SPLINE
5
234
100
AcDbEntity
8
0
100
AcDbSpline
70
0
71
2
72
6
73
3
74
0
42
0.000000001
43
0.0000000001
44
0.0000000001
40
0
40
0
40
0
40
1
40
1
40
1
10
-31.113440509872131
20
12.223265409470216
30
0
10
-31.011561866836242
20
12.169075250626221
30
0
10
-30.768787380294494
20
12.156068325043336
30
0
0
LINE
5
235
100
AcDbEntity
8
0
100
AcDbLine
10
-30.768787380294494
20
12.156068325043336
30
0
11
-30.768787380294494
21
11.999999523163453
31
0
0
LINE
5
236
100
AcDbEntity
8
0
100
AcDbLine
10
-30.768787380294494
20
11.999999523163453
30
0
11
-32.958094593124081
21
11.999999523163453
31
0
0
LINE
5
237
100
AcDbEntity
8
0
100
AcDbLine
10
-32.958094593124081
20
11.999999523163453
30
0
11
-32.958094593124081
21
12.156068325043336
31
0
0
SPLINE
5
238
100
AcDbEntity
8
0
100
AcDbSpline
70
0
71
2
72
6
73
3
74
0
42
0.000000001
43
0.0000000001
44
0.0000000001
40
0
40
0
40
0
40
1
40
1
40
1
10
-32.958094593124081
20
12.156068325043336
30
0
10
-32.693643089370418
20
12.17774534225525
30
0
10
-32.600433345870663
20
12.301299810410157
30
0
0
SPLINE
5
239
100
AcDbEntity
8
0
100
AcDbSpline
70
0
71
2
72
6
73
3
74
0
42
0.000000001
43
0.0000000001
44
0.0000000001
40
0
40
0
40
0
40
1
40
1
40
1
10
-32.600433345870663
20
12.301299810410157
30
0
10
-32.507225986556698
20
12.42485547065796
30
0
10
-32.507225986556698
20
12.953757286072388
30
0
0
LINE
5
240
100
AcDbEntity
8
0
100
AcDbLine
10
-32.507225986556698
20
12.953757286072388
30
0
11
-32.507225986556698
21
15.195086240769044
31
0
0
SPLINE
5
241
100
AcDbEntity
8
0
100
AcDbSpline
70
0
71
2
72
6
73
3
74
0
42
0.000000001
43
0.0000000001
44
0.0000000001
40
0
40
0
40
0
40
1
40
1
40
1
10
-32.507225986556698
20
15.195086240769044
30
0
10
-32.507225986556698
20
15.541907787323609
30
0
10
-32.541908737258602
20
15.637282371521607
30
0
0
SPLINE
5
242
100
AcDbEntity
8
0
100
AcDbSpline
70
0
71
2
72
6
73
3
74
0
42
0.000000001
43
0.0000000001
44
0.0000000001
40
0
40
0
40
0
40
1
40
1
40
1
10
-32.541908737258602
20
15.637282371521607
30
0
10
-32.585260387496639
20
15.758670806885377
30
0
10
-32.667629238204647
20
15.815028190613404
30
0
0
SPLINE
5
243
100
AcDbEntity
8
0
100
AcDbSpline
70
0
71
2
72
6
73
3
74
0
42
0.000000001
43
0.0000000001
44
0.0000000001
40
0
40
0
40
0
40
1
40
1
40
1
10
-32.667629238204647
20
15.815028190613404
30
0
10
-32.750000473098446
20
15.871386766434327
30
0
10
-32.958094593124081
20
15.893062591553345
30
0
0
LINE
5
244
100
AcDbEntity
8
0
100
AcDbLine
10
-32.958094593124081
20
15.893062591553345
30
0
11
-32.958094593124081
21
16.053468227387086
31
0
0
LINE
5
245
100
AcDbEntity
8
0
100
AcDbLine
10
-32.958094593124081
20
16.053468227387086
30
0
11
-31.302024837569885
21
16.053468227387086
31
0
0
LINE
5
246
100
AcDbEntity
8
0
100
AcDbLine
10
-27.434970851974182
20
17.536126613617554
30
0
11
-27.434970851974182
21
16.053468227387086
31
0
0
LINE
5
247
100
AcDbEntity
8
0
100
AcDbLine
10
-27.434970851974182
20
16.053468227387086
30
0
11
-26.472544189529113
21
16.053468227387086
31
0
0
LINE
5
248
100
AcDbEntity
8
0
100
AcDbLine
10
-26.472544189529113
20
16.053468227387086
30
0
11
-26.472544189529113
21
15.624276638031617
31
0
0
LINE
5
249
100
AcDbEntity
8
0
100
AcDbLine
10
-26.472544189529113
20
15.624276638031617
30
0
11
-27.434970851974182
21
15.624276638031617
31
0
0
LINE
5
250
100
AcDbEntity
8
0
100
AcDbLine
10
-27.434970851974182
20
15.624276638031617
30
0
11
-27.434970851974182
21
13.122831821442261
31
0
0
SPLINE
5
251
100
AcDbEntity
8
0
100
AcDbSpline
70
0
71
2
72
6
73
3
74
0
42
0.000000001
43
0.0000000001
44
0.0000000001
40
0
40
0
40
0
40
1
40
1
40
1
10
-27.434970851974182
20
13.122831821442261
30
0
10
-27.434970851974182
20
12.77167582511963
30
0
10
-27.402457710342102
20
12.669797182083741
30
0
0
SPLINE
5
252
100
AcDbEntity
8
0
100
AcDbSpline
70
0
71
2
72
6
73
3
74
0
42
0.000000001
43
0.0000000001
44
0.0000000001
40
0
40
0
40
0
40
1
40
1
40
1
10
-27.402457710342102
20
12.669797182083741
30
0
10
-27.369942184524231
20
12.567918539047852
30
0
10
-27.287573333816223
20
12.505057096481934
30
0
0
SPLINE
5
253
100
AcDbEntity
8
0
100
AcDbSpline
70
0
71
2
72
6
73
3
74
0
42
0.000000001
43
0.0000000001
44
0.0000000001
40
0
40
0
40
0
40
1
40
1
40
1
10
-27.287573333816223
20
12.505057096481934
30
0
10
-27.205202098922424
20
12.442195653916016
30
0
10
-27.135838981704406
20
12.442195653916016
30
0
0
SPLINE
5
254
100
AcDbEntity
8
0
100
AcDbSpline
70
0
71
2
72
6
73
3
74
0
42
0.000000001
43
0.0000000001
44
0.0000000001
40
0
40
0
40
0
40
1
40
1
40
1
10
-27.135838981704406
20
12.442195653916016
30
0
10
-26.854047294692688
20
12.442195653916016
30
0
10
-26.602601524429016
20
12.871387243271485
30
0
0
LINE
5
255
100
AcDbEntity
8
0
100
AcDbLine
10
-26.602601524429016
20
12.871387243271485
30
0
11
-26.472544189529113
21
12.776011466980592
31
0
0
SPLINE
5
256
100
AcDbEntity
8
0
100
AcDbSpline
70
0
71
2
72
6
73
3
74
0
42
0.000000001
43
0.0000000001
44
0.0000000001
40
0
40
0
40
0
40
1
40
1
40
1
10
-26.472544189529113
20
12.776011466980592
30
0
10
-26.82369899375885
20
11.94364094734253
30
0
10
-27.612716671065979
20
11.94364094734253
30
0
0
SPLINE
5
257
100
AcDbEntity
8
0
100
AcDbSpline
70
0
71
2
72
6
73
3
74
0
42
0.000000001
43
0.0000000001
44
0.0000000001
40
0
40
0
40
0
40
1
40
1
40
1
10
-27.612716671065979
20
11.94364094734253
30
0
10
-27.998554225997619
20
11.94364094734253
30
0
10
-28.265172954635315
20
12.158236742020264
30
0
0
SPLINE
5
258
100
AcDbEntity
8
0
100
AcDbSpline
70
0
71
2
72
6
73
3
74
0
42
0.000000001
43
0.0000000001
44
0.0000000001
40
0
40
0
40
0
40
1
40
1
40
1
10
-28.265172954635315
20
12.158236742020264
30
0
10
-28.53179168327301
20
12.372831344605103
30
0
10
-28.605491634444885
20
12.637282848358765
30
0
0
SPLINE
5
259
100
AcDbEntity
8
0
100
AcDbSpline
70
0
71
2
72
6
73
3
74
0
42
0.000000001
43
0.0000000001
44
0.0000000001
40
0
40
0
40
0
40
1
40
1
40
1
10
-28.605491634444885
20
12.637282848358765
30
0
10
-28.648845668868713
20
12.78468155860962
30
0
10
-28.648845668868713
20
13.434970617294923
30
0
0
LINE
5
260
100
AcDbEntity
8
0
100
AcDbLine
10
-28.648845668868713
20
13.434970617294923
30
0
11
-28.648845668868713
21
15.624276638031617
31
0
0
LINE
5
261
100
AcDbEntity
8
0
100
AcDbLine
10
-28.648845668868713
20
15.624276638031617
30
0
11
-29.177746292190246
21
15.624276638031617
31
0
0
LINE
5
262
100
AcDbEntity
8
0
100
AcDbLine
10
-29.177746292190246
20
15.624276638031617
30
0
11
-29.177746292190246
21
15.776010990143433
31
0
0
SPLINE
5
263
100
AcDbEntity
8
0
100
AcDbSpline
70
0
71
2
72
6
73
3
74
0
42
0.000000001
43
0.0000000001
44
0.0000000001
40
0
40
0
40
0
40
1
40
1
40
1
10
-29.177746292190246
20
15.776010990143433
30
0
10
-28.631503101424865
20
16.161849737167969
30
0
10
-28.247832771377258
20
16.586705088616029
30
0
0
SPLINE
5
264
100
AcDbEntity
8
0
100
AcDbSpline
70
0
71
2
72
6
73
3
74
0
42
0.000000001
43
0.0000000001
44
0.0000000001
40
0
40
0
40
0
40
1
40
1
40
1
10
-28.247832771377258
20
16.586705088616029
30
0
10
-27.86416244132965
20
17.011560440064088
30
0
10
-27.578036304549865
20
17.536126613617554
30
0
0
LINE
5
265
100
AcDbEntity
8
0
100
AcDbLine
10
-27.578036304549865
20
17.536126613617554
30
0
11
-27.434970851974182
21
17.536126613617554
31
0
0
LINE
5
266
100
AcDbEntity
8
0
100
AcDbLine
10
-19.995665069656066
20
18.013005495072022
30
0
11
-19.947976585464172
21
16.053468227387086
31
0
0
LINE
5
267
100
AcDbEntity
8
0
100
AcDbLine
10
-19.947976585464172
20
16.053468227387086
30
0
11
-20.125722404555969
21
16.053468227387086
31
0
0
SPLINE
5
268
100
AcDbEntity
8
0
100
AcDbSpline
70
0
71
2
72
6
73
3
74
0
42
0.000000001
43
0.0000000001
44
0.0000000001
40
0
40
0
40
0
40
1
40
1
40
1
10
-20.125722404555969
20
16.053468227387086
30
0
10
-20.251445289687805
20
16.790462374687806
30
0
10
-20.743498321609191
20
17.239161968231812
30
0
0
SPLINE
5
269
100
AcDbEntity
8
0
100
AcDbSpline
70
0
71
2
72
6
73
3
74
0
42
0.000000001
43
0.0000000001
44
0.0000000001
40
0
40
0
40
0
40
1
40
1
40
1
10
-20.743498321609191
20
17.239161968231812
30
0
10
-21.235548969344787
20
17.687860965729371
30
0
10
-21.807803627090149
20
17.687860965729371
30
0
0
SPLINE
5
270
100
AcDbEntity
8
0
100
AcDbSpline
70
0
71
2
72
6
73
3
74
0
42
0.000000001
43
0.0000000001
44
0.0000000001
40
0
40
0
40
0
40
1
40
1
40
1
10
-21.807803627090149
20
17.687860965729371
30
0
10
-22.250000949935608
20
17.687860965729371
30
0
10
-22.507948394851379
20
17.451589345932618
30
0
0
SPLINE
5
271
100
AcDbEntity
8
0
100
AcDbSpline
70
0
71
2
72
6
73
3
74
0
42
0.000000001
43
0.0000000001
44
0.0000000001
40
0
40
0
40
0
40
1
40
1
40
1
10
-22.507948394851379
20
17.451589345932618
30
0
10
-22.76589583976715
20
17.215317726135865
30
0
10
-22.76589583976715
20
16.907514572144166
30
0
0
SPLINE
5
272
100
AcDbEntity
8
0
100
AcDbSpline
70
0
71
2
72
6
73
3
74
0
42
0.000000001
43
0.0000000001
44
0.0000000001
40
0
40
0
40
0
40
1
40
1
40
1
10
-22.76589583976715
20
16.907514572144166
30
0
10
-22.76589583976715
20
16.712427377701417
30
0
10
-22.674855705337219
20
16.560693621636048
30
0
0
SPLINE
5
273
100
AcDbEntity
8
0
100
AcDbSpline
70
0
71
2
72
6
73
3
74
0
42
0.000000001
43
0.0000000001
44
0.0000000001
40
0
40
0
40
0
40
1
40
1
40
1
10
-22.674855705337219
20
16.560693621636048
30
0
10
-22.549132820205383
20
16.356936335564271
30
0
10
-22.271677967147522
20
16.157514095307008
30
0
0
SPLINE
5
274
100
AcDbEntity
8
0
100
AcDbSpline
70
0
71
2
72
6
73
3
74
0
42
0.000000001
43
0.0000000001
44
0.0000000001
40
0
40
0
40
0
40
1
40
1
40
1
10
-22.271677967147522
20
16.157514095307008
30
0
10
-22.067920681075744
20
16.014451026917115
30
0
10
-21.330925937728576
20
15.650289297104493
30
0
0
SPLINE
5
275
100
AcDbEntity
8
0
100
AcDbSpline
70
0
71
2
72
6
73
3
74
0
42
0.000000001
43
0.0000000001
44
0.0000000001
40
0
40
0
40
0
40
1
40
1
40
1
10
-21.330925937728576
20
15.650289297104493
30
0
10
-20.299133773879699
20
15.143063306809083
30
0
10
-19.939307685928039
20
14.692195892334595
30
0
0
SPLINE
5
276
100
AcDbEntity
8
0
100
AcDbSpline
70
0
71
2
72
6
73
3
74
0
42
0.000000001
43
0.0000000001
44
0.0000000001
40
0
40
0
40
0
40
1
40
1
40
1
10
-19.939307685928039
20
14.692195892334595
30
0
10
-19.583816047744445
20
14.241329669953004
30
0
10
-19.583816047744445
20
13.660403728485718
30
0
0
SPLINE
5
277
100
AcDbEntity
8
0
100
AcDbSpline
70
0
71
2
72
6
73
3
74
0
42
0.000000001
43
0.0000000001
44
0.0000000001
40
0
40
0
40
0
40
1
40
1
40
1
10
-19.583816047744445
20
13.660403728485718
30
0
10
-19.583816047744445
20
12.923410177231446
30
0
10
-20.15823793037384
20
12.392341136932984
30
0
0
SPLINE
5
278
100
AcDbEntity
8
0
100
AcDbSpline
70
0
71
2
72
6
73
3
74
0
42
0.000000001
43
0.0000000001
44
0.0000000001
40
0
40
0
40
0
40
1
40
1
40
1
10
-20.15823793037384
20
12.392341136932984
30
0
10
-20.732659813003234
20
11.861270904541627
30
0
10
-21.617052074508361
20
11.861270904541627
30
0
0
SPLINE
5
279
100
AcDbEntity
8
0
100
AcDbSpline
70
0
71
2
72
6
73
3
74
0
42
0.000000001
43
0.0000000001
44
0.0000000001
40
0
40
0
40
0
40
1
40
1
40
1
10
-21.617052074508361
20
11.861270904541627
30
0
10
-21.894509311752014
20
11.861270904541627
30
0
10
-22.141618248061828
20
11.91762948036255
30
0
0
SPLINE
5
280
100
AcDbEntity
8
0
100
AcDbSpline
70
0
71
2
72
6
73
3
74
0
42
0.000000001
43
0.0000000001
44
0.0000000001
40
0
40
0
40
0
40
1
40
1
40
1
10
-22.141618248061828
20
11.91762948036255
30
0
10
-22.388729568557434
20
11.973988056183472
30
0
10
-22.761561389999084
20
12.130056858063355
30
0
0
SPLINE
5
281
100
AcDbEntity
8
0
100
AcDbSpline
70
0
71
2
72
6
73
3
74
0
42
0.000000001
43
0.0000000001
44
0.0000000001
40
0
40
0
40
0
40
1
40
1
40
1
10
-22.761561389999084
20
12.130056858063355
30
0
10
-22.969653125838928
20
12.21676254272522
30
0
10
-23.104047294692688
20
12.21676254272522
30
0
0
SPLINE
5
282
100
AcDbEntity
8
0
100
AcDbSpline
70
0
71
2
72
6
73
3
74
0
42
0.000000001
43
0.0000000001
44
0.0000000001
40
0
40
0
40
0
40
1
40
1
40
1
10
-23.104047294692688
20
12.21676254272522
30
0
10
-23.216764446334533
20
12.21676254272522
30
0
10
-23.342484947280578
20
12.130056858063355
30
0
0
SPLINE
5
283
100
AcDbEntity
8
0
100
AcDbSpline
70
0
71
2
72
6
73
3
74
0
42
0.000000001
43
0.0000000001
44
0.0000000001
40
0
40
0
40
0
40
1
40
1
40
1
10
-23.342484947280578
20
12.130056858063355
30
0
10
-23.468207832412414
20
12.043352365494385
30
0
10
-23.546242233352356
20
11.865606546402589
30
0
0
LINE
5
284
100
AcDbEntity
8
0
100
AcDbLine
10
-23.546242233352356
20
11.865606546402589
30
0
11
-23.706647869186096
21
11.865606546402589
31
0
0
LINE
5
285
100
AcDbEntity
8
0
100
AcDbLine
10
-23.706647869186096
20
11.865606546402589
30
0
11
-23.706647869186096
21
14.085259675980225
31
0
0
LINE
5
286
100
AcDbEntity
8
0
100
AcDbLine
10
-23.706647869186096
20
14.085259675980225
30
0
11
-23.546242233352356
21
14.085259675980225
31
0
0
SPLINE
5
287
100
AcDbEntity
8
0
100
AcDbSpline
70
0
71
2
72
6
73
3
74
0
42
0.000000001
43
0.0000000001
44
0.0000000001
40
0
40
0
40
0
40
1
40
1
40
1
10
-23.546242233352356
20
14.085259675980225
30
0
10
-23.355490680770568
20
13.148843288422242
30
0
10
-22.811417099075012
20
12.656791448593751
30
0
0
SPLINE
5
288
100
AcDbEntity
8
0
100
AcDbSpline
70
0
71
2
72
6
73
3
74
0
42
0.000000001
43
0.0000000001
44
0.0000000001
40
0
40
0
40
0
40
1
40
1
40
1
10
-22.811417099075012
20
12.656791448593751
30
0
10
-22.267341133193664
20
12.16473960876526
30
0
10
-21.638729091720275
20
12.16473960876526
30
0
0
SPLINE
5
289
100
AcDbEntity
8
0
100
AcDbSpline
70
0
71
2
72
6
73
3
74
0
42
0.000000001
43
0.0000000001
44
0.0000000001
40
0
40
0
40
0
40
1
40
1
40
1
10
-21.638729091720275
20
12.16473960876526
30
0
10
-21.153180118636779
20
12.16473960876526
30
0
10
-20.86488437278717
20
12.429189920426026
30
0
0
SPLINE
5
290
100
AcDbEntity
8
0
100
AcDbSpline
70
0
71
2
72
6
73
3
74
0
42
0.000000001
43
0.0000000001
44
0.0000000001
40
0
40
0
40
0
40
1
40
1
40
1
10
-20.86488437278717
20
12.429189920426026
30
0
10
-20.576588626937561
20
12.693641424179688
30
0
10
-20.576588626937561
20
13.04479742050232
30
0
0
SPLINE
5
291
100
AcDbEntity
8
0
100
AcDbSpline
70
0
71
2
72
6
73
3
74
0
42
0.000000001
43
0.0000000001
44
0.0000000001
40
0
40
0
40
0
40
1
40
1
40
1
10
-20.576588626937561
20
13.04479742050232
30
0
10
-20.576588626937561
20
13.252890348435059
30
0
10
-20.687138553695373
20
13.447976350784913
30
0
0
SPLINE
5
292
100
AcDbEntity
8
0
100
AcDbSpline
70
0
71
2
72
6
73
3
74
0
42
0.000000001
43
0.0000000001
44
0.0000000001
40
0
40
0
40
0
40
1
40
1
40
1
10
-20.687138553695373
20
13.447976350784913
30
0
10
-20.797688480453186
20
13.643063545227662
30
0
10
-21.023122783736877
20
13.81864094734253
30
0
0
SPLINE
5
293
100
AcDbEntity
8
0
100
AcDbSpline
70
0
71
2
72
6
73
3
74
0
42
0.000000001
43
0.0000000001
44
0.0000000001
40
0
40
0
40
0
40
1
40
1
40
1
10
-21.023122783736877
20
13.81864094734253
30
0
10
-21.248554702834777
20
13.994219541550294
30
0
10
-21.820809360580139
20
14.276011228562012
30
0
0
SPLINE
5
294
100
AcDbEntity
8
0
100
AcDbSpline
70
0
71
2
72
6
73
3
74
0
42
0.000000001
43
0.0000000001
44
0.0000000001
40
0
40
0
40
0
40
1
40
1
40
1
10
-21.820809360580139
20
14.276011228562012
30
0
10
-22.622832771377258
20
14.670520067215577
30
0
10
-22.973989959792785
20
14.947976112366334
30
0
0
SPLINE
5
295
100
AcDbEntity
8
0
100
AcDbSpline
70
0
71
2
72
6
73
3
74
0
42
0.000000001
43
0.0000000001
44
0.0000000001
40
0
40
0
40
0
40
1
40
1
40
1
10
-22.973989959792785
20
14.947976112366334
30
0
10
-23.325144764022522
20
15.225433349609986
30
0
10
-23.513729091720275
20
15.56791925430359
30
0
0
SPLINE
5
296
100
AcDbEntity
8
0
100
AcDbSpline
70
0
71
2
72
6
73
3
74
0
42
0.000000001
43
0.0000000001
44
0.0000000001
40
0
40
0
40
0
40
1
40
1
40
1
10
-23.513729091720275
20
15.56791925430359
30
0
10
-23.702313419418029
20
15.910405158997193
30
0
10
-23.702313419418029
20
16.322254180908814
30
0
0
SPLINE
5
297
100
AcDbEntity
8
0
100
AcDbSpline
70
0
71
2
72
6
73
3
74
0
42
0.000000001
43
0.0000000001
44
0.0000000001
40
0
40
0
40
0
40
1
40
1
40
1
10
-23.702313419418029
20
16.322254180908814
30
0
10
-23.702313419418029
20
17.024566173554078
30
0
10
-23.186416145400695
20
17.51878583431305
30
0
0
SPLINE
5
298
100
AcDbEntity
8
0
100
AcDbSpline
70
0
71
2
72
6
73
3
74
0
42
0.000000001
43
0.0000000001
44
0.0000000001
40
0
40
0
40
0
40
1
40
1
40
1
10
-23.186416145400695
20
17.51878583431305
30
0
10
-22.670521255569152
20
18.013005495072022
30
0
10
-21.88583802803009
20
18.013005495072022
30
0
0
SPLINE
5
299
100
AcDbEntity
8
0
100
AcDbSpline
70
0
71
2
72
6
73
3
74
0
42
0.000000001
43
0.0000000001
44
0.0000000001
40
0
40
0
40
0
40
1
40
1
40
1
10
-21.88583802803009
20
18.013005495072022
30
0
10
-21.599711891250305
20
18.013005495072022
30
0
10
-21.330925937728576
20
17.943641781807557
30
0
0
SPLINE
5
300
100
AcDbEntity
8
0
100
AcDbSpline
70
0
71
2
72
6
73
3
74
0
42
0.000000001
43
0.0000000001
44
0.0000000001
40
0
40
0
40
0
40
1
40
1
40
1
10
-21.330925937728576
20
17.943641781807557
30
0
10
-21.127168651656799
20
17.891618251801148
30
0
10
-20.834538456039123
20
17.750722408295289
30
0
0
SPLINE
5
301
100
AcDbEntity
8
0
100
AcDbSpline
70
0
71
2
72
6
73
3
74
0
42
0.000000001
43
0.0000000001
44
0.0000000001
40
0
40
0
40
0
40
1
40
1
40
1
10
-20.834538456039123
20
17.750722408295289
30
0
10
-20.541908260421447
20
17.609826564789429
30
0
10
-20.424856659011535
20
17.609826564789429
30
0
0
SPLINE
5
302
100
AcDbEntity
8
0
100
AcDbSpline
70
0
71
2
72
6
73
3
74
0
42
0.000000001
43
0.0000000001
44
0.0000000001
40
0
40
0
40
0
40
1
40
1
40
1
10
-20.424856659011535
20
17.609826564789429
30
0
10
-20.31213950736969
20
17.609826564789429
30
0
10
-20.247110839919738
20
17.679190874100343
30
0
0
SPLINE
5
303
100
AcDbEntity
8
0
100
AcDbSpline
70
0
71
2
72
6
73
3
74
0
42
0.000000001
43
0.0000000001
44
0.0000000001
40
0
40
0
40
0
40
1
40
1
40
1
10
-20.247110839919738
20
17.679190874100343
30
0
10
-20.182082172469787
20
17.748554587364808
30
0
10
-20.125722404555969
20
18.013005495072022
30
0
0
LINE
5
304
100
AcDbEntity
8
0
100
AcDbLine
10
-20.125722404555969
20
18.013005495072022
30
0
11
-19.995665069656066
21
18.013005495072022
31
0
0
LINE
5
305
100
AcDbEntity
8
0
100
AcDbLine
10
-17.320808883742981
20
17.536126613617554
30
0
11
-17.320808883742981
21
16.053468227387086
31
0
0
LINE
5
306
100
AcDbEntity
8
0
100
AcDbLine
10
-17.320808883742981
20
16.053468227387086
30
0
11
-16.358382221297912
21
16.053468227387086
31
0
0
LINE
5
307
100
AcDbEntity
8
0
100
AcDbLine
10
-16.358382221297912
20
16.053468227387086
30
0
11
-16.358382221297912
21
15.624276638031617
31
0
0
LINE
5
308
100
AcDbEntity
8
0
100
AcDbLine
10
-16.358382221297912
20
15.624276638031617
30
0
11
-17.320808883742981
21
15.624276638031617
31
0
0
LINE
5
309
100
AcDbEntity
8
0
100
AcDbLine
10
-17.320808883742981
20
15.624276638031617
30
0
11
-17.320808883742981
21
13.122831821442261
31
0
0
SPLINE
5
310
100
AcDbEntity
8
0
100
AcDbSpline
70
0
71
2
72
6
73
3
74
0
42
0.000000001
43
0.0000000001
44
0.0000000001
40
0
40
0
40
0
40
1
40
1
40
1
10
-17.320808883742981
20
13.122831821442261
30
0
10
-17.320808883742981
20
12.77167582511963
30
0
10
-17.2882957421109
20
12.669797182083741
30
0
0
SPLINE
5
311
100
AcDbEntity
8
0
100
AcDbSpline
70
0
71
2
72
6
73
3
74
0
42
0.000000001
43
0.0000000001
44
0.0000000001
40
0
40
0
40
0
40
1
40
1
40
1
10
-17.2882957421109
20
12.669797182083741
30
0
10
-17.255780216293029
20
12.567918539047852
30
0
10
-17.173411365585022
20
12.505057096481934
30
0
0
SPLINE
5
312
100
AcDbEntity
8
0
100
AcDbSpline
70
0
71
2
72
6
73
3
74
0
42
0.000000001
43
0.0000000001
44
0.0000000001
40
0
40
0
40
0
40
1
40
1
40
1
10
-17.173411365585022
20
12.505057096481934
30
0
10
-17.091040130691223
20
12.442195653916016
30
0
10
-17.021677013473205
20
12.442195653916016
30
0
0
SPLINE
5
313
100
AcDbEntity
8
0
100
AcDbSpline
70
0
71
2
72
6
73
3
74
0
42
0.000000001
43
0.0000000001
44
0.0000000001
40
0
40
0
40
0
40
1
40
1
40
1
10
-17.021677013473205
20
12.442195653916016
30
0
10
-16.739885326461486
20
12.442195653916016
30
0
10
-16.488439556197815
20
12.871387243271485
30
0
0
LINE
5
314
100
AcDbEntity
8
0
100
AcDbLine
10
-16.488439556197815
20
12.871387243271485
30
0
11
-16.358382221297912
21
12.776011466980592
31
0
0
SPLINE
5
315
100
AcDbEntity
8
0
100
AcDbSpline
70
0
71
2
72
6
73
3
74
0
42
0.000000001
43
0.0000000001
44
0.0000000001
40
0
40
0
40
0
40
1
40
1
40
1
10
-16.358382221297912
20
12.776011466980592
30
0
10
-16.709537025527649
20
11.94364094734253
30
0
10
-17.498554702834777
20
11.94364094734253
30
0
0
SPLINE
5
316
100
AcDbEntity
8
0
100
AcDbSpline
70
0
71
2
72
6
73
3
74
0
42
0.000000001
43
0.0000000001
44
0.0000000001
40
0
40
0
40
0
40
1
40
1
40
1
10
-17.498554702834777
20
11.94364094734253
30
0
10
-17.884394641952209
20
11.94364094734253
30
0
10
-18.151010986404113
20
12.158236742020264
30
0
0
SPLINE
5
317
100
AcDbEntity
8
0
100
AcDbSpline
70
0
71
2
72
6
73
3
74
0
42
0.000000001
43
0.0000000001
44
0.0000000001
40
0
40
0
40
0
40
1
40
1
40
1
10
-18.151010986404113
20
12.158236742020264
30
0
10
-18.417629715041809
20
12.372831344605103
30
0
10
-18.491329666213684
20
12.637282848358765
30
0
0
SPLINE
5
318
100
AcDbEntity
8
0
100
AcDbSpline
70
0
71
2
72
6
73
3
74
0
42
0.000000001
43
0.0000000001
44
0.0000000001
40
0
40
0
40
0
40
1
40
1
40
1
10
-18.491329666213684
20
12.637282848358765
30
0
10
-18.534683700637512
20
12.78468155860962
30
0
10
-18.534683700637512
20
13.434970617294923
30
0
0
LINE
5
319
100
AcDbEntity
8
0
100
AcDbLine
10
-18.534683700637512
20
13.434970617294923
30
0
11
-18.534683700637512
21
15.624276638031617
31
0
0
LINE
5
320
100
AcDbEntity
8
0
100
AcDbLine
10
-18.534683700637512
20
15.624276638031617
30
0
11
-19.063584323959045
21
15.624276638031617
31
0
0
LINE
5
321
100
AcDbEntity
8
0
100
AcDbLine
10
-19.063584323959045
20
15.624276638031617
30
0
11
-19.063584323959045
21
15.776010990143433
31
0
0
SPLINE
5
322
100
AcDbEntity
8
0
100
AcDbSpline
70
0
71
2
72
6
73
3
74
0
42
0.000000001
43
0.0000000001
44
0.0000000001
40
0
40
0
40
0
40
1
40
1
40
1
10
-19.063584323959045
20
15.776010990143433
30
0
10
-18.517341133193664
20
16.161849737167969
30
0
10
-18.133670803146057
20
16.586705088616029
30
0
0
SPLINE
5
323
100
AcDbEntity
8
0
100
AcDbSpline
70
0
71
2
72
6
73
3
74
0
42
0.000000001
43
0.0000000001
44
0.0000000001
40
0
40
0
40
0
40
1
40
1
40
1
10
-18.133670803146057
20
16.586705088616029
30
0
10
-17.750000473098449
20
17.011560440064088
30
0
10
-17.463874336318664
20
17.536126613617554
30
0
0
LINE
5
324
100
AcDbEntity
8
0
100
AcDbLine
10
-17.463874336318664
20
17.536126613617554
30
0
11
-17.320808883742981
21
17.536126613617554
31
0
0
SPLINE
5
325
100
AcDbEntity
8
0
100
AcDbSpline
70
0
71
2
72
6
73
3
74
0
42
0.000000001
43
0.0000000001
44
0.0000000001
40
0
40
0
40
0
40
1
40
1
40
1
10
-14.060694690780334
20
16.17485547065796
30
0
10
-13.531791683273005
20
16.17485547065796
30
0
10
-13.076588626937555
20
15.901733875275269
30
0
0
SPLINE
5
326
100
AcDbEntity
8
0
100
AcDbSpline
70
0
71
2
72
6
73
3
74
0
42
0.000000001
43
0.0000000001
44
0.0000000001
40
0
40
0
40
0
40
1
40
1
40
1
10
-13.076588626937555
20
15.901733875275269
30
0
10
-12.621390338973688
20
15.628612279892579
30
0
10
-12.38511752708404
20
15.125721931458131
30
0
0
SPLINE
5
327
100
AcDbEntity
8
0
100
AcDbSpline
70
0
71
2
72
6
73
3
74
0
42
0.000000001
43
0.0000000001
44
0.0000000001
40
0
40
0
40
0
40
1
40
1
40
1
10
-12.38511752708404
20
15.125721931458131
30
0
10
-12.148844715194391
20
14.622832775116578
30
0
10
-12.148844715194391
20
14.024566650391236
30
0
0
SPLINE
5
328
100
AcDbEntity
8
0
100
AcDbSpline
70
0
71
2
72
6
73
3
74
0
42
0.000000001
43
0.0000000001
44
0.0000000001
40
0
40
0
40
0
40
1
40
1
40
1
10
-12.148844715194391
20
14.024566650391236
30
0
10
-12.1488447151944
20
13.161849021912232
30
0
10
-12.586705204086002
20
12.580924272537843
30
0
0
SPLINE
5
329
100
AcDbEntity
8
0
100
AcDbSpline
70
0
71
2
72
6
73
3
74
0
42
0.000000001
43
0.0000000001
44
0.0000000001
40
0
40
0
40
0
40
1
40
1
40
1
10
-12.586705204086002
20
12.580924272537843
30
0
10
-13.115608211593326
20
11.878612279892579
30
0
10
-14.047688957290344
20
11.878612279892579
30
0
0
SPLINE
5
330
100
AcDbEntity
8
0
100
AcDbSpline
70
0
71
2
72
6
73
3
74
0
42
0.000000001
43
0.0000000001
44
0.0000000001
40
0
40
0
40
0
40
1
40
1
40
1
10
-14.047688957290344
20
11.878612279892579
30
0
10
-14.962427135543518
20
11.878612279892579
30
0
10
-15.456647392348938
20
12.520231246948853
30
0
0
SPLINE
5
331
100
AcDbEntity
8
0
100
AcDbSpline
70
0
71
2
72
6
73
3
74
0
42
0.000000001
43
0.0000000001
44
0.0000000001
40
0
40
0
40
0
40
1
40
1
40
1
10
-15.456647392348938
20
12.520231246948853
30
0
10
-15.950867649154358
20
13.161849021912232
30
0
10
-15.950867649154358
20
14.007225275040284
30
0
0
SPLINE
5
332
100
AcDbEntity
8
0
100
AcDbSpline
70
0
71
2
72
6
73
3
74
0
42
0.000000001
43
0.0000000001
44
0.0000000001
40
0
40
0
40
0
40
1
40
1
40
1
10
-15.950867649154358
20
14.007225275040284
30
0
10
-15.950867649154358
20
14.878612995148316
30
0
10
-15.445808883742981
20
15.52673363685669
30
0
0
SPLINE
5
333
100
AcDbEntity
8
0
100
AcDbSpline
70
0
71
2
72
6
73
3
74
0
42
0.000000001
43
0.0000000001
44
0.0000000001
40
0
40
0
40
0
40
1
40
1
40
1
10
-15.445808883742981
20
15.52673363685669
30
0
10
-14.940752502517395
20
16.17485547065796
30
0
10
-14.060694690780334
20
16.17485547065796
30
0
0
SPLINE
5
334
100
AcDbEntity
8
0
100
AcDbSpline
70
0
71
2
72
6
73
3
74
0
42
0.000000001
43
0.0000000001
44
0.0000000001
40
0
40
0
40
0
40
1
40
1
40
1
10
-14.043352123336486
20
15.867051124573365
30
0
10
-14.264451976852111
20
15.867051124573365
30
0
10
-14.422688003616027
20
15.700143814087525
30
0
0
SPLINE
5
335
100
AcDbEntity
8
0
100
AcDbSpline
70
0
71
2
72
6
73
3
74
0
42
0.000000001
43
0.0000000001
44
0.0000000001
40
0
40
0
40
0
40
1
40
1
40
1
10
-14.422688003616027
20
15.700143814087525
30
0
10
-14.580926414565734
20
15.533236503601685
30
0
10
-14.630782123641662
20
15.041184663773194
30
0
0
SPLINE
5
336
100
AcDbEntity
8
0
100
AcDbSpline
70
0
71
2
72
6
73
3
74
0
42
0.000000001
43
0.0000000001
44
0.0000000001
40
0
40
0
40
0
40
1
40
1
40
1
10
-14.630782123641662
20
15.041184663773194
30
0
10
-14.680635448531799
20
14.549132823944703
30
0
10
-14.680635448531799
20
13.673409461975709
30
0
0
SPLINE
5
337
100
AcDbEntity
8
0
100
AcDbSpline
70
0
71
2
72
6
73
3
74
0
42
0.000000001
43
0.0000000001
44
0.0000000001
40
0
40
0
40
0
40
1
40
1
40
1
10
-14.680635448531799
20
13.673409461975709
30
0
10
-14.680635448531799
20
13.209537506104127
30
0
10
-14.619943615035705
20
12.806357383728638
30
0
0
SPLINE
5
338
100
AcDbEntity
8
0
100
AcDbSpline
70
0
71
2
72
6
73
3
74
0
42
0.000000001
43
0.0000000001
44
0.0000000001
40
0
40
0
40
0
40
1
40
1
40
1
10
-14.619943615035705
20
12.806357383728638
30
0
10
-14.572255130843811
20
12.498554229736939
30
0
10
-14.416186328963928
20
12.338149785996094
30
0
0
SPLINE
5
339
100
AcDbEntity
8
0
100
AcDbSpline
70
0
71
2
72
6
73
3
74
0
42
0.000000001
43
0.0000000001
44
0.0000000001
40
0
40
0
40
0
40
1
40
1
40
1
10
-14.416186328963928
20
12.338149785996094
30
0
10
-14.260115142898254
20
12.17774534225525
30
0
10
-14.060694690780334
20
12.17774534225525
30
0
0
SPLINE
5
340
100
AcDbEntity
8
0
100
AcDbSpline
70
0
71
2
72
6
73
3
74
0
42
0.000000001
43
0.0000000001
44
0.0000000001
40
0
40
0
40
0
40
1
40
1
40
1
10
-14.060694690780334
20
12.17774534225525
30
0
10
-13.865606304244693
20
12.17774534225525
30
0
10
-13.735548969344791
20
12.286126852036134
30
0
0
SPLINE
5
341
100
AcDbEntity
8
0
100
AcDbSpline
70
0
71
2
72
6
73
3
74
0
42
0.000000001
43
0.0000000001
44
0.0000000001
40
0
40
0
40
0
40
1
40
1
40
1
10
-13.735548969344791
20
12.286126852036134
30
0
10
-13.566472049789127
20
12.433525562286988
30
0
10
-13.510119434432681
20
12.697975873947755
30
0
0
SPLINE
5
342
100
AcDbEntity
8
0
100
AcDbSpline
70
0
71
2
72
6
73
3
74
0
42
0.000000001
43
0.0000000001
44
0.0000000001
40
0
40
0
40
0
40
1
40
1
40
1
10
-13.510119434432681
20
12.697975873947755
30
0
10
-13.423411365585025
20
13.109826087952271
30
0
10
-13.423411365585016
20
14.362716913223878
30
0
0
SPLINE
5
343
100
AcDbEntity
8
0
100
AcDbSpline
70
0
71
2
72
6
73
3
74
0
42
0.000000001
43
0.0000000001
44
0.0000000001
40
0
40
0
40
0
40
1
40
1
40
1
10
-13.423411365585016
20
14.362716913223878
30
0
10
-13.423411365585016
20
15.09971046447815
30
0
10
-13.505780216293024
20
15.374999284744874
30
0
0
SPLINE
5
344
100
AcDbEntity
8
0
100
AcDbSpline
70
0
71
2
72
6
73
3
74
0
42
0.000000001
43
0.0000000001
44
0.0000000001
40
0
40
0
40
0
40
1
40
1
40
1
10
-13.505780216293024
20
15.374999284744874
30
0
10
-13.588149067001032
20
15.650288105011597
30
0
10
-13.748557087020563
20
15.776010990143433
30
0
0
SPLINE
5
345
100
AcDbEntity
8
0
100
AcDbSpline
70
0
71
2
72
6
73
3
74
0
42
0.000000001
43
0.0000000001
44
0.0000000001
40
0
40
0
40
0
40
1
40
1
40
1
10
-13.748557087020563
20
15.776010990143433
30
0
10
-13.861271854476618
20
15.867051124573365
30
0
10
-14.043352123336486
20
15.867051124573365
30
0
0
LINE
5
346
100
AcDbEntity
8
0
100
AcDbLine
10
-9.9638719521328767
20
12.411849737167969
30
0
11
-9.9638719521328785
21
10.903178691864625
31
0
0
SPLINE
5
347
100
AcDbEntity
8
0
100
AcDbSpline
70
0
71
2
72
6
73
3
74
0
42
0.000000001
43
0.0000000001
44
0.0000000001
40
0
40
0
40
0
40
1
40
1
40
1
10
-9.9638719521328767
20
10.903178691864625
30
0
10
-9.9638719521328767
20
10.591039896011964
30
0
10
-9.91401862724274
20
10.478322744370118
30
0
0
SPLINE
5
348
100
AcDbEntity
8
0
100
AcDbSpline
70
0
71
2
72
6
73
3
74
0
42
0.000000001
43
0.0000000001
44
0.0000000001
40
0
40
0
40
0
40
1
40
1
40
1
10
-9.91401862724274
20
10.478322744370118
30
0
10
-9.8641653023526032
20
10.365606784821168
30
0
10
-9.7601194344326814
20
10.313583850861207
30
0
0
SPLINE
5
349
100
AcDbEntity
8
0
100
AcDbSpline
70
0
71
2
72
6
73
3
74
0
42
0.000000001
43
0.0000000001
44
0.0000000001
40
0
40
0
40
0
40
1
40
1
40
1
10
-9.7601194344326814
20
10.313583850861207
30
0
10
-9.6560735665127595
20
10.26155972480835
30
0
10
-9.3526048622891267
20
10.26155972480835
30
0
0
LINE
5
350
100
AcDbEntity
8
0
100
AcDbLine
10
-9.3526048622891267
20
10.26155972480835
30
0
11
-9.3526048622891267
21
10.101155281067506
31
0
0
LINE
5
351
100
AcDbEntity
8
0
100
AcDbLine
10
-9.3526048622891267
20
10.101155281067506
30
0
11
-11.663295742110904
21
10.101155281067506
31
0
0
LINE
5
352
100
AcDbEntity
8
0
100
AcDbLine
10
-11.663295742110904
20
10.101155281067506
30
0
11
-11.663295742110904
21
10.26155972480835
31
0
0
SPLINE
5
353
100
AcDbEntity
8
0
100
AcDbSpline
70
0
71
2
72
6
73
3
74
0
42
0.000000001
43
0.0000000001
44
0.0000000001
40
0
40
0
40
0
40
1
40
1
40
1
10
-11.663295742110904
20
10.26155972480835
30
0
10
-11.394507404403384
20
10.270231008530274
30
0
10
-11.264454837875064
20
10.413294076920167
30
0
0
SPLINE
5
354
100
AcDbEntity
8
0
100
AcDbSpline
70
0
71
2
72
6
73
3
74
0
42
0.000000001
43
0.0000000001
44
0.0000000001
40
0
40
0
40
0
40
1
40
1
40
1
10
-11.264454837875064
20
10.413294076920167
30
0
10
-11.177746769027408
20
10.513005495072022
30
0
10
-11.177746769027408
20
10.929190158844605
30
0
0
LINE
5
355
100
AcDbEntity
8
0
100
AcDbLine
10
-11.177746769027408
20
10.929190158844605
30
0
11
-11.177746769027406
21
15.208091974259034
31
0
0
SPLINE
5
356
100
AcDbEntity
8
0
100
AcDbSpline
70
0
71
2
72
6
73
3
74
0
42
0.000000001
43
0.0000000001
44
0.0000000001
40
0
40
0
40
0
40
1
40
1
40
1
10
-11.177746769027399
20
15.208091974259034
30
0
10
-11.177746769027399
20
15.637283563614503
30
0
10
-11.277458187179255
20
15.756502389908448
30
0
0
SPLINE
5
357
100
AcDbEntity
8
0
100
AcDbSpline
70
0
71
2
72
6
73
3
74
0
42
0.000000001
43
0.0000000001
44
0.0000000001
40
0
40
0
40
0
40
1
40
1
40
1
10
-11.277458187179255
20
15.756502389908448
30
0
10
-11.37716960533111
20
15.875722408295289
30
0
10
-11.663295742110895
20
15.893063783646241
30
0
0
LINE
5
358
100
AcDbEntity
8
0
100
AcDbLine
10
-11.663295742110895
20
15.893063783646241
30
0
11
-11.663295742110895
21
16.053468227387086
31
0
0
LINE
5
359
100
AcDbEntity
8
0
100
AcDbLine
10
-11.663295742110895
20
16.053468227387086
30
0
11
-9.9638719521328678
21
16.053468227387086
31
0
0
LINE
5
360
100
AcDbEntity
8
0
100
AcDbLine
10
-9.9638719521328678
20
16.053468227387086
30
0
11
-9.9638719521328678
21
15.520230770111695
31
0
0
SPLINE
5
361
100
AcDbEntity
8
0
100
AcDbSpline
70
0
71
2
72
6
73
3
74
0
42
0.000000001
43
0.0000000001
44
0.0000000001
40
0
40
0
40
0
40
1
40
1
40
1
10
-9.9638719521328678
20
15.520230770111695
30
0
10
-9.7514457665249576
20
15.832369565964356
30
0
10
-9.5303506813809147
20
15.971098184586182
30
0
0
SPLINE
5
362
100
AcDbEntity
8
0
100
AcDbSpline
70
0
71
2
72
6
73
3
74
0
42
0.000000001
43
0.0000000001
44
0.0000000001
40
0
40
0
40
0
40
1
40
1
40
1
10
-9.5303506813809147
20
15.971098184586182
30
0
10
-9.2138738594815006
20
16.17485547065796
30
0
10
-8.8410444222256412
20
16.17485547065796
30
0
0
SPLINE
5
363
100
AcDbEntity
8
0
100
AcDbSpline
70
0
71
2
72
6
73
3
74
0
42
0.000000001
43
0.0000000001
44
0.0000000001
40
0
40
0
40
0
40
1
40
1
40
1
10
-8.8410444222256412
20
16.17485547065796
30
0
10
-8.3945102654263248
20
16.17485547065796
30
0
10
-8.0281801186367741
20
15.893063783646241
30
0
0
SPLINE
5
364
100
AcDbEntity
8
0
100
AcDbSpline
70
0
71
2
72
6
73
3
74
0
42
0.000000001
43
0.0000000001
44
0.0000000001
40
0
40
0
40
0
40
1
40
1
40
1
10
-8.0281801186367741
20
15.893063783646241
30
0
10
-7.6618499718472233
20
15.611270904541627
30
0
10
-7.4711008034512272
20
15.114884614945069
30
0
0
SPLINE
5
365
100
AcDbEntity
8
0
100
AcDbSpline
70
0
71
2
72
6
73
3
74
0
42
0.000000001
43
0.0000000001
44
0.0000000001
40
0
40
0
40
0
40
1
40
1
40
1
10
-7.4711008034512272
20
15.114884614945069
30
0
10
-7.2803468666836491
20
14.618497133255616
30
0
10
-7.2803468666836491
20
14.046242475510255
30
0
0
SPLINE
5
366
100
AcDbEntity
8
0
100
AcDbSpline
70
0
71
2
72
6
73
3
74
0
42
0.000000001
43
0.0000000001
44
0.0000000001
40
0
40
0
40
0
40
1
40
1
40
1
10
-7.2803468666836491
20
14.046242475510255
30
0
10
-7.2803468666836579
20
13.430634975433961
30
0
10
-7.4776048622891267
20
12.921241760254517
30
0
0
SPLINE
5
367
100
AcDbEntity
8
0
100
AcDbSpline
70
0
71
2
72
6
73
3
74
0
42
0.000000001
43
0.0000000001
44
0.0000000001
40
0
40
0
40
0
40
1
40
1
40
1
10
-7.4776048622891267
20
12.921241760254517
30
0
10
-7.6748533211514314
20
12.411849737167969
30
0
10
-8.049857135848697
20
12.145231008530274
30
0
0
SPLINE
5
368
100
AcDbEntity
8
0
100
AcDbSpline
70
0
71
2
72
6
73
3
74
0
42
0.000000001
43
0.0000000001
44
0.0000000001
40
0
40
0
40
0
40
1
40
1
40
1
10
-8.049857135848697
20
12.145231008530274
30
0
10
-8.4248561821743806
20
11.878612279892579
30
0
10
-8.8843936882778962
20
11.878612279892579
30
0
0
SPLINE
5
369
100
AcDbEntity
8
0
100
AcDbSpline
70
0
71
2
72
6
73
3
74
0
42
0.000000001
43
0.0000000001
44
0.0000000001
40
0
40
0
40
0
40
1
40
1
40
1
10
-8.8843936882778962
20
11.878612279892579
30
0
10
-9.2182083092495759
20
11.878612279892579
30
0
10
-9.5086736641690095
20
12.026010990143433
30
0
0
SPLINE
5
370
100
AcDbEntity
8
0
100
AcDbSpline
70
0
71
2
72
6
73
3
74
0
42
0.000000001
43
0.0000000001
44
0.0000000001
40
0
40
0
40
0
40
1
40
1
40
1
10
-9.5086736641690095
20
12.026010990143433
30
0
10
-9.7254342995449861
20
12.138728141785279
30
0
10
-9.9638719521328767
20
12.411849737167969
30
0
0
SPLINE
5
371
100
AcDbEntity
8
0
100
AcDbSpline
70
0
71
2
72
6
73
3
74
0
42
0.000000001
43
0.0000000001
44
0.0000000001
40
0
40
0
40
0
40
1
40
1
40
1
10
-9.9638719521328767
20
12.849710226059571
30
0
10
-9.5910425148770173
20
12.320808410645142
30
0
10
-9.166185375289615
20
12.320808410645142
30
0
0
SPLINE
5
372
100
AcDbEntity
8
0
100
AcDbSpline
70
0
71
2
72
6
73
3
74
0
42
0.000000001
43
0.0000000001
44
0.0000000001
40
0
40
0
40
0
40
1
40
1
40
1
10
-9.166185375289615
20
12.320808410645142
30
0
10
-8.9320821724697907
20
12.320808410645142
30
0
10
-8.7803478203579743
20
12.567918539047852
30
0
0
SPLINE
5
373
100
AcDbEntity
8
0
100
AcDbSpline
70
0
71
2
72
6
73
3
74
0
42
0.000000001
43
0.0000000001
44
0.0000000001
40
0
40
0
40
0
40
1
40
1
40
1
10
-8.7803478203579743
20
12.567918539047852
30
0
10
-8.5549135170742829
20
12.932080268860474
30
0
10
-8.5549135170742741
20
13.955202341080323
30
0
0
SPLINE
5
374
100
AcDbEntity
8
0
100
AcDbSpline
70
0
71
2
72
6
73
3
74
0
42
0.000000001
43
0.0000000001
44
0.0000000001
40
0
40
0
40
0
40
1
40
1
40
1
10
-8.5549135170742741
20
13.955202341080323
30
0
10
-8.5549135170742741
20
15.004334688187257
30
0
10
-8.8020248375698795
20
15.390173435211793
30
0
0
SPLINE
5
375
100
AcDbEntity
8
0
100
AcDbSpline
70
0
71
2
72
6
73
3
74
0
42
0.000000001
43
0.0000000001
44
0.0000000001
40
0
40
0
40
0
40
1
40
1
40
1
10
-8.8020248375698795
20
15.390173435211793
30
0
10
-8.9667625389858951
20
15.645953655243531
30
0
10
-9.2442197762295475
20
15.645953655243531
30
0
0
SPLINE
5
376
100
AcDbEntity
8
0
100
AcDbSpline
70
0
71
2
72
6
73
3
74
0
42
0.000000001
43
0.0000000001
44
0.0000000001
40
0
40
0
40
0
40
1
40
1
40
1
10
-9.2442197762295475
20
15.645953655243531
30
0
10
-9.6820802651211491
20
15.645953655243531
30
0
10
-9.9638719521328678
20
15.013004779816285
30
0
0
LINE
5
377
100
AcDbEntity
8
0
100
AcDbLine
10
-9.9638719521328678
20
15.013004779816285
30
0
11
-9.9638719521328696
21
12.849710226059571
31
0
0
LINE
5
378
100
AcDbEntity
8
0
100
AcDbLine
10
-5.0260086022183259
20
12.411849737167969
30
0
11
-5.0260086022183268
21
10.903178691864625
31
0
0
SPLINE
5
379
100
AcDbEntity
8
0
100
AcDbSpline
70
0
71
2
72
6
73
3
74
0
42
0.000000001
43
0.0000000001
44
0.0000000001
40
0
40
0
40
0
40
1
40
1
40
1
10
-5.0260086022183259
20
10.903178691864625
30
0
10
-5.0260086022183259
20
10.591039896011964
30
0
10
-4.9761552773281892
20
10.478322744370118
30
0
0
SPLINE
5
380
100
AcDbEntity
8
0
100
AcDbSpline
70
0
71
2
72
6
73
3
74
0
42
0.000000001
43
0.0000000001
44
0.0000000001
40
0
40
0
40
0
40
1
40
1
40
1
10
-4.9761552773281892
20
10.478322744370118
30
0
10
-4.9262971840664704
20
10.365606784821168
30
0
10
-4.8222513161465486
20
10.313583850861207
30
0
0
SPLINE
5
381
100
AcDbEntity
8
0
100
AcDbSpline
70
0
71
2
72
6
73
3
74
0
42
0.000000001
43
0.0000000001
44
0.0000000001
40
0
40
0
40
0
40
1
40
1
40
1
10
-4.8222513161465486
20
10.313583850861207
30
0
10
-4.7182054482266267
20
10.26155972480835
30
0
10
-4.4147367440029939
20
10.26155972480835
30
0
0
LINE
5
382
100
AcDbEntity
8
0
100
AcDbLine
10
-4.4147367440029939
20
10.26155972480835
30
0
11
-4.4147367440029939
21
10.101155281067506
31
0
0
LINE
5
383
100
AcDbEntity
8
0
100
AcDbLine
10
-4.4147367440029939
20
10.101155281067506
30
0
11
-6.7254323921963532
21
10.101155281067506
31
0
0
LINE
5
384
100
AcDbEntity
8
0
100
AcDbLine
10
-6.7254323921963532
20
10.101155281067506
30
0
11
-6.7254323921963532
21
10.26155972480835
31
0
0
SPLINE
5
385
100
AcDbEntity
8
0
100
AcDbSpline
70
0
71
2
72
6
73
3
74
0
42
0.000000001
43
0.0000000001
44
0.0000000001
40
0
40
0
40
0
40
1
40
1
40
1
10
-6.7254323921963532
20
10.26155972480835
30
0
10
-6.4566488228604157
20
10.270231008530274
30
0
10
-6.3265867195889314
20
10.413294076920167
30
0
0
SPLINE
5
386
100
AcDbEntity
8
0
100
AcDbSpline
70
0
71
2
72
6
73
3
74
0
42
0.000000001
43
0.0000000001
44
0.0000000001
40
0
40
0
40
0
40
1
40
1
40
1
10
-6.3265867195889314
20
10.413294076920167
30
0
10
-6.2398834191128572
20
10.513005495072022
30
0
10
-6.2398834191128572
20
10.929190158844605
30
0
0
LINE
5
387
100
AcDbEntity
8
0
100
AcDbLine
10
-6.2398834191128572
20
10.929190158844605
30
0
11
-6.2398834191128563
21
15.208091974259034
31
0
0
SPLINE
5
388
100
AcDbEntity
8
0
100
AcDbSpline
70
0
71
2
72
6
73
3
74
0
42
0.000000001
43
0.0000000001
44
0.0000000001
40
0
40
0
40
0
40
1
40
1
40
1
10
-6.2398834191128483
20
15.208091974259034
30
0
10
-6.2398834191128483
20
15.637283563614503
30
0
10
-6.3395948372647037
20
15.756502389908448
30
0
0
SPLINE
5
389
100
AcDbEntity
8
0
100
AcDbSpline
70
0
71
2
72
6
73
3
74
0
42
0.000000001
43
0.0000000001
44
0.0000000001
40
0
40
0
40
0
40
1
40
1
40
1
10
-6.3395948372647037
20
15.756502389908448
30
0
10
-6.4393062554165592
20
15.875722408295289
30
0
10
-6.7254323921963444
20
15.893063783646241
30
0
0
LINE
5
390
100
AcDbEntity
8
0
100
AcDbLine
10
-6.7254323921963444
20
15.893063783646241
30
0
11
-6.7254323921963444
21
16.053468227387086
31
0
0
LINE
5
391
100
AcDbEntity
8
0
100
AcDbLine
10
-6.7254323921963444
20
16.053468227387086
30
0
11
-5.026008602218317
21
16.053468227387086
31
0
0
LINE
5
392
100
AcDbEntity
8
0
100
AcDbLine
10
-5.026008602218317
20
16.053468227387086
30
0
11
-5.026008602218317
21
15.520230770111695
31
0
0
SPLINE
5
393
100
AcDbEntity
8
0
100
AcDbSpline
70
0
71
2
72
6
73
3
74
0
42
0.000000001
43
0.0000000001
44
0.0000000001
40
0
40
0
40
0
40
1
40
1
40
1
10
-5.026008602218317
20
15.520230770111695
30
0
10
-4.8135824166104069
20
15.832369565964356
30
0
10
-4.5924825630947819
20
15.971098184586182
30
0
0
SPLINE
5
394
100
AcDbEntity
8
0
100
AcDbSpline
70
0
71
2
72
6
73
3
74
0
42
0.000000001
43
0.0000000001
44
0.0000000001
40
0
40
0
40
0
40
1
40
1
40
1
10
-4.5924825630947819
20
15.971098184586182
30
0
10
-4.2760105095669498
20
16.17485547065796
30
0
10
-3.9031763039395084
20
16.17485547065796
30
0
0
SPLINE
5
395
100
AcDbEntity
8
0
100
AcDbSpline
70
0
71
2
72
6
73
3
74
0
42
0.000000001
43
0.0000000001
44
0.0000000001
40
0
40
0
40
0
40
1
40
1
40
1
10
-3.9031763039395084
20
16.17485547065796
30
0
10
-3.4566469155117741
20
16.17485547065796
30
0
10
-3.0903167687222233
20
15.893063783646241
30
0
0
SPLINE
5
396
100
AcDbEntity
8
0
100
AcDbSpline
70
0
71
2
72
6
73
3
74
0
42
0.000000001
43
0.0000000001
44
0.0000000001
40
0
40
0
40
0
40
1
40
1
40
1
10
-3.0903167687222233
20
15.893063783646241
30
0
10
-2.7239866219326725
20
15.611270904541627
30
0
10
-2.5332374535366764
20
15.114884614945069
30
0
0
SPLINE
5
397
100
AcDbEntity
8
0
100
AcDbSpline
70
0
71
2
72
6
73
3
74
0
42
0.000000001
43
0.0000000001
44
0.0000000001
40
0
40
0
40
0
40
1
40
1
40
1
10
-2.5332374535366764
20
15.114884614945069
30
0
10
-2.3424835167690983
20
14.618497133255616
30
0
10
-2.3424835167690983
20
14.046242475510255
30
0
0
SPLINE
5
398
100
AcDbEntity
8
0
100
AcDbSpline
70
0
71
2
72
6
73
3
74
0
42
0.000000001
43
0.0000000001
44
0.0000000001
40
0
40
0
40
0
40
1
40
1
40
1
10
-2.3424835167690983
20
14.046242475510255
30
0
10
-2.3424835167691072
20
13.430634975433961
30
0
10
-2.5397367440029939
20
12.921241760254517
30
0
0
SPLINE
5
399
100
AcDbEntity
8
0
100
AcDbSpline
70
0
71
2
72
6
73
3
74
0
42
0.000000001
43
0.0000000001
44
0.0000000001
40
0
40
0
40
0
40
1
40
1
40
1
10
-2.5397367440029939
20
12.921241760254517
30
0
10
-2.7369947396084626
20
12.411849737167969
30
0
10
-3.1119937859341462
20
12.145231008530274
30
0
0
SPLINE
5
400
100
AcDbEntity
8
0
100
AcDbSpline
70
0
71
2
72
6
73
3
74
0
42
0.000000001
43
0.0000000001
44
0.0000000001
40
0
40
0
40
0
40
1
40
1
40
1
10
-3.1119937859341462
20
12.145231008530274
30
0
10
-3.4869928322598298
20
11.878612279892579
30
0
10
-3.9465303383633454
20
11.878612279892579
30
0
0
SPLINE
5
401
100
AcDbEntity
8
0
100
AcDbSpline
70
0
71
2
72
6
73
3
74
0
42
0.000000001
43
0.0000000001
44
0.0000000001
40
0
40
0
40
0
40
1
40
1
40
1
10
-3.9465303383633454
20
11.878612279892579
30
0
10
-4.2803449593350251
20
11.878612279892579
30
0
10
-4.5708103142544587
20
12.026010990143433
30
0
0
SPLINE
5
402
100
AcDbEntity
8
0
100
AcDbSpline
70
0
71
2
72
6
73
3
74
0
42
0.000000001
43
0.0000000001
44
0.0000000001
40
0
40
0
40
0
40
1
40
1
40
1
10
-4.5708103142544587
20
12.026010990143433
30
0
10
-4.7875709496304353
20
12.138728141785279
30
0
10
-5.0260086022183259
20
12.411849737167969
30
0
0
SPLINE
5
403
100
AcDbEntity
8
0
100
AcDbSpline
70
0
71
2
72
6
73
3
74
0
42
0.000000001
43
0.0000000001
44
0.0000000001
40
0
40
0
40
0
40
1
40
1
40
1
10
-5.0260086022183259
20
12.849710226059571
30
0
10
-4.6531791649624665
20
12.320808410645142
30
0
10
-4.2283220253750642
20
12.320808410645142
30
0
0
SPLINE
5
404
100
AcDbEntity
8
0
100
AcDbSpline
70
0
71
2
72
6
73
3
74
0
42
0.000000001
43
0.0000000001
44
0.0000000001
40
0
40
0
40
0
40
1
40
1
40
1
10
-4.2283220253750642
20
12.320808410645142
30
0
10
-3.99421882255524
20
12.320808410645142
30
0
10
-3.8424844704434236
20
12.567918539047852
30
0
0
SPLINE
5
405
100
AcDbEntity
8
0
100
AcDbSpline
70
0
71
2
72
6
73
3
74
0
42
0.000000001
43
0.0000000001
44
0.0000000001
40
0
40
0
40
0
40
1
40
1
40
1
10
-3.8424844704434236
20
12.567918539047852
30
0
10
-3.6170501671597322
20
12.932080268860474
30
0
10
-3.6170501671597233
20
13.955202341080323
30
0
0
SPLINE
5
406
100
AcDbEntity
8
0
100
AcDbSpline
70
0
71
2
72
6
73
3
74
0
42
0.000000001
43
0.0000000001
44
0.0000000001
40
0
40
0
40
0
40
1
40
1
40
1
10
-3.6170501671597233
20
13.955202341080323
30
0
10
-3.6170501671597233
20
15.004334688187257
30
0
10
-3.8641614876553287
20
15.390173435211793
30
0
0
SPLINE
5
407
100
AcDbEntity
8
0
100
AcDbSpline
70
0
71
2
72
6
73
3
74
0
42
0.000000001
43
0.0000000001
44
0.0000000001
40
0
40
0
40
0
40
1
40
1
40
1
10
-3.8641614876553287
20
15.390173435211793
30
0
10
-4.0288991890713444
20
15.645953655243531
30
0
10
-4.3063564263149967
20
15.645953655243531
30
0
0
SPLINE
5
408
100
AcDbEntity
8
0
100
AcDbSpline
70
0
71
2
72
6
73
3
74
0
42
0.000000001
43
0.0000000001
44
0.0000000001
40
0
40
0
40
0
40
1
40
1
40
1
10
-4.3063564263149967
20
15.645953655243531
30
0
10
-4.7442169152065983
20
15.645953655243531
30
0
10
-5.026008602218317
20
15.013004779816285
30
0
0
LINE
5
409
100
AcDbEntity
8
0
100
AcDbLine
10
-5.026008602218317
20
15.013004779816285
30
0
11
-5.0260086022183179
21
12.849710226059571
31
0
0
LINE
5
410
100
AcDbEntity
8
0
100
AcDbLine
10
6.4263006707347214
20
12.060693740845336
30
0
11
6.4263006707347214
21
12.221098184586181
31
0
0
LINE
5
411
100
AcDbEntity
8
0
100
AcDbLine
10
6.4263006707347214
20
12.221098184586181
30
0
11
6.6213874181426347
21
12.221098184586181
31
0
0
SPLINE
5
412
100
AcDbEntity
8
0
100
AcDbSpline
70
0
71
2
72
6
73
3
74
0
42
0.000000001
43
0.0000000001
44
0.0000000001
40
0
40
0
40
0
40
1
40
1
40
1
10
6.6213874181426347
20
12.221098184586181
30
0
10
6.8771677871859849
20
12.221098184586181
30
0
10
7.0137284358657181
20
12.301301002503051
30
0
0
SPLINE
5
413
100
AcDbEntity
8
0
100
AcDbSpline
70
0
71
2
72
6
73
3
74
0
42
0.000000001
43
0.0000000001
44
0.0000000001
40
0
40
0
40
0
40
1
40
1
40
1
10
7.0137284358657181
20
12.301301002503051
30
0
10
7.1502891590512574
20
12.381502628327025
30
0
10
7.2153181245244324
20
12.520231246948851
30
0
0
SPLINE
5
414
100
AcDbEntity
8
0
100
AcDbSpline
70
0
71
2
72
6
73
3
74
0
42
0.000000001
43
0.0000000001
44
0.0000000001
40
0
40
0
40
0
40
1
40
1
40
1
10
7.2153181245244324
20
12.520231246948851
30
0
10
7.2543354740060151
20
12.611271381378783
30
0
10
7.2543354740060151
20
13.066474437714232
30
0
0
LINE
5
415
100
AcDbEntity
8
0
100
AcDbLine
10
7.2543354740060151
20
13.066474437714232
30
0
11
7.2543354740060151
21
16.933526039124146
31
0
0
SPLINE
5
416
100
AcDbEntity
8
0
100
AcDbSpline
70
0
71
2
72
6
73
3
74
0
42
0.000000001
43
0.0000000001
44
0.0000000001
40
0
40
0
40
0
40
1
40
1
40
1
10
7.2543354740060151
20
16.933526039124143
30
0
10
7.2543354740060151
20
17.38439345359863
30
0
10
7.2066475858605683
20
17.497110009194028
30
0
0
SPLINE
5
417
100
AcDbEntity
8
0
100
AcDbSpline
70
0
71
2
72
6
73
3
74
0
42
0.000000001
43
0.0000000001
44
0.0000000001
40
0
40
0
40
0
40
1
40
1
40
1
10
7.2066475858605683
20
17.497110009194028
30
0
10
7.1589596977151215
20
17.609827160835874
30
0
10
7.0137284358657181
20
17.69436442852081
30
0
0
SPLINE
5
418
100
AcDbEntity
8
0
100
AcDbSpline
70
0
71
2
72
6
73
3
74
0
42
0.000000001
43
0.0000000001
44
0.0000000001
40
0
40
0
40
0
40
1
40
1
40
1
10
7.0137284358657181
20
17.69436442852081
30
0
10
6.8684972485221207
20
17.778902292252194
30
0
10
6.6213874181426347
20
17.778902292252194
30
0
0
LINE
5
419
100
AcDbEntity
8
0
100
AcDbLine
10
6.6213874181426347
20
17.778902292252194
30
0
11
6.4263006707347214
21
17.778902292252194
31
0
0
LINE
5
420
100
AcDbEntity
8
0
100
AcDbLine
10
6.4263006707347214
20
17.778902292252194
30
0
11
6.4263006707347214
21
17.939306735993039
31
0
0
LINE
5
421
100
AcDbEntity
8
0
100
AcDbLine
10
6.4263006707347214
20
17.939306735993039
30
0
11
9.0578035672820398
21
17.939306735993039
31
0
0
SPLINE
5
422
100
AcDbEntity
8
0
100
AcDbSpline
70
0
71
2
72
6
73
3
74
0
42
0.000000001
43
0.0000000001
44
0.0000000001
40
0
40
0
40
0
40
1
40
1
40
1
10
9.0578035672820398
20
17.939306735993039
30
0
10
10.111272152296383
20
17.939306735993039
30
0
10
10.75289052330621
20
17.653179407120358
30
0
0
SPLINE
5
423
100
AcDbEntity
8
0
100
AcDbSpline
70
0
71
2
72
6
73
3
74
0
42
0.000000001
43
0.0000000001
44
0.0000000001
40
0
40
0
40
0
40
1
40
1
40
1
10
10.75289052330621
20
17.653179407120358
30
0
10
11.537573154798825
20
17.302023410797727
30
0
10
11.942919906011898
20
16.591040730476987
30
0
0
SPLINE
5
424
100
AcDbEntity
8
0
100
AcDbSpline
70
0
71
2
72
6
73
3
74
0
42
0.000000001
43
0.0000000001
44
0.0000000001
40
0
40
0
40
0
40
1
40
1
40
1
10
11.942919906011898
20
16.591040730476987
30
0
10
12.348266657224972
20
15.880058050156249
30
0
10
12.348266657224972
20
14.982658863068236
30
0
0
SPLINE
5
425
100
AcDbEntity
8
0
100
AcDbSpline
70
0
71
2
72
6
73
3
74
0
42
0.000000001
43
0.0000000001
44
0.0000000001
40
0
40
0
40
0
40
1
40
1
40
1
10
12.348266657224972
20
14.982658863068236
30
0
10
12.348266657224972
20
14.362716913223876
30
0
10
12.148845013014157
20
13.840317964554442
30
0
0
SPLINE
5
426
100
AcDbEntity
8
0
100
AcDbSpline
70
0
71
2
72
6
73
3
74
0
42
0.000000001
43
0.0000000001
44
0.0000000001
40
0
40
0
40
0
40
1
40
1
40
1
10
12.148845013014157
20
13.840317964554442
30
0
10
11.949422772756893
20
13.317919015885009
30
0
10
11.632948931089718
20
12.977601528168334
30
0
0
SPLINE
5
427
100
AcDbEntity
8
0
100
AcDbSpline
70
0
71
2
72
6
73
3
74
0
42
0.000000001
43
0.0000000001
44
0.0000000001
40
0
40
0
40
0
40
1
40
1
40
1
10
11.632948931089718
20
12.977601528168334
30
0
10
11.316474493376095
20
12.637282848358764
30
0
10
10.902457054487545
20
12.431358337402953
30
0
0
SPLINE
5
428
100
AcDbEntity
8
0
100
AcDbSpline
70
0
71
2
72
6
73
3
74
0
42
0.000000001
43
0.0000000001
44
0.0000000001
40
0
40
0
40
0
40
1
40
1
40
1
10
10.902457054487545
20
12.431358337402953
30
0
10
10.488439615598995
20
12.225433826447142
30
0
10
9.8901737888968775
20
12.112716674805297
30
0
0
SPLINE
5
429
100
AcDbEntity
8
0
100
AcDbSpline
70
0
71
2
72
6
73
3
74
0
42
0.000000001
43
0.0000000001
44
0.0000000001
40
0
40
0
40
0
40
1
40
1
40
1
10
9.8901737888968775
20
12.112716674805297
30
0
10
9.6257228811896631
20
12.060693740845336
30
0
10
9.0578035672820398
20
12.060693740845336
30
0
0
LINE
5
430
100
AcDbEntity
8
0
100
AcDbLine
10
9.0578035672820398
20
12.060693740845336
30
0
11
6.4263006707347214
21
12.060693740845336
31
0
0
LINE
5
431
100
AcDbEntity
8
0
100
AcDbLine
10
8.6676303704894373
20
17.605491518974912
30
0
11
8.6676303704894373
21
13.018785953522336
31
0
0
SPLINE
5
432
100
AcDbEntity
8
0
100
AcDbSpline
70
0
71
2
72
6
73
3
74
0
42
0.000000001
43
0.0000000001
44
0.0000000001
40
0
40
0
40
0
40
1
40
1
40
1
10
8.6676303704894373
20
13.018785953522338
30
0
10
8.6676303704894373
20
12.654624223709716
30
0
10
8.7023125251448938
20
12.572254180908812
30
0
0
SPLINE
5
433
100
AcDbEntity
8
0
100
AcDbSpline
70
0
71
2
72
6
73
3
74
0
42
0.000000001
43
0.0000000001
44
0.0000000001
40
0
40
0
40
0
40
1
40
1
40
1
10
8.7023125251448938
20
12.572254180908812
30
0
10
8.7369945307887384
20
12.489884138107909
30
0
10
8.8193644245780298
20
12.446532487869872
30
0
0
SPLINE
5
434
100
AcDbEntity
8
0
100
AcDbSpline
70
0
71
2
72
6
73
3
74
0
42
0.000000001
43
0.0000000001
44
0.0000000001
40
0
40
0
40
0
40
1
40
1
40
1
10
8.8193644245780298
20
12.446532487869872
30
0
10
8.9364163240111658
20
12.381502628327025
30
0
10
9.1575146874106714
20
12.381502628327025
30
0
0
SPLINE
5
435
100
AcDbEntity
8
0
100
AcDbSpline
70
0
71
2
72
6
73
3
74
0
42
0.000000001
43
0.0000000001
44
0.0000000001
40
0
40
0
40
0
40
1
40
1
40
1
10
9.1575146874106714
20
12.381502628327025
30
0
10
9.8815031012214014
20
12.381502628327025
30
0
10
10.263006206384976
20
12.875722885132445
30
0
0
SPLINE
5
436
100
AcDbEntity
8
0
100
AcDbSpline
70
0
71
2
72
6
73
3
74
0
42
0.000000001
43
0.0000000001
44
0.0000000001
40
0
40
0
40
0
40
1
40
1
40
1
10
10.263006206384976
20
12.875722885132445
30
0
10
10.783237334123928
20
13.5433533191687
30
0
10
10.783237334123928
20
14.947977304459227
30
0
0
SPLINE
5
437
100
AcDbEntity
8
0
100
AcDbSpline
70
0
71
2
72
6
73
3
74
0
42
0.000000001
43
0.0000000001
44
0.0000000001
40
0
40
0
40
0
40
1
40
1
40
1
10
10.783237334123928
20
14.947977304459227
30
0
10
10.783237334123928
20
16.079479694367063
30
0
10
10.427745993963558
20
16.755780220032346
30
0
0
SPLINE
5
438
100
AcDbEntity
8
0
100
AcDbSpline
70
0
71
2
72
6
73
3
74
0
42
0.000000001
43
0.0000000001
44
0.0000000001
40
0
40
0
40
0
40
1
40
1
40
1
10
10.427745993963558
20
16.755780220032346
30
0
10
10.145954008928616
20
17.284682631493222
30
0
10
9.7037575801528284
20
17.475433588028562
30
0
0
SPLINE
5
439
100
AcDbEntity
8
0
100
AcDbSpline
70
0
71
2
72
6
73
3
74
0
42
0.000000001
43
0.0000000001
44
0.0000000001
40
0
40
0
40
0
40
1
40
1
40
1
10
9.7037575801528284
20
17.475433588028562
30
0
10
9.3916187843001673
20
17.609827160835874
30
0
10
8.6676303704894373
20
17.605491518974912
30
0
0
LINE
5
440
100
AcDbEntity
8
0
100
AcDbLine
10
14.702312167517025
20
16.114162445068967
30
0
11
14.702312167517025
21
15.19508624076904
31
0
0
SPLINE
5
441
100
AcDbEntity
8
0
100
AcDbSpline
70
0
71
2
72
6
73
3
74
0
42
0.000000001
43
0.0000000001
44
0.0000000001
40
0
40
0
40
0
40
1
40
1
40
1
10
14.702312167517025
20
15.195086240769042
30
0
10
15.105491693846066
20
15.823699474335326
30
0
10
15.408959802023251
20
16.029625177384034
30
0
0
SPLINE
5
442
100
AcDbEntity
8
0
100
AcDbSpline
70
0
71
2
72
6
73
3
74
0
42
0.000000001
43
0.0000000001
44
0.0000000001
40
0
40
0
40
0
40
1
40
1
40
1
10
15.408959802023251
20
16.029625177384034
30
0
10
15.712428506246884
20
16.235549688339841
30
0
10
15.994220193258602
20
16.235549688339841
30
0
0
SPLINE
5
443
100
AcDbEntity
8
0
100
AcDbSpline
70
0
71
2
72
6
73
3
74
0
42
0.000000001
43
0.0000000001
44
0.0000000001
40
0
40
0
40
0
40
1
40
1
40
1
10
15.994220193258602
20
16.235549688339841
30
0
10
16.23699467980035
20
16.235549688339841
30
0
10
16.382226165167172
20
16.085982561112058
30
0
0
SPLINE
5
444
100
AcDbEntity
8
0
100
AcDbSpline
70
0
71
2
72
6
73
3
74
0
42
0.000000001
43
0.0000000001
44
0.0000000001
40
0
40
0
40
0
40
1
40
1
40
1
10
16.382226165167172
20
16.085982561112058
30
0
10
16.527456458441097
20
15.936416625977172
30
0
10
16.527456458441097
20
15.663295030594481
30
0
0
SPLINE
5
445
100
AcDbEntity
8
0
100
AcDbSpline
70
0
71
2
72
6
73
3
74
0
42
0.000000001
43
0.0000000001
44
0.0000000001
40
0
40
0
40
0
40
1
40
1
40
1
10
16.527456458441097
20
15.663295030594481
30
0
10
16.527456458441097
20
15.372832059860839
30
0
10
16.386560614935238
20
15.212427616119994
30
0
0
SPLINE
5
446
100
AcDbEntity
8
0
100
AcDbSpline
70
0
71
2
72
6
73
3
74
0
42
0.000000001
43
0.0000000001
44
0.0000000001
40
0
40
0
40
0
40
1
40
1
40
1
10
16.386560614935238
20
15.212427616119994
30
0
10
16.245664771429379
20
15.052023172379149
30
0
10
16.046243127218563
20
15.052023172379149
30
0
0
SPLINE
5
447
100
AcDbEntity
8
0
100
AcDbSpline
70
0
71
2
72
6
73
3
74
0
42
0.000000001
43
0.0000000001
44
0.0000000001
40
0
40
0
40
0
40
1
40
1
40
1
10
16.046243127218563
20
15.052023172379149
30
0
10
15.816474374166805
20
15.052023172379149
30
0
10
15.647399242750485
20
15.199421882630004
30
0
0
SPLINE
5
448
100
AcDbEntity
8
0
100
AcDbSpline
70
0
71
2
72
6
73
3
74
0
42
0.000000001
43
0.0000000001
44
0.0000000001
40
0
40
0
40
0
40
1
40
1
40
1
10
15.647399242750485
20
15.199421882630004
30
0
10
15.478324111334164
20
15.346820592880858
30
0
10
15.447977002493221
20
15.36416196823181
30
0
0
SPLINE
5
449
100
AcDbEntity
8
0
100
AcDbSpline
70
0
71
2
72
6
73
3
74
0
42
0.000000001
43
0.0000000001
44
0.0000000001
40
0
40
0
40
0
40
1
40
1
40
1
10
15.447977002493221
20
15.36416196823181
30
0
10
15.404624756208737
20
15.390173435211791
30
0
10
15.348266180387814
20
15.390173435211791
30
0
0
SPLINE
5
450
100
AcDbEntity
8
0
100
AcDbSpline
70
0
71
2
72
6
73
3
74
0
42
0.000000001
43
0.0000000001
44
0.0000000001
40
0
40
0
40
0
40
1
40
1
40
1
10
15.348266180387814
20
15.390173435211791
30
0
10
15.222543891302426
20
15.390173435211791
30
0
10
15.10982673966058
20
15.294797658920897
30
0
0
SPLINE
5
451
100
AcDbEntity
8
0
100
AcDbSpline
70
0
71
2
72
6
73
3
74
0
42
0.000000001
43
0.0000000001
44
0.0000000001
40
0
40
0
40
0
40
1
40
1
40
1
10
15.10982673966058
20
15.294797658920897
30
0
10
14.932080920568783
20
15.147398948670043
30
0
10
14.841040786138851
20
14.874277353287352
30
0
0
SPLINE
5
452
100
AcDbEntity
8
0
100
AcDbSpline
70
0
71
2
72
6
73
3
74
0
42
0.000000001
43
0.0000000001
44
0.0000000001
40
0
40
0
40
0
40
1
40
1
40
1
10
14.841040786138851
20
14.874277353287352
30
0
10
14.702312167517025
20
14.453757047653808
30
0
10
14.702312167517025
20
13.946532249451293
30
0
0
LINE
5
453
100
AcDbEntity
8
0
100
AcDbLine
10
14.702312167517025
20
13.946532249451293
30
0
11
14.702312167517025
21
13.014451503754271
31
0
0
LINE
5
454
100
AcDbEntity
8
0
100
AcDbLine
10
14.702312167517025
20
13.014451503754271
30
0
11
14.706647809377987
21
12.771675825119628
31
0
0
SPLINE
5
455
100
AcDbEntity
8
0
100
AcDbSpline
70
0
71
2
72
6
73
3
74
0
42
0.000000001
43
0.0000000001
44
0.0000000001
40
0
40
0
40
0
40
1
40
1
40
1
10
14.706647809377987
20
12.771675825119628
30
0
10
14.706647809377987
20
12.524566888809813
30
0
10
14.736994322172482
20
12.4552025794989
30
0
0
SPLINE
5
456
100
AcDbEntity
8
0
100
AcDbSpline
70
0
71
2
72
6
73
3
74
0
42
0.000000001
43
0.0000000001
44
0.0000000001
40
0
40
0
40
0
40
1
40
1
40
1
10
14.736994322172482
20
12.4552025794989
30
0
10
14.78901785217889
20
12.338150978088988
30
0
10
14.890896495214779
20
12.283959627152099
30
0
0
SPLINE
5
457
100
AcDbEntity
8
0
100
AcDbSpline
70
0
71
2
72
6
73
3
74
0
42
0.000000001
43
0.0000000001
44
0.0000000001
40
0
40
0
40
0
40
1
40
1
40
1
10
14.890896495214779
20
12.283959627152099
30
0
10
14.992775138250668
20
12.229769468308104
30
0
10
15.235549624792416
20
12.216762542725219
30
0
0
LINE
5
458
100
AcDbEntity
8
0
100
AcDbLine
10
15.235549624792416
20
12.216762542725219
30
0
11
15.235549624792416
21
12.060693740845336
31
0
0
LINE
5
459
100
AcDbEntity
8
0
100
AcDbLine
10
15.235549624792416
20
12.060693740845336
30
0
11
13.046243008009274
21
12.060693740845336
31
0
0
LINE
5
460
100
AcDbEntity
8
0
100
AcDbLine
10
13.046243008009274
20
12.060693740845336
30
0
11
13.046243008009274
21
12.216762542725219
31
0
0
SPLINE
5
461
100
AcDbEntity
8
0
100
AcDbSpline
70
0
71
2
72
6
73
3
74
0
42
0.000000001
43
0.0000000001
44
0.0000000001
40
0
40
0
40
0
40
1
40
1
40
1
10
13.046243008009274
20
12.216762542725219
30
0
10
13.310693915716488
20
12.238439559937133
30
0
10
13.403901871076901
20
12.36199402809204
30
0
0
SPLINE
5
462
100
AcDbEntity
8
0
100
AcDbSpline
70
0
71
2
72
6
73
3
74
0
42
0.000000001
43
0.0000000001
44
0.0000000001
40
0
40
0
40
0
40
1
40
1
40
1
10
13.403901871076901
20
12.36199402809204
30
0
10
13.497109826437313
20
12.485549688339843
30
0
10
13.497109826437313
20
13.014451503754271
30
0
0
LINE
5
463
100
AcDbEntity
8
0
100
AcDbLine
10
13.497109826437313
20
13.014451503754271
30
0
11
13.497109826437313
21
15.255780458450927
31
0
0
SPLINE
5
464
100
AcDbEntity
8
0
100
AcDbSpline
70
0
71
2
72
6
73
3
74
0
42
0.000000001
43
0.0000000001
44
0.0000000001
40
0
40
0
40
0
40
1
40
1
40
1
10
13.497109826437313
20
15.255780458450927
30
0
10
13.497109826437313
20
15.602600812912597
30
0
10
13.462428267828304
20
15.697977781296386
30
0
0
SPLINE
5
465
100
AcDbEntity
8
0
100
AcDbSpline
70
0
71
2
72
6
73
3
74
0
42
0.000000001
43
0.0000000001
44
0.0000000001
40
0
40
0
40
0
40
1
40
1
40
1
10
13.462428267828304
20
15.697977781296386
30
0
10
13.419075425497372
20
15.819363832474364
30
0
10
13.336705382696469
20
15.875722408295287
30
0
0
SPLINE
5
466
100
AcDbEntity
8
0
100
AcDbSpline
70
0
71
2
72
6
73
3
74
0
42
0.000000001
43
0.0000000001
44
0.0000000001
40
0
40
0
40
0
40
1
40
1
40
1
10
13.336705382696469
20
15.875722408295287
30
0
10
13.254335339895565
20
15.93208098411621
30
0
10
13.046243008009274
20
15.953758001328124
30
0
0
LINE
5
467
100
AcDbEntity
8
0
100
AcDbLine
10
13.046243008009274
20
15.953758001328124
30
0
11
13.046243008009274
21
16.11416244506897
31
0
0
LINE
5
468
100
AcDbEntity
8
0
100
AcDbLine
10
13.046243008009274
20
16.114162445068967
30
0
11
14.702312167517025
21
16.114162445068967
31
0
0
LINE
5
469
100
AcDbEntity
8
0
100
AcDbLine
10
20.234106000295952
20
14.232659578323974
30
0
11
18.010117228857354
21
14.232659578323974
31
0
0
SPLINE
5
470
100
AcDbEntity
8
0
100
AcDbSpline
70
0
71
2
72
6
73
3
74
0
42
0.000000001
43
0.0000000001
44
0.0000000001
40
0
40
0
40
0
40
1
40
1
40
1
10
18.010117228857354
20
14.232659578323974
30
0
10
18.049134429327324
20
13.426300525665892
30
0
10
18.439307626119927
20
12.958092927933349
30
0
0
SPLINE
5
471
100
AcDbEntity
8
0
100
AcDbSpline
70
0
71
2
72
6
73
3
74
0
42
0.000000001
43
0.0000000001
44
0.0000000001
40
0
40
0
40
0
40
1
40
1
40
1
10
18.439307626119927
20
12.958092927933349
30
0
10
18.738440688482598
20
12.598265647888793
30
0
10
19.158960994116143
20
12.598265647888793
30
0
0
SPLINE
5
472
100
AcDbEntity
8
0
100
AcDbSpline
70
0
71
2
72
6
73
3
74
0
42
0.000000001
43
0.0000000001
44
0.0000000001
40
0
40
0
40
0
40
1
40
1
40
1
10
19.158960994116143
20
12.598265647888793
30
0
10
19.419076856008843
20
12.598265647888793
30
0
10
19.631504233709649
20
12.743497133255614
30
0
0
SPLINE
5
473
100
AcDbEntity
8
0
100
AcDbSpline
70
0
71
2
72
6
73
3
74
0
42
0.000000001
43
0.0000000001
44
0.0000000001
40
0
40
0
40
0
40
1
40
1
40
1
10
19.631504233709649
20
12.743497133255614
30
0
10
19.84393280350335
20
12.888728618622435
30
0
10
20.086707290045098
20
13.265896081925048
30
0
0
LINE
5
474
100
AcDbEntity
8
0
100
AcDbLine
10
20.086707290045098
20
13.265896081925048
30
0
11
20.234106000295952
21
13.170520305634154
31
0
0
SPLINE
5
475
100
AcDbEntity
8
0
100
AcDbSpline
70
0
71
2
72
6
73
3
74
0
42
0.000000001
43
0.0000000001
44
0.0000000001
40
0
40
0
40
0
40
1
40
1
40
1
10
20.234106000295952
20
13.170520305634154
30
0
10
19.904625829092339
20
12.498555421829833
30
0
10
19.505781348577813
20
12.218930959702147
30
0
0
SPLINE
5
476
100
AcDbEntity
8
0
100
AcDbSpline
70
0
71
2
72
6
73
3
74
0
42
0.000000001
43
0.0000000001
44
0.0000000001
40
0
40
0
40
0
40
1
40
1
40
1
10
19.505781348577813
20
12.218930959702147
30
0
10
19.106938060156182
20
11.939306497574462
30
0
10
18.582371886602715
20
11.939306497574462
30
0
0
SPLINE
5
477
100
AcDbEntity
8
0
100
AcDbSpline
70
0
71
2
72
6
73
3
74
0
42
0.000000001
43
0.0000000001
44
0.0000000001
40
0
40
0
40
0
40
1
40
1
40
1
10
18.582371886602715
20
11.939306497574462
30
0
10
17.68063705765374
20
11.939306497574462
30
0
10
17.216763909689266
20
12.632948398590697
30
0
0
SPLINE
5
478
100
AcDbEntity
8
0
100
AcDbSpline
70
0
71
2
72
6
73
3
74
0
42
0.000000001
43
0.0000000001
44
0.0000000001
40
0
40
0
40
0
40
1
40
1
40
1
10
17.216763909689266
20
12.632948398590697
30
0
10
16.843932088247616
20
13.192196130753173
30
0
10
16.843932088247616
20
14.020231008530272
30
0
0
SPLINE
5
479
100
AcDbEntity
8
0
100
AcDbSpline
70
0
71
2
72
6
73
3
74
0
42
0.000000001
43
0.0000000001
44
0.0000000001
40
0
40
0
40
0
40
1
40
1
40
1
10
16.843932088247616
20
14.020231008530272
30
0
10
16.843932088247616
20
15.034682989121093
30
0
10
17.392342503897027
20
15.635116338730468
30
0
0
SPLINE
5
480
100
AcDbEntity
8
0
100
AcDbSpline
70
0
71
2
72
6
73
3
74
0
42
0.000000001
43
0.0000000001
44
0.0000000001
40
0
40
0
40
0
40
1
40
1
40
1
10
17.392342503897027
20
15.635116338730468
30
0
10
17.940752919546441
20
16.235549688339841
30
0
10
18.677747662893609
20
16.235549688339841
30
0
0
SPLINE
5
481
100
AcDbEntity
8
0
100
AcDbSpline
70
0
71
2
72
6
73
3
74
0
42
0.000000001
43
0.0000000001
44
0.0000000001
40
0
40
0
40
0
40
1
40
1
40
1
10
18.677747662893609
20
16.235549688339841
30
0
10
19.293353970877007
20
16.235549688339841
30
0
10
19.746388610235527
20
15.730490922928466
30
0
0
SPLINE
5
482
100
AcDbEntity
8
0
100
AcDbSpline
70
0
71
2
72
6
73
3
74
0
42
0.000000001
43
0.0000000001
44
0.0000000001
40
0
40
0
40
0
40
1
40
1
40
1
10
19.746388610235527
20
15.730490922928466
30
0
10
20.199423249594048
20
15.22543454170288
30
0
10
20.234106000295952
20
14.232659578323974
30
0
0
SPLINE
5
483
100
AcDbEntity
8
0
100
AcDbSpline
70
0
71
2
72
6
73
3
74
0
42
0.000000001
43
0.0000000001
44
0.0000000001
40
0
40
0
40
0
40
1
40
1
40
1
10
19.167632277838067
20
14.523121356964721
30
0
10
19.167632277838067
20
15.221098899841918
30
0
10
19.091765101782158
20
15.481214761734618
30
0
0
SPLINE
5
484
100
AcDbEntity
8
0
100
AcDbSpline
70
0
71
2
72
6
73
3
74
0
42
0.000000001
43
0.0000000001
44
0.0000000001
40
0
40
0
40
0
40
1
40
1
40
1
10
19.091765101782158
20
15.481214761734618
30
0
10
19.01589792572625
20
15.741329431534423
30
0
10
18.85549228989251
20
15.875723600388183
30
0
0
SPLINE
5
485
100
AcDbEntity
8
0
100
AcDbSpline
70
0
71
2
72
6
73
3
74
0
42
0.000000001
43
0.0000000001
44
0.0000000001
40
0
40
0
40
0
40
1
40
1
40
1
10
18.85549228989251
20
15.875723600388183
30
0
10
18.764452155462578
20
15.953758001328124
30
0
10
18.612717803350762
20
15.953758001328124
30
0
0
SPLINE
5
486
100
AcDbEntity
8
0
100
AcDbSpline
70
0
71
2
72
6
73
3
74
0
42
0.000000001
43
0.0000000001
44
0.0000000001
40
0
40
0
40
0
40
1
40
1
40
1
10
18.612717803350762
20
15.953758001328124
30
0
10
18.387284692159966
20
15.953758001328124
30
0
10
18.244221623770073
20
15.732659339905394
30
0
0
SPLINE
5
487
100
AcDbEntity
8
0
100
AcDbSpline
70
0
71
2
72
6
73
3
74
0
42
0.000000001
43
0.0000000001
44
0.0000000001
40
0
40
0
40
0
40
1
40
1
40
1
10
18.244221623770073
20
15.732659339905394
30
0
10
17.98844021164544
20
15.346820592880858
30
0
10
17.98844021164544
20
14.674855709076537
30
0
0
LINE
5
488
100
AcDbEntity
8
0
100
AcDbLine
10
17.98844021164544
20
14.674855709076537
30
0
11
17.98844021164544
21
14.523121356964721
31
0
0
LINE
5
489
100
AcDbEntity
8
0
100
AcDbLine
10
17.98844021164544
20
14.523121356964721
30
0
11
19.167632277838067
21
14.523121356964721
31
0
0
LINE
5
490
100
AcDbEntity
8
0
100
AcDbLine
10
22.397400554052666
20
17.939306735993039
30
0
11
22.397400554052666
21
15.593930721283566
31
0
0
SPLINE
5
491
100
AcDbEntity
8
0
100
AcDbSpline
70
0
71
2
72
6
73
3
74
0
42
0.000000001
43
0.0000000001
44
0.0000000001
40
0
40
0
40
0
40
1
40
1
40
1
10
22.397400554052666
20
15.593930721283568
30
0
10
22.731215175024346
20
15.9450867176062
30
0
10
23.008672412267998
20
16.09031820297302
30
0
0
SPLINE
5
492
100
AcDbEntity
8
0
100
AcDbSpline
70
0
71
2
72
6
73
3
74
0
42
0.000000001
43
0.0000000001
44
0.0000000001
40
0
40
0
40
0
40
1
40
1
40
1
10
23.008672412267998
20
16.09031820297302
30
0
10
23.286129649511651
20
16.235549688339841
30
0
10
23.585261519781426
20
16.235549688339841
30
0
0
SPLINE
5
493
100
AcDbEntity
8
0
100
AcDbSpline
70
0
71
2
72
6
73
3
74
0
42
0.000000001
43
0.0000000001
44
0.0000000001
40
0
40
0
40
0
40
1
40
1
40
1
10
23.585261519781426
20
16.235549688339841
30
0
10
23.966764624945
20
16.235549688339841
30
0
10
24.237718995443657
20
16.018786668778077
30
0
0
SPLINE
5
494
100
AcDbEntity
8
0
100
AcDbSpline
70
0
71
2
72
6
73
3
74
0
42
0.000000001
43
0.0000000001
44
0.0000000001
40
0
40
0
40
0
40
1
40
1
40
1
10
24.237718995443657
20
16.018786668778077
30
0
10
24.508672173849419
20
15.802023649216308
30
0
10
24.597545083395318
20
15.509393453598632
30
0
0
SPLINE
5
495
100
AcDbEntity
8
0
100
AcDbSpline
70
0
71
2
72
6
73
3
74
0
42
0.000000001
43
0.0000000001
44
0.0000000001
40
0
40
0
40
0
40
1
40
1
40
1
10
24.597545083395318
20
15.509393453598632
30
0
10
24.686417992941216
20
15.216763257980956
30
0
10
24.686417992941216
20
14.523121356964721
30
0
0
LINE
5
496
100
AcDbEntity
8
0
100
AcDbLine
10
24.686417992941216
20
14.523121356964721
30
0
11
24.686417992941216
21
12.940751552582396
31
0
0
SPLINE
5
497
100
AcDbEntity
8
0
100
AcDbSpline
70
0
71
2
72
6
73
3
74
0
42
0.000000001
43
0.0000000001
44
0.0000000001
40
0
40
0
40
0
40
1
40
1
40
1
10
24.686417992941216
20
12.940751552582396
30
0
10
24.686417992941216
20
12.476878404617919
30
0
10
24.773123677603081
20
12.36199402809204
30
0
0
SPLINE
5
498
100
AcDbEntity
8
0
100
AcDbSpline
70
0
71
2
72
6
73
3
74
0
42
0.000000001
43
0.0000000001
44
0.0000000001
40
0
40
0
40
0
40
1
40
1
40
1
10
24.773123677603081
20
12.36199402809204
30
0
10
24.859828170172051
20
12.247109651566161
30
0
10
25.124279673925713
20
12.216762542725219
30
0
0
LINE
5
499
100
AcDbEntity
8
0
100
AcDbLine
10
25.124279673925713
20
12.216762542725219
30
0
11
25.124279673925713
21
12.060693740845336
31
0
0
LINE
5
500
100
AcDbEntity
8
0
100
AcDbLine
10
25.124279673925713
20
12.060693740845336
30
0
11
23.069366629949883
21
12.060693740845336
31
0
0
LINE
5
501
100
AcDbEntity
8
0
100
AcDbLine
10
23.069366629949883
20
12.060693740845336
30
0
11
23.069366629949883
21
12.216762542725219
31
0
0
SPLINE
5
502
100
AcDbEntity
8
0
100
AcDbSpline
70
0
71
2
72
6
73
3
74
0
42
0.000000001
43
0.0000000001
44
0.0000000001
40
0
40
0
40
0
40
1
40
1
40
1
10
23.069366629949883
20
12.216762542725219
30
0
10
23.286129649511651
20
12.247109651566161
30
0
10
23.394509967199639
20
12.390173912048949
30
0
0
SPLINE
5
503
100
AcDbEntity
8
0
100
AcDbSpline
70
0
71
2
72
6
73
3
74
0
42
0.000000001
43
0.0000000001
44
0.0000000001
40
0
40
0
40
0
40
1
40
1
40
1
10
23.394509967199639
20
12.390173912048949
30
0
10
23.472545560232476
20
12.502889871597899
30
0
10
23.472545560232476
20
12.940751552582396
30
0
0
LINE
5
504
100
AcDbEntity
8
0
100
AcDbLine
10
23.472545560232476
20
12.940751552582396
30
0
11
23.472545560232476
21
14.748554468155517
31
0
0
SPLINE
5
505
100
AcDbEntity
8
0
100
AcDbSpline
70
0
71
2
72
6
73
3
74
0
42
0.000000001
43
0.0000000001
44
0.0000000001
40
0
40
0
40
0
40
1
40
1
40
1
10
23.472545560232476
20
14.748554468155517
30
0
10
23.472545560232476
20
15.25144600868286
30
0
10
23.43352716766961
20
15.379336118698729
30
0
0
SPLINE
5
506
100
AcDbEntity
8
0
100
AcDbSpline
70
0
71
2
72
6
73
3
74
0
42
0.000000001
43
0.0000000001
44
0.0000000001
40
0
40
0
40
0
40
1
40
1
40
1
10
23.43352716766961
20
15.379336118698729
30
0
10
23.394509967199639
20
15.507226228714599
30
0
10
23.301302607885674
20
15.578757762909545
30
0
0
SPLINE
5
507
100
AcDbEntity
8
0
100
AcDbSpline
70
0
71
2
72
6
73
3
74
0
42
0.000000001
43
0.0000000001
44
0.0000000001
40
0
40
0
40
0
40
1
40
1
40
1
10
23.301302607885674
20
15.578757762909545
30
0
10
23.208094056478814
20
15.650289297104491
30
0
10
23.091042455068902
20
15.650289297104491
30
0
0
SPLINE
5
508
100
AcDbEntity
8
0
100
AcDbSpline
70
0
71
2
72
6
73
3
74
0
42
0.000000001
43
0.0000000001
44
0.0000000001
40
0
40
0
40
0
40
1
40
1
40
1
10
23.091042455068902
20
15.650289297104491
30
0
10
22.917632277838067
20
15.650289297104491
30
0
10
22.75289219223626
20
15.53106927871765
30
0
0
SPLINE
5
509
100
AcDbEntity
8
0
100
AcDbSpline
70
0
71
2
72
6
73
3
74
0
42
0.000000001
43
0.0000000001
44
0.0000000001
40
0
40
0
40
0
40
1
40
1
40
1
10
22.75289219223626
20
15.53106927871765
30
0
10
22.588152106634453
20
15.411849260330809
30
0
10
22.397400554052666
20
15.112717390061034
30
0
0
LINE
5
510
100
AcDbEntity
8
0
100
AcDbLine
10
22.397400554052666
20
15.112717390061034
30
0
11
22.397400554052666
21
12.940751552582396
31
0
0
SPLINE
5
511
100
AcDbEntity
8
0
100
AcDbSpline
70
0
71
2
72
6
73
3
74
0
42
0.000000001
43
0.0000000001
44
0.0000000001
40
0
40
0
40
0
40
1
40
1
40
1
10
22.397400554052666
20
12.940751552582396
30
0
10
22.397400554052666
20
12.507225513458861
30
0
10
22.462429221502617
20
12.398844003677977
30
0
0
SPLINE
5
512
100
AcDbEntity
8
0
100
AcDbSpline
70
0
71
2
72
6
73
3
74
0
42
0.000000001
43
0.0000000001
44
0.0000000001
40
0
40
0
40
0
40
1
40
1
40
1
10
22.462429221502617
20
12.398844003677977
30
0
10
22.544799264303521
20
12.251445293427123
30
0
10
22.800579484335259
20
12.216762542725219
30
0
0
LINE
5
513
100
AcDbEntity
8
0
100
AcDbLine
10
22.800579484335259
20
12.216762542725219
30
0
11
22.800579484335259
21
12.060693740845336
31
0
0
LINE
5
514
100
AcDbEntity
8
0
100
AcDbLine
10
22.800579484335259
20
12.060693740845336
30
0
11
20.745666440359429
21
12.060693740845336
31
0
0
LINE
5
515
100
AcDbEntity
8
0
100
AcDbLine
10
20.745666440359429
20
12.060693740845336
30
0
11
20.745666440359429
21
12.216762542725219
31
0
0
SPLINE
5
516
100
AcDbEntity
8
0
100
AcDbSpline
70
0
71
2
72
6
73
3
74
0
42
0.000000001
43
0.0000000001
44
0.0000000001
40
0
40
0
40
0
40
1
40
1
40
1
10
20.745666440359429
20
12.216762542725219
30
0
10
21.001446660391167
20
12.242775201798095
30
0
10
21.109828170172051
20
12.381502628327025
30
0
0
SPLINE
5
517
100
AcDbEntity
8
0
100
AcDbSpline
70
0
71
2
72
6
73
3
74
0
42
0.000000001
43
0.0000000001
44
0.0000000001
40
0
40
0
40
0
40
1
40
1
40
1
10
21.109828170172051
20
12.381502628327025
30
0
10
21.183528121343926
20
12.476878404617919
30
0
10
21.183528121343926
20
12.940751552582396
30
0
0
LINE
5
518
100
AcDbEntity
8
0
100
AcDbLine
10
21.183528121343926
20
12.940751552582396
30
0
11
21.183528121343926
21
17.059248924255982
31
0
0
SPLINE
5
519
100
AcDbEntity
8
0
100
AcDbSpline
70
0
71
2
72
6
73
3
74
0
42
0.000000001
43
0.0000000001
44
0.0000000001
40
0
40
0
40
0
40
1
40
1
40
1
10
21.183528121343926
20
17.059248924255979
30
0
10
21.183528121343926
20
17.518786430359494
30
0
10
21.098989661566094
20
17.631502985954892
30
0
0
SPLINE
5
520
100
AcDbEntity
8
0
100
AcDbSpline
70
0
71
2
72
6
73
3
74
0
42
0.000000001
43
0.0000000001
44
0.0000000001
40
0
40
0
40
0
40
1
40
1
40
1
10
21.098989661566094
20
17.631502985954892
30
0
10
21.014452393881157
20
17.744220137596738
30
0
10
20.745666440359429
20
17.778902292252194
30
0
0
LINE
5
521
100
AcDbEntity
8
0
100
AcDbLine
10
20.745666440359429
20
17.778902292252194
30
0
11
20.745666440359429
21
17.939306735993039
31
0
0
LINE
5
522
100
AcDbEntity
8
0
100
AcDbLine
10
20.745666440359429
20
17.939306735993039
30
0
11
22.397400554052666
21
17.939306735993039
31
0
0
LINE
5
523
100
AcDbEntity
8
0
100
AcDbLine
10
29.000000174871758
20
12.060693740845336
30
0
11
25.471098836294487
21
12.060693740845336
31
0
0
LINE
5
524
100
AcDbEntity
8
0
100
AcDbLine
10
25.471098836294487
20
12.060693740845336
30
0
11
25.471098836294487
21
12.156069517136229
31
0
0
LINE
5
525
100
AcDbEntity
8
0
100
AcDbLine
10
25.471098836294487
20
12.156069517136229
30
0
11
27.699422057501152
21
15.849710941315307
31
0
0
LINE
5
526
100
AcDbEntity
8
0
100
AcDbLine
10
27.699422057501152
20
15.849710941315307
30
0
11
27.04913299881585
21
15.849710941315307
31
0
0
SPLINE
5
527
100
AcDbEntity
8
0
100
AcDbSpline
70
0
71
2
72
6
73
3
74
0
42
0.000000001
43
0.0000000001
44
0.0000000001
40
0
40
0
40
0
40
1
40
1
40
1
10
27.04913299881585
20
15.849710941315307
30
0
10
26.628612693182305
20
15.849710941315307
30
0
10
26.446532424322442
20
15.773843765259398
30
0
0
SPLINE
5
528
100
AcDbEntity
8
0
100
AcDbSpline
70
0
71
2
72
6
73
3
74
0
42
0.000000001
43
0.0000000001
44
0.0000000001
40
0
40
0
40
0
40
1
40
1
40
1
10
26.446532424322442
20
15.773843765259398
30
0
10
26.264450963369683
20
15.697977781296386
30
0
10
26.151735003820733
20
15.53106927871765
30
0
0
SPLINE
5
529
100
AcDbEntity
8
0
100
AcDbSpline
70
0
71
2
72
6
73
3
74
0
42
0.000000001
43
0.0000000001
44
0.0000000001
40
0
40
0
40
0
40
1
40
1
40
1
10
26.151735003820733
20
15.53106927871765
30
0
10
26.039017852178887
20
15.36416196823181
30
0
10
25.917630608908013
20
14.934971570969237
30
0
0
LINE
5
530
100
AcDbEntity
8
0
100
AcDbLine
10
25.917630608908013
20
14.934971570969237
30
0
11
25.765896256796196
21
14.934971570969237
31
0
0
LINE
5
531
100
AcDbEntity
8
0
100
AcDbLine
10
25.765896256796196
20
14.934971570969237
30
0
11
25.765896256796196
21
16.11416244506897
31
0
0
LINE
5
532
100
AcDbEntity
8
0
100
AcDbLine
10
25.765896256796196
20
16.114162445068967
30
0
11
29.177745993963555
21
16.114162445068967
31
0
0
LINE
5
533
100
AcDbEntity
8
0
100
AcDbLine
10
29.177745993963555
20
16.114162445068967
30
0
11
29.177745993963555
21
15.997109651566159
31
0
0
LINE
5
534
100
AcDbEntity
8
0
100
AcDbLine
10
29.177745993963555
20
15.997109651566161
30
0
11
26.966764148107842
21
12.338150978088988
31
0
0
LINE
5
535
100
AcDbEntity
8
0
100
AcDbLine
10
26.966764148107842
20
12.338150978088988
30
0
11
27.244221385351494
21
12.338150978088988
31
0
0
SPLINE
5
536
100
AcDbEntity
8
0
100
AcDbSpline
70
0
71
2
72
6
73
3
74
0
42
0.000000001
43
0.0000000001
44
0.0000000001
40
0
40
0
40
0
40
1
40
1
40
1
10
27.244221385351494
20
12.338150978088988
30
0
10
28.07659071289666
20
12.338150978088988
30
0
10
28.445088084570244
20
12.576589822769774
30
0
0
SPLINE
5
537
100
AcDbEntity
8
0
100
AcDbSpline
70
0
71
2
72
6
73
3
74
0
42
0.000000001
43
0.0000000001
44
0.0000000001
40
0
40
0
40
0
40
1
40
1
40
1
10
28.445088084570244
20
12.576589822769774
30
0
10
28.813585456243828
20
12.81502866745056
30
0
10
29.000000174871758
20
13.447977542877807
30
0
0
LINE
5
538
100
AcDbEntity
8
0
100
AcDbLine
10
29.000000174871758
20
13.447977542877807
30
0
11
29.121388610235527
21
13.447977542877807
31
0
0
LINE
5
539
100
AcDbEntity
8
0
100
AcDbLine
10
29.121388610235527
20
13.447977542877807
30
0
11
29.000000174871758
21
12.060693740845336
31
0
0
SPLINE
5
540
100
AcDbEntity
8
0
100
AcDbSpline
70
0
71
2
72
6
73
3
74
0
42
0.000000001
43
0.0000000001
44
0.0000000001
40
0
40
0
40
0
40
1
40
1
40
1
10
31.856939013830498
20
12.658959865570678
30
0
10
31.115609820715264
20
12.004335165024413
30
0
10
30.526012595526055
20
12.004335165024413
30
0
0
SPLINE
5
541
100
AcDbEntity
8
0
100
AcDbSpline
70
0
71
2
72
6
73
3
74
0
42
0.000000001
43
0.0000000001
44
0.0000000001
40
0
40
0
40
0
40
1
40
1
40
1
10
30.526012595526055
20
12.004335165024413
30
0
10
30.179192241064385
20
12.004335165024413
30
0
10
29.949423488012627
20
12.231936693192138
30
0
0
SPLINE
5
542
100
AcDbEntity
8
0
100
AcDbSpline
70
0
71
2
72
6
73
3
74
0
42
0.000000001
43
0.0000000001
44
0.0000000001
40
0
40
0
40
0
40
1
40
1
40
1
10
29.949423488012627
20
12.231936693192138
30
0
10
29.719654734960869
20
12.459538221359862
30
0
10
29.719654734960869
20
12.80202293396057
30
0
0
SPLINE
5
543
100
AcDbEntity
8
0
100
AcDbSpline
70
0
71
2
72
6
73
3
74
0
42
0.000000001
43
0.0000000001
44
0.0000000001
40
0
40
0
40
0
40
1
40
1
40
1
10
29.719654734960869
20
12.80202293396057
30
0
10
29.719654734960869
20
13.265896081925048
30
0
10
30.1184980233825
20
13.636560678482665
30
0
0
SPLINE
5
544
100
AcDbEntity
8
0
100
AcDbSpline
70
0
71
2
72
6
73
3
74
0
42
0.000000001
43
0.0000000001
44
0.0000000001
40
0
40
0
40
0
40
1
40
1
40
1
10
30.1184980233825
20
13.636560678482665
30
0
10
30.517343695989922
20
14.007225275040282
30
0
10
31.856939013830498
20
14.622832775116576
30
0
0
LINE
5
545
100
AcDbEntity
8
0
100
AcDbLine
10
31.856939013830498
20
14.622832775116576
30
0
11
31.856939013830498
21
15.030347347260131
31
0
0
SPLINE
5
546
100
AcDbEntity
8
0
100
AcDbSpline
70
0
71
2
72
6
73
3
74
0
42
0.000000001
43
0.0000000001
44
0.0000000001
40
0
40
0
40
0
40
1
40
1
40
1
10
31.856939013830498
20
15.030347347260131
30
0
10
31.856939013830498
20
15.489884853363646
30
0
10
31.80708330475457
20
15.609104871750487
30
0
0
SPLINE
5
547
100
AcDbEntity
8
0
100
AcDbSpline
70
0
71
2
72
6
73
3
74
0
42
0.000000001
43
0.0000000001
44
0.0000000001
40
0
40
0
40
0
40
1
40
1
40
1
10
31.80708330475457
20
15.609104871750487
30
0
10
31.757227595678643
20
15.728323698044433
30
0
10
31.618498977056817
20
15.817196607590331
30
0
0
SPLINE
5
548
100
AcDbEntity
8
0
100
AcDbSpline
70
0
71
2
72
6
73
3
74
0
42
0.000000001
43
0.0000000001
44
0.0000000001
40
0
40
0
40
0
40
1
40
1
40
1
10
31.618498977056817
20
15.817196607590331
30
0
10
31.47977035843499
20
15.906069517136229
30
0
10
31.30635898911126
20
15.906069517136229
30
0
0
SPLINE
5
549
100
AcDbEntity
8
0
100
AcDbSpline
70
0
71
2
72
6
73
3
74
0
42
0.000000001
43
0.0000000001
44
0.0000000001
40
0
40
0
40
0
40
1
40
1
40
1
10
31.30635898911126
20
15.906069517136229
30
0
10
31.024567302099541
20
15.906069517136229
30
0
10
30.842487033239678
20
15.780346632004393
30
0
0
SPLINE
5
550
100
AcDbEntity
8
0
100
AcDbSpline
70
0
71
2
72
6
73
3
74
0
42
0.000000001
43
0.0000000001
44
0.0000000001
40
0
40
0
40
0
40
1
40
1
40
1
10
30.842487033239678
20
15.780346632004393
30
0
10
30.729769881597832
20
15.702312231064452
30
0
10
30.729769881597832
20
15.59826636314453
30
0
0
SPLINE
5
551
100
AcDbEntity
8
0
100
AcDbSpline
70
0
71
2
72
6
73
3
74
0
42
0.000000001
43
0.0000000001
44
0.0000000001
40
0
40
0
40
0
40
1
40
1
40
1
10
30.729769881597832
20
15.59826636314453
30
0
10
30.729769881597832
20
15.507226228714599
30
0
10
30.851158316961602
20
15.372832059860839
30
0
0
SPLINE
5
552
100
AcDbEntity
8
0
100
AcDbSpline
70
0
71
2
72
6
73
3
74
0
42
0.000000001
43
0.0000000001
44
0.0000000001
40
0
40
0
40
0
40
1
40
1
40
1
10
30.851158316961602
20
15.372832059860839
30
0
10
31.015898402563408
20
15.186416149140014
30
0
10
31.015898402563408
20
15.013005971909179
30
0
0
SPLINE
5
553
100
AcDbEntity
8
0
100
AcDbSpline
70
0
71
2
72
6
73
3
74
0
42
0.000000001
43
0.0000000001
44
0.0000000001
40
0
40
0
40
0
40
1
40
1
40
1
10
31.015898402563408
20
15.013005971909179
30
0
10
31.015898402563408
20
14.800578594208373
30
0
10
30.857659991613701
20
14.65101146698059
30
0
0
SPLINE
5
554
100
AcDbEntity
8
0
100
AcDbSpline
70
0
71
2
72
6
73
3
74
0
42
0.000000001
43
0.0000000001
44
0.0000000001
40
0
40
0
40
0
40
1
40
1
40
1
10
30.857659991613701
20
14.65101146698059
30
0
10
30.699423964849785
20
14.501445531845702
30
0
10
30.443643744818047
20
14.501445531845702
30
0
0
SPLINE
5
555
100
AcDbEntity
8
0
100
AcDbSpline
70
0
71
2
72
6
73
3
74
0
42
0.000000001
43
0.0000000001
44
0.0000000001
40
0
40
0
40
0
40
1
40
1
40
1
10
30.443643744818047
20
14.501445531845702
30
0
10
30.170520957342461
20
14.501445531845702
30
0
10
29.986273463598565
20
14.666185617447509
30
0
0
SPLINE
5
556
100
AcDbEntity
8
0
100
AcDbSpline
70
0
71
2
72
6
73
3
74
0
42
0.000000001
43
0.0000000001
44
0.0000000001
40
0
40
0
40
0
40
1
40
1
40
1
10
29.986273463598565
20
14.666185617447509
30
0
10
29.802023585668877
20
14.830925703049315
30
0
10
29.802023585668877
20
15.052023172379149
30
0
0
SPLINE
5
557
100
AcDbEntity
8
0
100
AcDbSpline
70
0
71
2
72
6
73
3
74
0
42
0.000000001
43
0.0000000001
44
0.0000000001
40
0
40
0
40
0
40
1
40
1
40
1
10
29.802023585668877
20
15.052023172379149
30
0
10
29.802023585668877
20
15.36416196823181
30
0
10
30.049134906164483
20
15.648122072220458
30
0
0
SPLINE
5
558
100
AcDbEntity
8
0
100
AcDbSpline
70
0
71
2
72
6
73
3
74
0
42
0.000000001
43
0.0000000001
44
0.0000000001
40
0
40
0
40
0
40
1
40
1
40
1
10
30.049134906164483
20
15.648122072220458
30
0
10
30.296243842474297
20
15.93208098411621
30
0
10
30.738441165319756
20
16.083815336228025
30
0
0
SPLINE
5
559
100
AcDbEntity
8
0
100
AcDbSpline
70
0
71
2
72
6
73
3
74
0
42
0.000000001
43
0.0000000001
44
0.0000000001
40
0
40
0
40
0
40
1
40
1
40
1
10
30.738441165319756
20
16.083815336228025
30
0
10
31.180638488165215
20
16.235549688339841
30
0
10
31.657516177526787
20
16.235549688339841
30
0
0
SPLINE
5
560
100
AcDbEntity
8
0
100
AcDbSpline
70
0
71
2
72
6
73
3
74
0
42
0.000000001
43
0.0000000001
44
0.0000000001
40
0
40
0
40
0
40
1
40
1
40
1
10
31.657516177526787
20
16.235549688339841
30
0
10
32.234105285040215
20
16.235549688339841
30
0
10
32.570087130895928
20
15.990607976914061
30
0
0
SPLINE
5
561
100
AcDbEntity
8
0
100
AcDbSpline
70
0
71
2
72
6
73
3
74
0
42
0.000000001
43
0.0000000001
44
0.0000000001
40
0
40
0
40
0
40
1
40
1
40
1
10
32.570087130895928
20
15.990607976914061
30
0
10
32.906071360937432
20
15.745665073395385
30
0
10
33.005782779089287
20
15.459537744522704
30
0
0
SPLINE
5
562
100
AcDbEntity
8
0
100
AcDbSpline
70
0
71
2
72
6
73
3
74
0
42
0.000000001
43
0.0000000001
44
0.0000000001
40
0
40
0
40
0
40
1
40
1
40
1
10
33.005782779089287
20
15.459537744522704
30
0
10
33.066474612585381
20
15.277457475662841
30
0
10
33.066474612585381
20
14.622832775116576
30
0
0
LINE
5
563
100
AcDbEntity
8
0
100
AcDbLine
10
33.066474612585381
20
14.622832775116576
30
0
11
33.066474612585381
21
13.04913306236328
31
0
0
SPLINE
5
564
100
AcDbEntity
8
0
100
AcDbSpline
70
0
71
2
72
6
73
3
74
0
42
0.000000001
43
0.0000000001
44
0.0000000001
40
0
40
0
40
0
40
1
40
1
40
1
10
33.066474612585381
20
13.04913306236328
30
0
10
33.066474612585381
20
12.771677017212523
30
0
10
33.088151629797295
20
12.700144290924682
30
0
0
SPLINE
5
565
100
AcDbEntity
8
0
100
AcDbSpline
70
0
71
2
72
6
73
3
74
0
42
0.000000001
43
0.0000000001
44
0.0000000001
40
0
40
0
40
0
40
1
40
1
40
1
10
33.088151629797295
20
12.700144290924682
30
0
10
33.109828647009209
20
12.628612756729735
30
0
10
33.153180297247246
20
12.593931198120726
30
0
0
SPLINE
5
566
100
AcDbEntity
8
0
100
AcDbSpline
70
0
71
2
72
6
73
3
74
0
42
0.000000001
43
0.0000000001
44
0.0000000001
40
0
40
0
40
0
40
1
40
1
40
1
10
33.153180297247246
20
12.593931198120726
30
0
10
33.196534331671074
20
12.559248447418822
30
0
10
33.252891715399102
20
12.559248447418822
30
0
0
SPLINE
5
567
100
AcDbEntity
8
0
100
AcDbSpline
70
0
71
2
72
6
73
3
74
0
42
0.000000001
43
0.0000000001
44
0.0000000001
40
0
40
0
40
0
40
1
40
1
40
1
10
33.252891715399102
20
12.559248447418822
30
0
10
33.365608867040947
20
12.559248447418822
30
0
10
33.48266046845086
20
12.719652891159667
30
0
0
LINE
5
568
100
AcDbEntity
8
0
100
AcDbLine
10
33.48266046845086
20
12.719652891159667
30
0
11
33.612717803350762
21
12.615607023239745
31
0
0
SPLINE
5
569
100
AcDbEntity
8
0
100
AcDbSpline
70
0
71
2
72
6
73
3
74
0
42
0.000000001
43
0.0000000001
44
0.0000000001
40
0
40
0
40
0
40
1
40
1
40
1
10
33.612717803350762
20
12.615607023239745
30
0
10
33.395954783788994
20
12.294798135758056
30
0
10
33.164018805853203
20
12.149566650391234
30
0
0
SPLINE
5
570
100
AcDbEntity
8
0
100
AcDbSpline
70
0
71
2
72
6
73
3
74
0
42
0.000000001
43
0.0000000001
44
0.0000000001
40
0
40
0
40
0
40
1
40
1
40
1
10
33.164018805853203
20
12.149566650391234
30
0
10
32.932082827917412
20
12.004335165024413
30
0
10
32.637285407415703
20
12.004335165024413
30
0
0
SPLINE
5
571
100
AcDbEntity
8
0
100
AcDbSpline
70
0
71
2
72
6
73
3
74
0
42
0.000000001
43
0.0000000001
44
0.0000000001
40
0
40
0
40
0
40
1
40
1
40
1
10
32.637285407415703
20
12.004335165024413
30
0
10
32.290465052954033
20
12.004335165024413
30
0
10
32.095376666418389
20
12.166908025742186
30
0
0
SPLINE
5
572
100
AcDbEntity
8
0
100
AcDbSpline
70
0
71
2
72
6
73
3
74
0
42
0.000000001
43
0.0000000001
44
0.0000000001
40
0
40
0
40
0
40
1
40
1
40
1
10
32.095376666418389
20
12.166908025742186
30
0
10
31.900290664068535
20
12.329479694367064
30
0
10
31.856939013830498
20
12.658959865570678
30
0
0
LINE
5
573
100
AcDbEntity
8
0
100
AcDbLine
10
31.856939013830498
20
12.975433111191405
30
0
11
31.856939013830498
21
14.332369804382934
31
0
0
SPLINE
5
574
100
AcDbEntity
8
0
100
AcDbSpline
70
0
71
2
72
6
73
3
74
0
42
0.000000001
43
0.0000000001
44
0.0000000001
40
0
40
0
40
0
40
1
40
1
40
1
10
31.856939013830498
20
14.332369804382934
30
0
10
31.33237045609124
20
14.024566650391234
30
0
10
31.076590236059502
20
13.673410654068602
30
0
0
SPLINE
5
575
100
AcDbEntity
8
0
100
AcDbSpline
70
0
71
2
72
6
73
3
74
0
42
0.000000001
43
0.0000000001
44
0.0000000001
40
0
40
0
40
0
40
1
40
1
40
1
10
31.076590236059502
20
13.673410654068602
30
0
10
30.907515700689629
20
13.439306259155883
30
0
10
30.907515700689629
20
13.200867414475097
30
0
0
SPLINE
5
576
100
AcDbEntity
8
0
100
AcDbSpline
70
0
71
2
72
6
73
3
74
0
42
0.000000001
43
0.0000000001
44
0.0000000001
40
0
40
0
40
0
40
1
40
1
40
1
10
30.907515700689629
20
13.200867414475097
30
0
10
30.907515700689629
20
13.001445770264281
30
0
10
31.050578769079522
20
12.849711418152465
30
0
0
SPLINE
5
577
100
AcDbEntity
8
0
100
AcDbSpline
70
0
71
2
72
6
73
3
74
0
42
0.000000001
43
0.0000000001
44
0.0000000001
40
0
40
0
40
0
40
1
40
1
40
1
10
31.050578769079522
20
12.849711418152465
30
0
10
31.158961470953301
20
12.732658624649657
30
0
10
31.354047473303154
20
12.732658624649657
30
0
0
SPLINE
5
578
100
AcDbEntity
8
0
100
AcDbSpline
70
0
71
2
72
6
73
3
74
0
42
0.000000001
43
0.0000000001
44
0.0000000001
40
0
40
0
40
0
40
1
40
1
40
1
10
31.354047473303154
20
12.732658624649657
30
0
10
31.570810492864922
20
12.732658624649657
30
0
10
31.856939013830498
20
12.975433111191405
30
0
0
LINE
5
579
100
AcDbEntity
8
0
100
AcDbLine
10
35.715319331518486
20
17.939306735993039
30
0
11
35.715319331518486
21
15.593930721283566
31
0
0
SPLINE
5
580
100
AcDbEntity
8
0
100
AcDbSpline
70
0
71
2
72
6
73
3
74
0
42
0.000000001
43
0.0000000001
44
0.0000000001
40
0
40
0
40
0
40
1
40
1
40
1
10
35.715319331518486
20
15.593930721283568
30
0
10
36.049136336675957
20
15.9450867176062
30
0
10
36.326591189733819
20
16.09031820297302
30
0
0
SPLINE
5
581
100
AcDbEntity
8
0
100
AcDbSpline
70
0
71
2
72
6
73
3
74
0
42
0.000000001
43
0.0000000001
44
0.0000000001
40
0
40
0
40
0
40
1
40
1
40
1
10
36.326591189733819
20
16.09031820297302
30
0
10
36.604048426977471
20
16.235549688339841
30
0
10
36.903182681433037
20
16.235549688339841
30
0
0
SPLINE
5
582
100
AcDbEntity
8
0
100
AcDbSpline
70
0
71
2
72
6
73
3
74
0
42
0.000000001
43
0.0000000001
44
0.0000000001
40
0
40
0
40
0
40
1
40
1
40
1
10
36.903182681433037
20
16.235549688339841
30
0
10
37.284685786596611
20
16.235549688339841
30
0
10
37.555638965002373
20
16.018786668778077
30
0
0
SPLINE
5
583
100
AcDbEntity
8
0
100
AcDbSpline
70
0
71
2
72
6
73
3
74
0
42
0.000000001
43
0.0000000001
44
0.0000000001
40
0
40
0
40
0
40
1
40
1
40
1
10
37.555638965002373
20
16.018786668778077
30
0
10
37.826592143408135
20
15.802023649216308
30
0
10
37.915465052954033
20
15.509393453598632
30
0
0
SPLINE
5
584
100
AcDbEntity
8
0
100
AcDbSpline
70
0
71
2
72
6
73
3
74
0
42
0.000000001
43
0.0000000001
44
0.0000000001
40
0
40
0
40
0
40
1
40
1
40
1
10
37.915465052954033
20
15.509393453598632
30
0
10
38.004337962499932
20
15.216763257980956
30
0
10
38.004337962499932
20
14.523121356964721
30
0
0
LINE
5
585
100
AcDbEntity
8
0
100
AcDbLine
10
38.004337962499932
20
14.523121356964721
30
0
11
38.004337962499932
21
12.940751552582396
31
0
0
SPLINE
5
586
100
AcDbEntity
8
0
100
AcDbSpline
70
0
71
2
72
6
73
3
74
0
42
0.000000001
43
0.0000000001
44
0.0000000001
40
0
40
0
40
0
40
1
40
1
40
1
10
38.004337962499932
20
12.940751552582396
30
0
10
38.004337962499932
20
12.476878404617919
30
0
10
38.091043647161797
20
12.36199402809204
30
0
0
SPLINE
5
587
100
AcDbEntity
8
0
100
AcDbSpline
70
0
71
2
72
6
73
3
74
0
42
0.000000001
43
0.0000000001
44
0.0000000001
40
0
40
0
40
0
40
1
40
1
40
1
10
38.091043647161797
20
12.36199402809204
30
0
10
38.177749331823662
20
12.247109651566161
30
0
10
38.442198451391533
20
12.216762542725219
30
0
0
LINE
5
588
100
AcDbEntity
8
0
100
AcDbLine
10
38.442198451391533
20
12.216762542725219
30
0
11
38.442198451391533
21
12.060693740845336
31
0
0
LINE
5
589
100
AcDbEntity
8
0
100
AcDbLine
10
38.442198451391533
20
12.060693740845336
30
0
11
36.387285407415703
21
12.060693740845336
31
0
0
LINE
5
590
100
AcDbEntity
8
0
100
AcDbLine
10
36.387285407415703
20
12.060693740845336
30
0
11
36.387285407415703
21
12.216762542725219
31
0
0
SPLINE
5
591
100
AcDbEntity
8
0
100
AcDbSpline
70
0
71
2
72
6
73
3
74
0
42
0.000000001
43
0.0000000001
44
0.0000000001
40
0
40
0
40
0
40
1
40
1
40
1
10
36.387285407415703
20
12.216762542725219
30
0
10
36.604048426977471
20
12.247109651566161
30
0
10
36.71243112885125
20
12.390173912048949
30
0
0
SPLINE
5
592
100
AcDbEntity
8
0
100
AcDbSpline
70
0
71
2
72
6
73
3
74
0
42
0.000000001
43
0.0000000001
44
0.0000000001
40
0
40
0
40
0
40
1
40
1
40
1
10
36.71243112885125
20
12.390173912048949
30
0
10
36.790465529791192
20
12.502889871597899
30
0
10
36.790465529791192
20
12.940751552582396
30
0
0
LINE
5
593
100
AcDbEntity
8
0
100
AcDbLine
10
36.790465529791192
20
12.940751552582396
30
0
11
36.790465529791192
21
14.748554468155517
31
0
0
SPLINE
5
594
100
AcDbEntity
8
0
100
AcDbSpline
70
0
71
2
72
6
73
3
74
0
42
0.000000001
43
0.0000000001
44
0.0000000001
40
0
40
0
40
0
40
1
40
1
40
1
10
36.790465529791192
20
14.748554468155517
30
0
10
36.790465529791192
20
15.25144600868286
30
0
10
36.751448329321221
20
15.379336118698729
30
0
0
SPLINE
5
595
100
AcDbEntity
8
0
100
AcDbSpline
70
0
71
2
72
6
73
3
74
0
42
0.000000001
43
0.0000000001
44
0.0000000001
40
0
40
0
40
0
40
1
40
1
40
1
10
36.751448329321221
20
15.379336118698729
30
0
10
36.71243112885125
20
15.507226228714599
30
0
10
36.619221385351494
20
15.578757762909545
30
0
0
SPLINE
5
596
100
AcDbEntity
8
0
100
AcDbSpline
70
0
71
2
72
6
73
3
74
0
42
0.000000001
43
0.0000000001
44
0.0000000001
40
0
40
0
40
0
40
1
40
1
40
1
10
36.619221385351494
20
15.578757762909545
30
0
10
36.526014026037529
20
15.650289297104491
30
0
10
36.408962424627617
20
15.650289297104491
30
0
0
SPLINE
5
597
100
AcDbEntity
8
0
100
AcDbSpline
70
0
71
2
72
6
73
3
74
0
42
0.000000001
43
0.0000000001
44
0.0000000001
40
0
40
0
40
0
40
1
40
1
40
1
10
36.408962424627617
20
15.650289297104491
30
0
10
36.235551055303887
20
15.650289297104491
30
0
10
36.07081096970208
20
15.53106927871765
30
0
0
SPLINE
5
598
100
AcDbEntity
8
0
100
AcDbSpline
70
0
71
2
72
6
73
3
74
0
42
0.000000001
43
0.0000000001
44
0.0000000001
40
0
40
0
40
0
40
1
40
1
40
1
10
36.07081096970208
20
15.53106927871765
30
0
10
35.906073268286065
20
15.411849260330809
30
0
10
35.715319331518486
20
15.112717390061034
30
0
0
LINE
5
599
100
AcDbEntity
8
0
100
AcDbLine
10
35.715319331518486
20
15.112717390061034
30
0
11
35.715319331518486
21
12.940751552582396
31
0
0
SPLINE
5
600
100
AcDbEntity
8
0
100
AcDbSpline
70
0
71
2
72
6
73
3
74
0
42
0.000000001
43
0.0000000001
44
0.0000000001
40
0
40
0
40
0
40
1
40
1
40
1
10
35.715319331518486
20
12.940751552582396
30
0
10
35.715319331518486
20
12.507225513458861
30
0
10
35.780350383154229
20
12.398844003677977
30
0
0
SPLINE
5
601
100
AcDbEntity
8
0
100
AcDbSpline
70
0
71
2
72
6
73
3
74
0
42
0.000000001
43
0.0000000001
44
0.0000000001
40
0
40
0
40
0
40
1
40
1
40
1
10
35.780350383154229
20
12.398844003677977
30
0
10
35.862719233862236
20
12.251445293427123
30
0
10
36.118499453893975
20
12.216762542725219
30
0
0
LINE
5
602
100
AcDbEntity
8
0
100
AcDbLine
10
36.118499453893975
20
12.216762542725219
30
0
11
36.118499453893975
21
12.060693740845336
31
0
0
LINE
5
603
100
AcDbEntity
8
0
100
AcDbLine
10
36.118499453893975
20
12.060693740845336
30
0
11
34.063586409918145
21
12.060693740845336
31
0
0
LINE
5
604
100
AcDbEntity
8
0
100
AcDbLine
10
34.063586409918145
20
12.060693740845336
30
0
11
34.063586409918145
21
12.216762542725219
31
0
0
SPLINE
5
605
100
AcDbEntity
8
0
100
AcDbSpline
70
0
71
2
72
6
73
3
74
0
42
0.000000001
43
0.0000000001
44
0.0000000001
40
0
40
0
40
0
40
1
40
1
40
1
10
34.063586409918145
20
12.216762542725219
30
0
10
34.319366629949883
20
12.242775201798095
30
0
10
34.427749331823662
20
12.381502628327025
30
0
0
SPLINE
5
606
100
AcDbEntity
8
0
100
AcDbSpline
70
0
71
2
72
6
73
3
74
0
42
0.000000001
43
0.0000000001
44
0.0000000001
40
0
40
0
40
0
40
1
40
1
40
1
10
34.427749331823662
20
12.381502628327025
30
0
10
34.501446898809746
20
12.476878404617919
30
0
10
34.501446898809746
20
12.940751552582396
30
0
0
LINE
5
607
100
AcDbEntity
8
0
100
AcDbLine
10
34.501446898809746
20
12.940751552582396
30
0
11
34.501446898809746
21
17.059248924255982
31
0
0
SPLINE
5
608
100
AcDbEntity
8
0
100
AcDbSpline
70
0
71
2
72
6
73
3
74
0
42
0.000000001
43
0.0000000001
44
0.0000000001
40
0
40
0
40
0
40
1
40
1
40
1
10
34.501446898809746
20
17.059248924255979
30
0
10
34.501446898809746
20
17.518786430359494
30
0
10
34.416910823217705
20
17.631502985954892
30
0
0
SPLINE
5
609
100
AcDbEntity
8
0
100
AcDbSpline
70
0
71
2
72
6
73
3
74
0
42
0.000000001
43
0.0000000001
44
0.0000000001
40
0
40
0
40
0
40
1
40
1
40
1
10
34.416910823217705
20
17.631502985954892
30
0
10
34.332372363439873
20
17.744220137596738
30
0
10
34.063586409918145
20
17.778902292252194
30
0
0
LINE
5
610
100
AcDbEntity
8
0
100
AcDbLine
10
34.063586409918145
20
17.778902292252194
30
0
11
34.063586409918145
21
17.939306735993039
31
0
0
LINE
5
611
100
AcDbEntity
8
0
100
AcDbLine
10
34.063586409918145
20
17.939306735993039
30
0
11
35.715319331518486
21
17.939306735993039
31
0
0
LINE
5
612
100
AcDbEntity
8
0
100
AcDbLine
10
40.583817180029229
20
17.939306735993039
30
0
11
40.583817180029229
21
12.901734352112424
31
0
0
SPLINE
5
613
100
AcDbEntity
8
0
100
AcDbSpline
70
0
71
2
72
6
73
3
74
0
42
0.000000001
43
0.0000000001
44
0.0000000001
40
0
40
0
40
0
40
1
40
1
40
1
10
40.583817180029229
20
12.901734352112426
30
0
10
40.583817180029229
20
12.472543954849852
30
0
10
40.683528598181084
20
12.353323936463012
30
0
0
SPLINE
5
614
100
AcDbEntity
8
0
100
AcDbSpline
70
0
71
2
72
6
73
3
74
0
42
0.000000001
43
0.0000000001
44
0.0000000001
40
0
40
0
40
0
40
1
40
1
40
1
10
40.683528598181084
20
12.353323936463012
30
0
10
40.78324001633294
20
12.234103918076171
30
0
10
41.073702987066582
20
12.216762542725219
30
0
0
LINE
5
615
100
AcDbEntity
8
0
100
AcDbLine
10
41.073702987066582
20
12.216762542725219
30
0
11
41.073702987066582
21
12.060693740845336
31
0
0
LINE
5
616
100
AcDbEntity
8
0
100
AcDbLine
10
41.073702987066582
20
12.060693740845336
30
0
11
38.884395774236992
21
12.060693740845336
31
0
0
LINE
5
617
100
AcDbEntity
8
0
100
AcDbLine
10
38.884395774236992
20
12.060693740845336
30
0
11
38.884395774236992
21
12.216762542725219
31
0
0
SPLINE
5
618
100
AcDbEntity
8
0
100
AcDbSpline
70
0
71
2
72
6
73
3
74
0
42
0.000000001
43
0.0000000001
44
0.0000000001
40
0
40
0
40
0
40
1
40
1
40
1
10
38.884395774236992
20
12.216762542725219
30
0
10
39.153181727758721
20
12.225433826447142
30
0
10
39.283239062658623
20
12.372832536697997
30
0
0
SPLINE
5
619
100
AcDbEntity
8
0
100
AcDbSpline
70
0
71
2
72
6
73
3
74
0
42
0.000000001
43
0.0000000001
44
0.0000000001
40
0
40
0
40
0
40
1
40
1
40
1
10
39.283239062658623
20
12.372832536697997
30
0
10
39.369944747320488
20
12.472543954849852
30
0
10
39.369944747320488
20
12.901734352112426
30
0
0
LINE
5
620
100
AcDbEntity
8
0
100
AcDbLine
10
39.369944747320488
20
12.901734352112426
30
0
11
39.369944747320488
21
17.098266124725953
31
0
0
SPLINE
5
621
100
AcDbEntity
8
0
100
AcDbSpline
70
0
71
2
72
6
73
3
74
0
42
0.000000001
43
0.0000000001
44
0.0000000001
40
0
40
0
40
0
40
1
40
1
40
1
10
39.369944747320488
20
17.098266124725949
30
0
10
39.369944747320488
20
17.523121476174008
30
0
10
39.270233329168633
20
17.642341494560849
30
0
0
SPLINE
5
622
100
AcDbEntity
8
0
100
AcDbSpline
70
0
71
2
72
6
73
3
74
0
42
0.000000001
43
0.0000000001
44
0.0000000001
40
0
40
0
40
0
40
1
40
1
40
1
10
39.270233329168633
20
17.642341494560849
30
0
10
39.170521911016777
20
17.761560916901242
30
0
10
38.884395774236992
20
17.778902292252194
30
0
0
LINE
5
623
100
AcDbEntity
8
0
100
AcDbLine
10
38.884395774236992
20
17.778902292252194
30
0
11
38.884395774236992
21
17.939306735993039
31
0
0
LINE
5
624
100
AcDbEntity
8
0
100
AcDbLine
10
38.884395774236992
20
17.939306735993039
30
0
11
40.583817180029229
21
17.939306735993039
31
0
0
ENDSEC
0
SECTION
2
OBJECTS
0
DICTIONARY
5
C
100
AcDbDictionary
3
ACAD_GROUP
350
D
3
ACAD_MLINESTYLE
350
17
0
DICTIONARY
5
D
100
AcDbDictionary
0
DICTIONARY
5
1A
330
C
100
AcDbDictionary
0
DICTIONARY
5
17
100
AcDbDictionary
0
ENDSEC
0
EOF
